<?xml version="1.0" standalone="no"?>
<!DOCTYPE svg PUBLIC "-//W3C//DTD SVG 1.1//EN" "http://www.w3.org/Graphics/SVG/1.1/DTD/svg11.dtd" >
<svg xmlns="http://www.w3.org/2000/svg" xmlns:xlink="http://www.w3.org/1999/xlink" version="1.1">
<metadata></metadata>
<defs>
<font id="latoheavy" horiz-adv-x="1187" >
<font-face units-per-em="2048" ascent="1649" descent="-399" />
<missing-glyph horiz-adv-x="486" />
<glyph horiz-adv-x="0" />
<glyph horiz-adv-x="0" />
<glyph horiz-adv-x="682" />
<glyph unicode=" "  horiz-adv-x="486" />
<glyph unicode="&#x09;" horiz-adv-x="486" />
<glyph unicode="&#xa0;" horiz-adv-x="486" />
<glyph unicode="!" horiz-adv-x="585" d="M124 148q0 34 13 64.5t35.5 52.5t52.5 34.5t66 12.5q35 0 65 -12.5t52.5 -34.5t36 -52.5t13.5 -64.5q0 -35 -13.5 -64.5t-36 -51.5t-52.5 -34t-65 -12q-36 0 -66 12t-52.5 34t-35.5 51.5t-13 64.5zM162 900v586h264v-586q0 -93 -9.5 -184t-27.5 -190h-190 q-17 98 -27 189.5t-10 184.5z" />
<glyph unicode="&#x22;" horiz-adv-x="830" d="M96 1192v294h246v-294l-25 -161q-8 -49 -29 -75.5t-69 -26.5q-42 0 -64.5 26.5t-32.5 75.5zM487 1192v294h246v-294l-25 -161q-8 -49 -29 -75.5t-69 -26.5q-42 0 -64.5 26.5t-32.5 75.5z" />
<glyph unicode="#" d="M32 523l14 89h190l47 264h-212l21 116q8 43 36.5 63.5t88.5 20.5h93l60 317q8 43 41 68t77 25h129l-75 -410h191l76 410h126q44 0 70 -27t19 -68l-58 -315h202l-21 -117q-8 -43 -36 -63t-88 -20h-85l-47 -264h129q43 0 61 -25.5t9 -86.5l-15 -88h-213l-76 -412h-130 q-19 0 -36 9t-28.5 25t-16.5 36.5t0 44.5l55 297h-191l-55 -312q-10 -54 -46 -77t-81 -23h-125l75 412h-106q-43 0 -60.5 25t-8.5 86zM467 612h191l48 264h-192z" />
<glyph unicode="$" d="M55 179l87 128q11 16 31 27t40 11q24 0 49.5 -14.5t56.5 -34.5t70.5 -40t91.5 -32l39 425q-49 13 -97.5 30t-93.5 39.5t-83.5 53t-67 72.5t-45 96.5t-16.5 126.5q0 80 31.5 155t92.5 134.5t150 98t205 44.5l11 122q2 27 23 48t53 21h104l-18 -201q111 -19 189.5 -63.5 t135.5 -99.5l-70 -102q-14 -24 -30.5 -34.5t-39.5 -10.5q-15 0 -36 8.5t-46.5 21.5t-57 26t-65.5 22l-36 -397q49 -14 98 -31t94 -38.5t84 -50t68 -67t45.5 -88.5t16.5 -115q0 -95 -32 -179.5t-94.5 -149.5t-152.5 -106t-207 -49l-12 -140q-2 -27 -22.5 -48t-53.5 -21h-104 l20 216q-58 8 -115 25t-109.5 41t-98.5 54t-83 66zM382 1095q0 -35 12 -62t33.5 -48.5t51 -38.5t65.5 -31l31 349q-52 -7 -88.5 -23t-60 -38.5t-34 -50t-10.5 -57.5zM654 219q98 14 147.5 67t49.5 141q0 35 -12.5 61t-34 46.5t-51 36.5t-64.5 28z" />
<glyph unicode="%" horiz-adv-x="1693" d="M75 1126q0 86 26 155.5t72.5 118t110 75t139.5 26.5t140.5 -26.5t111 -75t72.5 -118t26 -155.5q0 -83 -28.5 -150.5t-77.5 -116t-112 -74.5t-132 -26q-76 0 -139.5 26t-110 74.5t-72.5 116t-26 150.5zM144 0l1110 1443q14 16 34.5 29.5t56.5 13.5h205l-1111 -1445 q-14 -17 -34.5 -29t-50.5 -12h-210zM294 1126q0 -54 9.5 -90t26.5 -58t41 -31t52 -9t52.5 9t42.5 31t28 58t10 90q0 55 -10 92.5t-28 60.5t-42.5 32.5t-52.5 9.5t-52 -9.5t-41 -32.5t-26.5 -60t-9.5 -93zM921 349q0 86 26 155t72.5 118t110 75t139.5 26t140.5 -26t111 -75 t72.5 -118t26 -155q0 -83 -28.5 -150.5t-77.5 -116t-112.5 -74.5t-131.5 -26q-76 0 -139.5 26t-110 74.5t-72.5 116t-26 150.5zM1140 349q0 -54 9.5 -90t26.5 -58t41 -31t52 -9t52.5 9t42 31t28 58t10.5 90q0 55 -10.5 92.5t-28 60t-42.5 32.5t-52 10q-28 0 -52 -10 t-41 -32.5t-26.5 -60t-9.5 -92.5z" />
<glyph unicode="&#x26;" horiz-adv-x="1490" d="M69 414q0 69 21.5 130t60.5 113.5t93 95.5t118 73q-52 76 -75 148.5t-23 142.5q0 78 29 148t83 123t133.5 83.5t180.5 30.5q94 0 168 -28t125 -75t80.5 -107.5t35.5 -126.5l-180 -37q-50 -10 -73 41q-20 53 -56.5 87.5t-99.5 34.5q-39 0 -69.5 -13.5t-51.5 -37t-32 -55 t-11 -66.5q0 -29 6 -55.5t18.5 -53.5t34 -55.5t52.5 -61.5l382 -399q32 62 50 131t25 142q3 27 17.5 42t40.5 15h177q0 -141 -39.5 -267t-109.5 -231l311 -326h-278q-22 0 -38.5 2t-31 8t-27.5 16.5t-27 25.5l-84 88q-98 -75 -216.5 -115.5t-253.5 -40.5q-87 0 -171 30 t-150 86t-105.5 135t-39.5 179zM356 436q0 -53 17.5 -95.5t48.5 -72.5t73 -46.5t90 -16.5q80 0 148 23t124 66l-369 385q-71 -51 -101.5 -112.5t-30.5 -130.5z" />
<glyph unicode="'" horiz-adv-x="439" d="M96 1192v294h246v-294l-25 -161q-8 -49 -29 -75.5t-69 -26.5q-42 0 -64.5 26.5t-32.5 75.5z" />
<glyph unicode="(" horiz-adv-x="568" d="M68 642q0 129 15.5 254t49.5 246t87 239t129 234l125 -74q12 -7 22 -16t14.5 -22.5t3 -31t-13.5 -39.5q-90 -176 -139 -379t-49 -411t49 -410.5t139 -379.5q12 -23 13.5 -40t-3 -30t-14.5 -22.5t-22 -16.5l-125 -75q-76 117 -129 234.5t-87 239t-49.5 246t-15.5 254.5z " />
<glyph unicode=")" horiz-adv-x="568" d="M54.5 -188q1.5 17 14.5 40q90 177 138.5 379.5t48.5 410.5t-48.5 410.5t-138.5 379.5q-12 23 -14 40t2.5 30.5t14.5 22.5t21 16l126 74q75 -116 128 -234t87 -239t50 -246t16 -254q0 -130 -16 -254.5t-50 -246t-87 -239t-128 -234.5l-126 75q-11 7 -21 16.5t-14.5 22.5 t-3 30z" />
<glyph unicode="*" horiz-adv-x="870" d="M95 1080l157 91q19 11 38 19t39 11q-19 3 -39 11.5t-38 19.5l-157 93l66 111l156 -94q38 -20 63 -48q-12 35 -12 77v185h134v-183q0 -20 -2.5 -40t-9.5 -38q12 14 28.5 25.5t34.5 21.5l156 92l66 -111l-157 -91q-18 -11 -37 -19t-38 -12q38 -6 75 -30l157 -93l-65 -111 l-157 93q-18 11 -34.5 23t-29.5 26q12 -36 13 -78v-184h-134v182q0 20 2.5 40.5t8.5 37.5q-24 -27 -62 -47l-155 -91z" />
<glyph unicode="+" d="M91 585v206h387v413h230v-413h389v-206h-389v-415h-230v415h-387z" />
<glyph unicode="," horiz-adv-x="484" d="M80 167q0 31 11 57.5t32 46t50.5 30.5t65.5 11q42 0 73 -14.5t51.5 -39.5t30.5 -58t10 -70q0 -50 -15 -106t-46 -112t-75.5 -110t-102.5 -98l-49 44q-11 9 -16 18.5t-5 22.5q0 9 7 20t16 20l27.5 30t33 40t30 48.5t20.5 56.5q-34 1 -61.5 14.5t-47 35t-30 50.5t-10.5 63z " />
<glyph unicode="-" horiz-adv-x="764" d="M112 505v231h540v-231h-540z" />
<glyph unicode="." horiz-adv-x="487" d="M77 148q0 34 12.5 64.5t35 52.5t53 34.5t66.5 12.5q35 0 65.5 -12.5t53 -34.5t35.5 -52.5t13 -64.5q0 -35 -13 -64.5t-35.5 -51.5t-53 -34t-65.5 -12q-36 0 -66.5 12t-53 34t-35 51.5t-12.5 64.5z" />
<glyph unicode="/" horiz-adv-x="966" d="M56 -99l591 1529q17 46 55 71.5t88 25.5h120l-585 -1523q-19 -51 -62 -77t-87 -26h-120z" />
<glyph unicode="0" d="M46 743q0 195 41.5 338t114 236.5t173 139t217.5 45.5t217.5 -45.5t174.5 -139t116 -236.5t42 -338t-42 -338t-116 -236.5t-174.5 -139t-217.5 -45.5t-217.5 45.5t-173 139t-114 237t-41.5 337.5zM338 743q0 -159 21.5 -261t57 -161.5t81 -83t94.5 -23.5t95.5 23.5 t82.5 83t58 161.5t22 261q0 158 -22 260.5t-58 162t-82.5 83t-95.5 23.5t-94.5 -23.5t-81 -83t-57 -162t-21.5 -260.5z" />
<glyph unicode="1" d="M121 1100l457 387h232v-1279h257v-208h-834v208h295v813q0 27 1 54.5t3 56.5l-194 -162q-20 -15 -39.5 -19.5t-37 -1t-31 12.5t-20.5 18z" />
<glyph unicode="2" d="M71 0v92q0 27 11 58t38 57l440 441q56 56 99 108t72 101.5t43 101t14 107.5q0 99 -51 151t-144 52q-41 0 -75.5 -12t-61.5 -32.5t-46.5 -48t-28.5 -60.5q-18 -51 -49.5 -68t-88.5 -8l-150 27q16 109 61.5 190.5t113 136t154.5 81.5t187 27q105 0 192 -31t148.5 -87 t95 -135t33.5 -174q0 -82 -23.5 -151.5t-64 -132.5t-93.5 -122.5t-113 -119.5l-315 -323q52 15 103.5 24t96.5 9h333q46 0 72.5 -25.5t26.5 -67.5v-166h-1030z" />
<glyph unicode="3" d="M59 379l125 51q49 20 91.5 11t61.5 -45q20 -39 43 -71.5t52 -56.5t65.5 -37.5t83.5 -13.5q59 0 103 19.5t73.5 50.5t44.5 70.5t15 78.5q0 51 -9 92.5t-42.5 71t-98.5 45t-177 15.5v199q93 0 152.5 15.5t93.5 43t47 66.5t13 85q0 97 -51 148.5t-144 51.5q-41 0 -75 -12 t-61.5 -32.5t-47 -48t-28.5 -60.5q-19 -51 -50 -68t-89 -8l-149 27q16 109 61.5 190.5t113 136t154 81.5t186.5 27q106 0 191 -30t143.5 -82.5t89.5 -122t31 -149.5q0 -71 -15 -124.5t-44 -93.5t-71.5 -67.5t-97.5 -46.5q256 -84 256 -341q0 -114 -42 -200t-113 -144.5 t-164.5 -87.5t-195.5 -29q-109 0 -192 24.5t-146 73.5t-108 123.5t-79 173.5z" />
<glyph unicode="4" d="M2 554l696 933h269v-920h172v-159q0 -23 -15 -39t-42 -16h-115v-353h-246v353h-613q-27 0 -49 16.5t-27 43.5zM301 567h420v443q0 35 2.5 74t7.5 82z" />
<glyph unicode="5" d="M78 165l87 119q28 38 72 38q28 0 54 -16.5t60 -36.5t79 -36.5t110 -16.5q67 0 116 22t81 60.5t48 91t16 113.5q0 116 -66 178.5t-192 62.5q-103 0 -208 -38l-175 49l125 731h745v-119q0 -30 -8.5 -54t-28.5 -42t-51.5 -27.5t-76.5 -9.5h-384l-48 -281q46 9 88.5 13.5 t82.5 4.5q117 0 206.5 -35.5t150.5 -97t91.5 -144.5t30.5 -178q0 -119 -42 -216.5t-116 -168t-177 -109t-225 -38.5q-71 0 -135 14.5t-120 39.5t-104 58t-86 69z" />
<glyph unicode="6" d="M76 510q0 108 42.5 218.5t129.5 226.5l345 465q20 27 60 46.5t91 19.5h251l-440 -534l-45 -54q39 17 84 26.5t97 9.5q83 0 162 -27.5t140.5 -83t98.5 -139t37 -196.5q0 -103 -38 -195t-108.5 -161t-168 -108.5t-217.5 -39.5q-122 0 -218 38t-164 108t-103.5 166.5 t-35.5 213.5zM347 469q0 -58 15.5 -106t46 -81.5t76.5 -52t107 -18.5q55 0 102 19.5t81 54t53.5 81.5t19.5 102q0 60 -18.5 108.5t-52.5 81.5t-81 50.5t-104 17.5q-54 0 -99.5 -19t-77.5 -53t-50 -81.5t-18 -103.5z" />
<glyph unicode="7" d="M88 1297v189h1035v-121q0 -53 -11.5 -86t-22.5 -55l-541 -1130q-20 -39 -55 -66.5t-95 -27.5h-204l554 1103q20 39 41.5 70.5t48.5 60.5h-685q-25 0 -45 19.5t-20 43.5z" />
<glyph unicode="8" d="M72 421q0 127 61.5 217.5t196.5 135.5q-105 46 -157 129t-52 198q0 86 34.5 159t97.5 127t150 84.5t191 30.5q103 0 190 -30.5t150 -84.5t98 -127t35 -159q0 -115 -52 -198t-157 -129q135 -45 196.5 -135.5t61.5 -217.5q0 -99 -38 -180t-106.5 -138t-164.5 -88t-213 -31 t-213 31t-165 88t-106.5 138t-37.5 180zM362 426q0 -48 14.5 -89.5t43.5 -72t72.5 -47.5t101.5 -17t101.5 17t72.5 47.5t43 72t14 89.5q0 111 -56.5 171.5t-174.5 60.5t-175 -60.5t-57 -171.5zM396 1096q0 -42 9.5 -81.5t32 -70.5t60.5 -49t96 -18t96 18t60.5 49t32 70.5 t9.5 81.5q0 39 -11.5 74.5t-35.5 63t-61.5 43.5t-89.5 16t-89.5 -16t-61.5 -43.5t-35.5 -63t-11.5 -74.5z" />
<glyph unicode="9" d="M76 1016q0 99 37 187.5t104.5 154.5t162 105t210.5 39q117 0 210 -36t157.5 -102t99.5 -156.5t35 -198.5q0 -71 -11.5 -134.5t-33 -121t-51.5 -111.5t-68 -106l-331 -473q-20 -27 -58.5 -45t-87.5 -18h-261l466 570q15 19 29.5 38t29.5 37q-49 -29 -107 -43.5t-123 -14.5 q-75 0 -148 26.5t-131.5 79.5t-94 133.5t-35.5 189.5zM358 1036q0 -118 58 -179t170 -61q56 0 100.5 17.5t74.5 49.5t45.5 76t15.5 96q0 58 -17.5 103t-48.5 75.5t-74 46.5t-95 16q-53 0 -95 -18t-72 -50t-46 -76.5t-16 -95.5z" />
<glyph unicode=":" horiz-adv-x="534" d="M101 148q0 34 12.5 64.5t35 52.5t53 34.5t66.5 12.5q35 0 65.5 -12.5t53 -34.5t35.5 -52.5t13 -64.5q0 -35 -13 -64.5t-35.5 -51.5t-53 -34t-65.5 -12q-36 0 -66.5 12t-53 34t-35 51.5t-12.5 64.5zM101 865q0 34 12.5 64.5t35 52.5t53 34.5t66.5 12.5q35 0 65.5 -12.5 t53 -34.5t35.5 -52.5t13 -64.5q0 -35 -13 -64.5t-35.5 -51.5t-53 -34t-65.5 -12q-36 0 -66.5 12t-53 34t-35 51.5t-12.5 64.5z" />
<glyph unicode=";" horiz-adv-x="562" d="M112 865q0 34 12.5 64.5t35 52.5t53 34.5t66.5 12.5q35 0 65.5 -12.5t53 -34.5t35.5 -52.5t13 -64.5q0 -35 -13 -64.5t-35.5 -51.5t-53 -34t-65.5 -12q-36 0 -66.5 12t-53 34t-35 51.5t-12.5 64.5zM120 167q0 31 11 57.5t32 46t50.5 30.5t65.5 11q42 0 73 -14.5 t51.5 -39.5t30.5 -58t10 -70q0 -50 -15 -106t-46 -112t-75.5 -110t-102.5 -98l-49 44q-11 9 -16 18.5t-5 22.5q0 9 7 20t16 20l27.5 30t33 40t30 48.5t20.5 56.5q-34 1 -61.5 14.5t-47 35t-30 50.5t-10.5 63z" />
<glyph unicode="&#x3c;" d="M151 635v111l820 429v-199q0 -22 -11 -40t-37 -31l-335 -176q-25 -12 -53 -21.5t-59 -17.5q61 -14 112 -39l335 -175q27 -12 37.5 -30.5t10.5 -41.5v-198z" />
<glyph unicode="=" d="M135 401v206h918v-206h-918zM135 769v206h918v-206h-918z" />
<glyph unicode="&#x3e;" d="M217 206v198q0 23 11 41.5t37 30.5l335 175q26 12 53.5 22t59.5 17q-32 7 -59.5 17t-53.5 22l-335 176q-27 12 -37.5 30.5t-10.5 40.5v199l820 -429v-111z" />
<glyph unicode="?" horiz-adv-x="952" d="M68 1351q37 32 79 59.5t92 48t107.5 32t124.5 11.5q92 0 167 -25t128 -71.5t82.5 -112t29.5 -146.5q0 -78 -22 -135t-55.5 -99t-73.5 -72.5t-76 -57t-62 -52.5t-32 -58l-26 -147h-193l-20 166q-7 49 12.5 85.5t52.5 66.5t73.5 58.5t75.5 60.5t59 72.5t24 96.5 q0 68 -46.5 107.5t-123.5 39.5q-56 0 -94.5 -12.5t-66 -27t-47 -27t-36.5 -12.5q-39 0 -59 34zM259 148q0 34 13 64.5t35.5 52.5t52.5 34.5t66 12.5q35 0 65.5 -12.5t53 -34.5t35.5 -52.5t13 -64.5q0 -35 -13 -64.5t-35.5 -51.5t-53 -34t-65.5 -12q-36 0 -66 12t-52.5 34 t-35.5 51.5t-13 64.5z" />
<glyph unicode="@" horiz-adv-x="1732" d="M88 602q0 109 28.5 212.5t81 194.5t126.5 167t165.5 131t197.5 85.5t222 30.5q97 0 191 -22t177.5 -64.5t153.5 -104.5t121 -140.5t79 -173.5t28 -204q0 -110 -33 -205.5t-91 -167.5t-138.5 -113t-175.5 -41q-68 0 -123.5 31t-79.5 101q-60 -71 -127.5 -101t-145.5 -30 q-66 0 -114 22.5t-81 63t-49.5 96t-16.5 119.5q0 58 15 118.5t44.5 116t75 105t105.5 85.5t136.5 57t169.5 21q42 0 77 -3t65.5 -9t57.5 -15.5t55 -20.5l-99 -384q-14 -60 -15 -99.5t10.5 -62t32.5 -31.5t49 -9q40 0 75.5 27t62 74.5t42 112.5t15.5 142q0 130 -40 229.5 t-112 166.5t-173.5 101t-223.5 34q-89 0 -169.5 -22.5t-149 -64t-123.5 -100t-94 -130t-60 -154t-21 -172.5q0 -166 51 -292t140.5 -210t211.5 -126.5t264 -42.5q80 0 148.5 9t125 23t101.5 32.5t79 38.5q30 16 52 9.5t32 -33.5l39 -99q-105 -70 -248 -114t-329 -44 q-188 0 -347.5 59t-276 169t-182 267.5t-65.5 353.5zM701 497q0 -63 26 -96.5t75 -33.5q25 0 49.5 7.5t47 26.5t40 50t30.5 79l73 285q-14 2 -29 3t-30 1q-58 0 -109.5 -26t-90 -70.5t-60.5 -103t-22 -122.5z" />
<glyph unicode="A" horiz-adv-x="1437" d="M-18 0l580 1486h315l579 -1486h-238q-40 0 -65.5 19t-37.5 49l-100 283h-592l-100 -283q-10 -26 -36 -47t-65 -21h-240zM499 564h441l-161 455q-14 36 -30 84t-30 104q-14 -57 -30 -105.5t-31 -84.5z" />
<glyph unicode="B" horiz-adv-x="1358" d="M156 0v1486h527q150 0 255.5 -28t173 -80t98 -125.5t30.5 -165.5q0 -51 -15 -98t-46 -88.5t-80 -75t-117 -57.5q152 -36 224.5 -117t72.5 -210q0 -94 -36.5 -175t-106 -140t-171.5 -92.5t-234 -33.5h-575zM463 236h263q74 0 121.5 17.5t76 47.5t40 68.5t11.5 79.5 q0 45 -13.5 80.5t-43 60.5t-77 38.5t-117.5 13.5h-261v-406zM463 851h202q65 0 114.5 10.5t83.5 34.5t52 62t18 93t-15 94t-45.5 62.5t-77.5 34t-112 10.5h-220v-401z" />
<glyph unicode="C" horiz-adv-x="1349" d="M71 743q0 111 24 211t70 184t111 151.5t147 115t178.5 72.5t206.5 25q82 0 155 -14t136.5 -40t117.5 -62t97 -79l-104 -142q-9 -13 -23.5 -23t-38.5 -10q-25 0 -50 17t-61.5 38.5t-91 39t-138.5 17.5q-93 0 -171 -33.5t-134 -97.5t-86.5 -157.5t-30.5 -212.5 q0 -120 33.5 -213.5t91 -158t135 -97.5t165.5 -33q52 0 94.5 5t79 17t68.5 31.5t65 49.5q11 9 23.5 15.5t26.5 6.5q26 0 43 -19l122 -130q-90 -115 -223.5 -174t-317.5 -59q-167 0 -300.5 56.5t-226.5 158t-143 241t-50 303.5z" />
<glyph unicode="D" horiz-adv-x="1558" d="M156 0v1486h571q171 0 311.5 -55.5t240 -154t154.5 -235t55 -298.5q0 -163 -55 -299.5t-154.5 -234.5t-240 -153.5t-311.5 -55.5h-571zM465 241h262q104 0 186.5 34t140 99t88 158t30.5 211q0 117 -30.5 210.5t-88 158t-140 99t-186.5 34.5h-262v-1004z" />
<glyph unicode="E" horiz-adv-x="1175" d="M156 0v1486h946v-241h-637v-382h496v-232h-496v-390h637v-241h-946z" />
<glyph unicode="F" horiz-adv-x="1159" d="M156 0v1486h946v-241h-637v-410h534v-242h-534v-593h-309z" />
<glyph unicode="G" horiz-adv-x="1483" d="M69 743q0 167 54.5 306.5t156 240t245.5 156.5t322 56q92 0 172 -14.5t147.5 -41t124 -62t102.5 -78.5l-89 -138q-20 -33 -53 -40q-7 -2 -15 -2q-27 0 -57 19q-37 23 -72.5 40.5t-75.5 31t-87 20.5t-108 7q-103 0 -187.5 -36t-143.5 -101.5t-90.5 -157.5t-31.5 -206 q0 -123 35 -219.5t98.5 -163t152 -101.5t196.5 -35q74 0 132 15t113 41v249h-168q-30 0 -46.5 16t-16.5 41v171h510v-614q-114 -83 -242.5 -121t-272.5 -38q-183 0 -331.5 56.5t-254 158t-162.5 241t-57 303.5z" />
<glyph unicode="H" horiz-adv-x="1584" d="M156 0v1486h309v-631h654v631h309v-1486h-309v640h-654v-640h-309z" />
<glyph unicode="I" horiz-adv-x="620" d="M156 0v1486h309v-1486h-309z" />
<glyph unicode="J" horiz-adv-x="884" d="M22 11l8 90l8 90q3 25 19.5 40t46.5 15q17 0 44.5 -6.5t67.5 -6.5q55 0 96 15.5t69 50.5t41.5 90.5t13.5 135.5v961h307v-954q0 -125 -30.5 -225.5t-92.5 -173t-155 -111t-217 -38.5q-56 0 -111 6.5t-115 20.5z" />
<glyph unicode="K" horiz-adv-x="1423" d="M156 0v1486h307v-614h60q76 0 110 48l376 502q27 36 58.5 50t77.5 14h266l-473 -609q-46 -59 -95 -85q36 -14 64.5 -37.5t55.5 -61.5l485 -693h-273q-27 0 -46 4t-33.5 11.5t-24.5 18t-19 24.5l-382 535q-19 28 -46 39.5t-75 11.5h-86v-644h-307z" />
<glyph unicode="L" horiz-adv-x="1069" d="M156 0v1486h307v-1236h574v-250h-881z" />
<glyph unicode="M" horiz-adv-x="1948" d="M156 0v1486h233q19 0 34.5 -1t27.5 -5.5t21.5 -14.5t19.5 -27l415 -793q19 -36 36.5 -73.5t32.5 -77.5q15 41 32 79.5t36 74.5l413 790q9 17 19.5 27t22 14.5t26.5 5.5t36 1h233v-1486h-271v912q0 29 1.5 62t5.5 66l-425 -806q-34 -66 -106 -66h-2h-43q-36 0 -63.5 17 t-43.5 49l-427 809q3 -36 5 -69t2 -62v-912h-271z" />
<glyph unicode="N" horiz-adv-x="1584" d="M156 0v1486h161q19 0 33.5 -1.5t25.5 -7.5t21.5 -15t22.5 -24l745 -946q-4 39 -6 75t-2 69v850h271v-1486h-158q-36 0 -60.5 12t-48.5 40l-740 942q3 -36 4.5 -70.5t1.5 -64.5v-859h-271z" />
<glyph unicode="O" horiz-adv-x="1660" d="M69 743q0 163 54.5 302t155 240t240.5 159t311 58t311.5 -58t240.5 -159.5t154.5 -240.5t54.5 -301q0 -163 -54.5 -302t-154.5 -240.5t-240.5 -159t-311.5 -57.5t-311 57.5t-240.5 159t-155 241t-54.5 301.5zM383 743q0 -118 30.5 -210.5t88.5 -157t141 -98.5t187 -34 t187 34t140.5 98.5t88.5 157t31 210.5q0 117 -31 210t-88.5 158t-140 99t-187.5 34q-104 0 -187 -34t-141 -99t-88.5 -158t-30.5 -210z" />
<glyph unicode="P" horiz-adv-x="1284" d="M156 0v1486h501q153 0 264 -36t183 -100t106 -152t34 -191q0 -110 -36 -201t-108.5 -156.5t-183 -102t-259.5 -36.5h-194v-511h-307zM463 746h194q144 0 211.5 70t67.5 191q0 55 -17 100.5t-51 78t-86.5 49.5t-124.5 17h-194v-506z" />
<glyph unicode="Q" horiz-adv-x="1661" d="M70 743q0 163 54.5 302t155 240t240.5 159t311 58t311.5 -58t240.5 -159.5t154.5 -240.5t54.5 -301q0 -98 -20 -187.5t-57.5 -168t-93 -145t-125.5 -116.5l376 -411h-253q-55 0 -98.5 14.5t-80.5 53.5l-202 224q-95 -23 -198 -23h-9q-171 0 -311 57.5t-240.5 159 t-155 241t-54.5 301.5zM384 743q0 -118 30.5 -210.5t88.5 -157t141 -98.5t187 -34t187 34t141 98.5t88.5 157.5t30.5 210t-30.5 210t-88.5 158t-140.5 99t-187.5 34q-104 0 -187 -34t-141 -99t-88.5 -158t-30.5 -210z" />
<glyph unicode="R" horiz-adv-x="1330" d="M156 0v1486h467q156 0 266 -32.5t181 -89.5t103.5 -136.5t32.5 -174.5q0 -74 -21 -140t-61 -120.5t-98 -96.5t-133 -67q30 -16 55.5 -39.5t45.5 -54.5l346 -535h-277q-78 0 -113 59l-282 456q-17 27 -38.5 39t-62.5 12h-104v-566h-307zM463 782h158q75 0 129 19 t88.5 52.5t51 78.5t16.5 98q0 105 -70 163.5t-213 58.5h-160v-470z" />
<glyph unicode="S" horiz-adv-x="1128" d="M39 179l90 146q11 16 29.5 26.5t39.5 10.5q28 0 58.5 -20t70.5 -45t92.5 -45.5t126.5 -20.5q108 0 166.5 49.5t58.5 146.5q0 56 -29 91t-76.5 58.5t-107.5 40.5t-123.5 37.5t-124 49t-107.5 75.5t-76.5 117t-29.5 173q0 83 33 161t96.5 138t156 97t212.5 37 q134 0 248 -41.5t193 -114.5l-75 -145q-14 -24 -29.5 -34.5t-38.5 -10.5t-49 16t-60.5 34.5t-80 34t-105.5 15.5q-106 0 -159.5 -47.5t-53.5 -124.5q0 -49 29 -81t77 -55.5t108 -42t123.5 -40.5t124 -52t108 -75t77 -110t29.5 -158q0 -101 -35.5 -190t-102 -155t-164 -103.5 t-221.5 -37.5q-71 0 -141 14t-135 39.5t-122.5 61.5t-100.5 80z" />
<glyph unicode="T" horiz-adv-x="1236" d="M31 1238v248h1176v-248h-434v-1238h-308v1238h-434z" />
<glyph unicode="U" horiz-adv-x="1526" d="M137 601v885h307v-885q0 -82 21.5 -147.5t62.5 -111.5t100.5 -71t135.5 -25q75 0 134 25t100 71t62.5 111.5t21.5 147.5v885h308v-885q0 -135 -43.5 -248t-124.5 -195t-197 -128t-261 -46t-261.5 46t-197.5 128t-124.5 195t-43.5 248z" />
<glyph unicode="V" horiz-adv-x="1437" d="M-18 1486h247q40 0 65 -19t38 -49l321 -856q18 -48 36.5 -105t33.5 -119q13 62 29 119t34 105l320 856q10 26 36 47t65 21h249l-598 -1486h-278z" />
<glyph unicode="W" horiz-adv-x="2165" d="M11 1486h258q40 0 67.5 -18.5t35.5 -49.5l230 -837q8 -35 17 -75.5t17 -85.5q9 46 19.5 86t22.5 75l268 837q8 26 35.5 47t66.5 21h90q40 0 65 -19t37 -49l267 -837q12 -33 22.5 -71.5t19.5 -81.5q8 43 16 81.5t16 71.5l230 837q7 27 35 47.5t67 20.5h241l-460 -1486 h-278l-304 972q-7 20 -14 44.5t-14 52.5q-6 -28 -13 -52.5t-14 -44.5l-307 -972h-279z" />
<glyph unicode="X" horiz-adv-x="1391" d="M-4 0l486 765l-468 721h308q31 0 45 -8.5t25 -26.5l320 -525q5 12 11 25t14 26l287 469q12 20 27 30t36 10h294l-472 -708l485 -778h-308q-31 0 -49.5 15.5t-29.5 35.5l-322 547q-5 -11 -9.5 -22t-10.5 -20l-306 -505q-13 -19 -31 -35t-45 -16h-287z" />
<glyph unicode="Y" horiz-adv-x="1347" d="M-19 1486h270q40 0 64 -19t38 -49l244 -468q25 -47 45 -88t35 -82q14 41 33 82.5t43 87.5l241 468q12 25 37 46.5t64 21.5h272l-540 -915v-571h-307v571z" />
<glyph unicode="Z" horiz-adv-x="1243" d="M36 0v120q0 22 7 42.5t20 38.5l736 1044h-711v241h1105v-113q0 -24 -7.5 -47.5t-22.5 -44.5l-733 -1040h742v-241h-1136z" />
<glyph unicode="[" horiz-adv-x="648" d="M162 -323v1912h438v-109q0 -29 -21 -50t-54 -21h-128v-1552h128q33 0 54 -21t21 -50v-109h-438z" />
<glyph unicode="\" horiz-adv-x="966" d="M56 1527h120q50 0 88 -25.5t55 -71.5l591 -1529h-119q-45 0 -87 26t-63 77z" />
<glyph unicode="]" horiz-adv-x="648" d="M49 -214q0 29 20.5 50t53.5 21h128v1552h-128q-33 0 -53.5 21t-20.5 50v109h437v-1912h-437v109z" />
<glyph unicode="^" d="M87 692l411 794h183l420 -794h-207q-26 0 -42.5 12.5t-27.5 32.5l-178 372q-17 36 -30.5 67t-23.5 63q-9 -32 -21.5 -63t-27.5 -67l-165 -372q-8 -19 -26.5 -32t-46.5 -13h-218z" />
<glyph unicode="_" horiz-adv-x="961" d="M77 -125h807v-180h-807v180z" />
<glyph unicode="`" horiz-adv-x="819" d="M59 1502h265q44 0 66 -14t38 -43l142 -250h-159q-32 0 -52 8.5t-41 30.5z" />
<glyph unicode="a" horiz-adv-x="1048" d="M43 272q0 58 29.5 116.5t102 106.5t192.5 79t302 35v55q0 99 -42 145.5t-121 46.5q-58 0 -97 -14t-68.5 -29.5t-55 -29.5t-59.5 -14q-30 0 -49.5 15t-33.5 35l-50 90q93 84 206 125.5t244 41.5q94 0 168 -30.5t126 -85.5t79.5 -130.5t27.5 -165.5v-664h-129 q-40 0 -61 11.5t-34 46.5l-23 68q-40 -35 -77 -61.5t-77 -44.5t-85.5 -27t-102.5 -9q-70 0 -127 18t-98.5 54.5t-64 91t-22.5 124.5zM313 287q0 -61 34.5 -87t95.5 -26q71 0 122.5 25t103.5 79v163q-103 -5 -172 -17.5t-109.5 -33t-57.5 -47t-17 -56.5z" />
<glyph unicode="b" horiz-adv-x="1169" d="M117 0v1527h282v-593q62 62 138 100t171 38q91 0 164 -36.5t125 -104t80 -163t28 -214.5q0 -128 -32.5 -233t-91.5 -179.5t-141.5 -115.5t-184.5 -41q-49 0 -88 9.5t-71.5 27t-60 41.5t-52.5 54l-11 -64q-7 -30 -23.5 -41.5t-44.5 -11.5h-187zM399 279q40 -46 86.5 -64.5 t97.5 -18.5q52 0 94.5 18.5t73 60t47 108.5t16.5 161q0 84 -13.5 142.5t-39.5 96.5t-64 55.5t-88 17.5q-67 0 -115.5 -29t-94.5 -86v-462z" />
<glyph unicode="c" horiz-adv-x="991" d="M61 529q0 116 34 215.5t99.5 172t162.5 114t224 41.5q121 0 212 -39t163 -112l-73 -101q-12 -16 -24.5 -25t-35.5 -9q-20 0 -39 12t-43.5 26t-58.5 25.5t-84 11.5q-63 0 -110 -23t-77.5 -66t-45.5 -104.5t-15 -138.5q0 -162 65 -247.5t178 -85.5q39 0 67 6.5t49 16.5 t36.5 22.5t29 22.5t27.5 17t32 7q33 0 51 -25l81 -102q-45 -52 -96.5 -86.5t-106 -54.5t-111 -27.5t-111.5 -7.5q-97 0 -184.5 36t-153 106t-104 171t-38.5 231z" />
<glyph unicode="d" horiz-adv-x="1169" d="M63 524q0 118 32.5 219.5t92 175t143.5 115.5t186 42q86 0 145 -25.5t107 -69.5v546h283v-1527h-174q-54 0 -70 49l-24 92q-32 -35 -67 -63.5t-76 -49.5t-88 -32t-102 -11q-85 0 -156 35.5t-122.5 105t-80.5 169.5t-29 229zM355 524q0 -88 13.5 -149.5t38.5 -99t61 -54.5 t80 -17q75 0 125.5 29.5t95.5 83.5v464q-40 46 -86.5 64.5t-98.5 18.5q-51 0 -93 -19.5t-72.5 -61t-47 -106t-16.5 -153.5z" />
<glyph unicode="e" horiz-adv-x="1097" d="M60 550q0 108 35.5 203t102 165.5t162 112t214.5 41.5q101 0 187 -32t148 -93.5t96 -151t34 -204.5q0 -32 -3 -52.5t-10 -32.5t-19.5 -17t-31.5 -5h-633q13 -148 84.5 -216.5t185.5 -68.5q58 0 101 13.5t75 30.5t58 31t52 14q33 0 51 -25l82 -102q-45 -52 -99 -86.5 t-112.5 -54.5t-118 -27.5t-114.5 -7.5q-111 0 -206.5 36t-167 107.5t-112.5 177t-41 244.5zM346 652h440q0 44 -11.5 84t-37 71t-64.5 48.5t-93 17.5q-101 0 -158.5 -57t-75.5 -164z" />
<glyph unicode="f" horiz-adv-x="741" d="M40 937v113h154v69q0 90 28 163.5t80 124t128 78t171 27.5q37 0 70.5 -4.5t66.5 -13.5l-6 -139q-2 -32 -27 -41.5t-56 -9.5q-43 0 -77 -9.5t-58 -31.5t-36 -59.5t-12 -92.5v-61h262v-197h-253v-853h-281v853l-82 14q-32 6 -52 22.5t-20 47.5z" />
<glyph unicode="g" horiz-adv-x="1088" d="M45 -90q0 71 43 120t119 79q-40 23 -64 59t-24 94q0 47 34 99.5t106 87.5q-81 43 -128 115t-47 168q0 79 32 142.5t89.5 108t135.5 68t169 23.5q135 0 239 -53h309v-103q0 -25 -14 -39.5t-46 -21.5l-86 -17q17 -50 18 -108q0 -79 -32.5 -142t-88.5 -107.5t-133 -68.5 t-166 -24q-56 0 -106 9q-43 -27 -43 -58q0 -30 29.5 -43t77 -19t108.5 -7.5t124 -6.5t124 -18t108.5 -42t76.5 -77t29 -124q0 -71 -34.5 -137.5t-100.5 -118.5t-162.5 -84t-219.5 -32q-122 0 -211.5 23t-148.5 61.5t-87.5 89t-28.5 104.5zM290 -53q0 -26 11.5 -47.5 t39.5 -37t73 -24t112 -8.5q70 0 118 9t78 26t42.5 40.5t12.5 51.5t-17.5 45t-46.5 27.5t-69 15t-85 7t-93 4.5t-94 7q-36 -22 -59 -50.5t-23 -65.5zM341 725q0 -69 41.5 -113.5t127.5 -44.5q87 0 128.5 44t41.5 114q0 73 -41.5 114.5t-128.5 41.5t-128 -41.5t-41 -114.5z " />
<glyph unicode="h" horiz-adv-x="1161" d="M117 0v1527h282v-575q30 27 62.5 49t68.5 38t77.5 24.5t89.5 8.5q86 0 152.5 -29.5t112.5 -83t69 -127t23 -161.5v-671h-282v671q0 88 -41 136.5t-121 48.5q-59 0 -111.5 -25.5t-99.5 -71.5v-759h-282z" />
<glyph unicode="i" horiz-adv-x="532" d="M91 1356q0 36 14 67t37.5 54.5t54.5 37t66 13.5q37 0 69.5 -13.5t56.5 -37t38 -54.5t14 -67t-14 -67t-38 -54.5t-56.5 -36.5t-69.5 -13q-35 0 -66 13t-54.5 36.5t-37.5 54.5t-14 67zM125 0v1056h283v-1056h-283z" />
<glyph unicode="j" horiz-adv-x="532" d="M-80 -348l10 149q2 20 15 28.5t51 8.5t62.5 7t39.5 23t21 43.5t6 68.5v1076h283v-1076q0 -72 -18.5 -135t-60 -110t-108.5 -75t-166 -28q-37 0 -69 5.5t-66 14.5zM91 1356q0 36 14 67t37.5 54.5t54.5 37t66 13.5q37 0 69.5 -13.5t56.5 -37t38 -54.5t14 -67t-14 -67 t-38 -54.5t-56.5 -36.5t-69.5 -13q-35 0 -66 13t-54.5 36.5t-37.5 54.5t-14 67z" />
<glyph unicode="k" horiz-adv-x="1117" d="M117 0v1527h282v-867h47q27 0 42.5 8t30.5 28l234 312q17 24 39 36t56 12h258l-303 -385q-36 -48 -83 -76q24 -16 41 -37.5t34 -48.5l326 -509h-254q-33 0 -56.5 11t-38.5 38l-237 388q-14 25 -30 32t-46 7h-60v-476h-282z" />
<glyph unicode="l" horiz-adv-x="520" d="M119 0v1527h282v-1527h-282z" />
<glyph unicode="m" horiz-adv-x="1727" d="M117 0v1056h174q53 0 70 -49l17 -69q28 29 57 53.5t62.5 42.5t73 28t85.5 10q97 0 161 -51.5t96 -137.5q26 50 63.5 86.5t82 59t94 33t99.5 10.5q89 0 158 -26.5t115.5 -78.5t71 -126.5t24.5 -169.5v-671h-283v671q0 185 -158 185q-36 0 -66.5 -11.5t-53.5 -35.5 t-35.5 -58.5t-12.5 -79.5v-671h-283v671q0 100 -39.5 142.5t-116.5 42.5q-49 0 -92.5 -23t-81.5 -64v-769h-282z" />
<glyph unicode="n" horiz-adv-x="1161" d="M117 0v1056h174q53 0 70 -49l18 -74q32 31 66 56.5t72.5 44t83 28.5t96.5 10q86 0 152.5 -29.5t112.5 -83t69 -127t23 -161.5v-671h-282v671q0 88 -41 136.5t-121 48.5q-59 0 -111.5 -25.5t-99.5 -71.5v-759h-282z" />
<glyph unicode="o" horiz-adv-x="1182" d="M61 529q0 126 38.5 226.5t108.5 170.5t167.5 108t217.5 38q119 0 216 -38t167 -108t107.5 -170.5t37.5 -226.5t-37.5 -226.5t-107.5 -171.5t-167 -108.5t-216 -37.5q-120 0 -217.5 37.5t-167.5 108.5t-108.5 171.5t-38.5 226.5zM352 528q0 -165 58.5 -248t182.5 -83 q121 0 179 83.5t58 247.5t-58 247.5t-179 83.5q-124 0 -182.5 -83.5t-58.5 -247.5z" />
<glyph unicode="p" horiz-adv-x="1169" d="M117 -341v1397h174q53 0 70 -49l22 -89q32 35 67.5 64t76.5 50t88.5 32.5t102.5 11.5q85 0 156 -36t122.5 -105.5t80 -169.5t28.5 -229q0 -119 -32.5 -220t-91.5 -174.5t-142.5 -115t-186.5 -41.5q-86 0 -146 25.5t-107 69.5v-421h-282zM399 279q40 -46 86.5 -64.5 t100.5 -18.5q51 0 93 19t72 60.5t46.5 106t16.5 154.5q0 88 -14 149t-39 99t-60.5 55t-79.5 17q-75 0 -126 -29t-96 -86v-462z" />
<glyph unicode="q" horiz-adv-x="1168" d="M63 524q0 118 32.5 219.5t92 175t143.5 115.5t186 42q48 0 88 -8.5t73.5 -24t61.5 -38t55 -50.5l13 52q15 49 70 49h174v-1397h-283v466q-61 -63 -138 -101.5t-180 -38.5q-85 0 -156 35.5t-122.5 105t-80.5 169.5t-29 229zM355 524q0 -88 13.5 -149.5t38.5 -99t61 -54.5 t80 -17q75 0 125.5 29.5t95.5 83.5v464q-40 46 -86.5 64.5t-98.5 18.5q-51 0 -93 -19.5t-72.5 -61t-47 -106t-16.5 -153.5z" />
<glyph unicode="r" horiz-adv-x="772" d="M117 0v1056h167q43 0 59 -15.5t24 -53.5l15 -105q50 90 115.5 142t153.5 52q72 0 117 -34l-18 -208q-5 -20 -16 -28t-29 -8q-16 0 -47 4.5t-58 4.5q-39 0 -69 -11.5t-53.5 -32t-42.5 -50t-36 -67.5v-646h-282z" />
<glyph unicode="s" horiz-adv-x="906" d="M42 114l66 105q11 18 28 28.5t43 10.5t47.5 -13t48 -27.5t63 -27.5t90.5 -13q41 0 70.5 9.5t48 25t27.5 35.5t9 42q0 35 -22 57t-57.5 38t-81.5 29.5t-93.5 30t-93.5 39t-81 56.5t-57 84.5t-22 121.5q0 66 25.5 125t76.5 104t127.5 71.5t176.5 26.5q113 0 205 -37 t152 -96l-65 -100q-11 -17 -23 -25t-32 -8t-42 10t-48.5 22t-61 22t-79.5 10q-69 0 -106.5 -28t-37.5 -74q0 -32 21.5 -53.5t57 -37t80.5 -29.5t92.5 -30.5t92.5 -38t80.5 -53.5t57 -78t21.5 -110q0 -77 -28 -142t-82.5 -112t-135.5 -73.5t-186 -26.5q-54 0 -107.5 9.5 t-101.5 27.5t-90 41.5t-73 51.5z" />
<glyph unicode="t" horiz-adv-x="773" d="M31 910v111l169 31l57 273q11 46 62 46h148v-321h272v-197h-272v-551q0 -44 21 -69.5t60 -25.5q20 0 34.5 4.5t24.5 10t19 10.5t18 5q12 0 20.5 -6t16.5 -19l85 -135q-58 -46 -132 -69.5t-153 -23.5q-72 0 -127 21t-93 59.5t-57.5 94t-19.5 125.5v569h-99 q-23 0 -38.5 14.5t-15.5 42.5z" />
<glyph unicode="u" horiz-adv-x="1160" d="M106 385v671h283v-671q0 -88 40.5 -136.5t120.5 -48.5q59 0 111.5 26t99.5 71v759h282v-1056h-174q-54 0 -69 49l-19 74q-32 -31 -65.5 -56.5t-72 -44t-83 -28.5t-96.5 -10q-86 0 -153 29.5t-112 83t-69 127t-24 161.5z" />
<glyph unicode="v" horiz-adv-x="1091" d="M3 1056h235q31 0 51 -14.5t28 -36.5l178 -523q17 -53 30.5 -103.5t23.5 -102.5q11 51 25 102t32 104l184 523q7 23 27.5 37t47.5 14h224l-415 -1056h-256z" />
<glyph unicode="w" horiz-adv-x="1657" d="M12 1056h226q31 0 51.5 -14.5t27.5 -36.5l130 -523q12 -50 21.5 -97t17.5 -93q12 46 26 93t30 97l154 525q7 22 27.5 36t48.5 14h125q30 0 51 -14.5t28 -35.5l149 -525q14 -49 27.5 -96.5t25.5 -95.5q8 47 17.5 94.5t23.5 97.5l136 523q7 23 27.5 37t48.5 14h215 l-332 -1056h-229q-17 0 -31 11.5t-21 37.5l-172 572q-10 33 -17.5 65t-14.5 65q-7 -33 -14.5 -66.5t-17.5 -66.5l-174 -569q-14 -49 -62 -49h-217z" />
<glyph unicode="x" horiz-adv-x="1089" d="M-1 0l358 545l-344 511h272q31 0 45 -8.5t25 -26.5l207 -335q5 17 13.5 35t19.5 36l159 259q25 40 63 40h259l-344 -499l359 -557h-272q-31 0 -49.5 15.5t-30.5 35.5l-208 347q-9 -35 -26 -61l-178 -286q-12 -19 -30 -35t-46 -16h-252z" />
<glyph unicode="y" horiz-adv-x="1089" d="M0 1056h248q34 0 52 -15.5t27 -35.5l200 -505q11 -30 20 -60t17 -60q18 60 42 121l187 504q8 23 29.5 37t46.5 14h227l-570 -1340q-13 -29 -32 -43t-60 -14h-210l200 426z" />
<glyph unicode="z" horiz-adv-x="947" d="M50 0v117q0 17 10 43.5t27 50.5l478 632h-485v213h808v-115q0 -30 -10.5 -58t-26.5 -45l-474 -625h497v-213h-824z" />
<glyph unicode="{" horiz-adv-x="630" d="M53 553v160q63 0 90 39t27 100q0 47 -6.5 93.5t-14.5 94t-14 95.5t-6 97q0 80 23 146t71.5 113t123 72.5t175.5 25.5h55v-124q0 -15 -7 -25t-16 -17.5t-19.5 -10.5t-17.5 -3h-5q-69 0 -103 -42.5t-34 -117.5q0 -56 5 -107t11.5 -99t12 -94t5.5 -93q0 -39 -11 -74.5 t-31.5 -64.5t-50.5 -51t-68 -33q38 -11 68 -33t50.5 -51.5t31.5 -64.5t11 -73q0 -47 -5.5 -94t-12 -94.5t-11.5 -98.5t-5 -108q0 -74 34 -116.5t103 -42.5h5q7 0 17.5 -3.5t19.5 -10.5t16 -17t7 -26v-123h-55q-101 0 -175.5 26t-123 72.5t-71.5 112.5t-23 146q0 49 6 96.5 t14 95t14.5 94.5t6.5 94q0 61 -26.5 100t-90.5 39z" />
<glyph unicode="|" horiz-adv-x="542" d="M162 -350v1939h219v-1939h-219z" />
<glyph unicode="}" horiz-adv-x="630" d="M54 -200q0 15 6.5 25.5t15.5 17.5t19 10.5t19 3.5h5q69 0 103 43t34 116q0 56 -5 107.5t-12 99t-12 94.5t-5 94q0 38 11 73t31.5 64.5t50.5 51.5t69 33q-39 11 -69 33t-50.5 51t-31.5 64.5t-11 74.5q0 47 5 93t12 94t12 99t5 107q0 75 -34.5 117.5t-102.5 42.5h-5 q-8 0 -18.5 3t-19.5 10.5t-15.5 17.5t-6.5 25v124h55q101 0 175 -25.5t123 -72.5t72 -113t23 -146q0 -49 -7 -97t-14.5 -95.5t-13.5 -94t-6 -93.5q0 -61 26.5 -100t90.5 -39v-160q-63 0 -90 -39t-27 -100q0 -47 6 -94t13.5 -94.5t14.5 -95t7 -96.5q0 -80 -23 -146 t-72 -112.5t-123 -72.5t-175 -26h-55v123z" />
<glyph unicode="~" d="M95 401q0 83 21.5 149.5t63 113.5t101.5 72.5t136 25.5q54 0 103 -13.5t92 -29.5t79.5 -29t67.5 -13q54 0 83 34t29 99h228q0 -83 -21.5 -149t-63 -113t-101.5 -72t-136 -25q-54 0 -103 13t-92 28.5t-79.5 29t-67.5 13.5q-54 0 -83 -34.5t-29 -99.5h-228z" />
<glyph unicode="&#xa2;" d="M113 528q0 112 34 208.5t100.5 169t164 116t224.5 48.5l14 153q3 26 23 47t53 21h103l-21 -233q80 -16 144.5 -50.5t119.5 -86.5l-73 -98q-11 -15 -22.5 -23t-33.5 -8q-14 0 -29.5 6t-33.5 14.5t-40.5 19t-51.5 18.5l-60 -655q49 6 82.5 19.5t58 28.5t44 26.5t41.5 11.5 q16 0 29.5 -6.5t22.5 -16.5l77 -99q-38 -43 -82 -74t-91.5 -51t-98.5 -31t-102 -15l-14 -142q-2 -26 -22.5 -47t-51.5 -21h-105l20 214q-90 15 -167.5 57.5t-134.5 110.5t-89 161t-32 207zM391 528q0 -124 42.5 -203.5t122.5 -112.5l60 646q-117 -18 -171 -103.5t-54 -226.5 z" />
<glyph unicode="&#xa3;" d="M33 609v89q0 38 23.5 65.5t70.5 27.5h99v232q0 96 29.5 183t88.5 153t149 104.5t212 38.5q82 0 148 -21t117.5 -57t90.5 -86t66 -107l-112 -72q-39 -20 -75.5 -17.5t-66.5 35.5q-19 22 -37 38.5t-37.5 28.5t-42.5 18.5t-51 6.5q-96 0 -142.5 -64t-46.5 -181v-233h405 v-110q0 -13 -6 -26t-16.5 -23t-25 -16.5t-31.5 -6.5h-326v-181q0 -65 -24 -116.5t-66 -95.5q41 8 82 14t84 6h561v-117q0 -20 -8.5 -42t-24.5 -38.5t-38 -27.5t-50 -11h-980v173q34 7 66 21.5t56 36t38 52t14 70.5v256h-193z" />
<glyph unicode="&#xa5;" d="M0 1486h236q39 0 64.5 -18.5t37.5 -49.5l200 -470q20 -49 34.5 -91.5t24.5 -83.5q8 41 21.5 83.5t33.5 91.5l198 470q11 26 36.5 47t64.5 21h237l-405 -836h270v-152h-318v-96h318v-152h-318v-250h-282v250h-318v152h318v96h-318v152h269z" />
<glyph unicode="&#xa8;" horiz-adv-x="819" d="M45 1325q0 31 12.5 58.5t33 48.5t47.5 33t57 12q32 0 60 -12t49 -33t33 -48.5t12 -58.5t-12 -57.5t-33 -46.5t-49.5 -31t-59.5 -11q-30 0 -57 11t-47.5 31t-33 46.5t-12.5 57.5zM470 1325q0 31 12 58.5t32.5 48.5t48 33t58.5 12q32 0 60 -12t48.5 -33t32.5 -48.5 t12 -58.5t-12 -57.5t-32.5 -46.5t-49 -31t-59.5 -11t-58.5 11t-48 31t-32.5 46.5t-12 57.5z" />
<glyph unicode="&#xa9;" horiz-adv-x="1681" d="M82 743q0 104 27 201.5t76 181.5t119 154t154 119t180.5 76t201.5 27q104 0 201.5 -27t182 -76t153.5 -119t118.5 -154t76.5 -181t27 -202q0 -104 -27 -201t-76.5 -180.5t-118.5 -153.5t-153.5 -119t-182 -76t-201.5 -27t-201 27t-181 76t-154 119t-119 153.5t-76 180.5 t-27 201zM234 743q0 -132 47 -246t128 -198.5t192 -133t239 -48.5t239.5 48.5t194 133t130 198.5t47.5 246q0 88 -21.5 169t-61 151.5t-94.5 127.5t-123.5 98t-147 63t-163.5 22q-128 0 -239 -49t-192 -134t-128 -200.5t-47 -247.5zM391 746q0 104 36.5 191.5t100 151 t149.5 99t185 35.5q116 0 199 -39.5t137 -100.5l-74 -101q-7 -8 -18.5 -17.5t-29.5 -9.5q-19 0 -34 10t-35.5 21.5t-50.5 21.5t-79 10q-57 0 -101 -19t-74 -54.5t-45.5 -85.5t-15.5 -113q0 -67 16 -116.5t44.5 -84.5t68 -52.5t85.5 -17.5q49 0 79.5 9t51.5 19.5t36.5 21 t37.5 14.5q11 0 21 -6t18 -14l93 -97q-56 -75 -145 -114t-206 -39q-103 0 -186.5 37t-141.5 101.5t-90 151.5t-32 187z" />
<glyph unicode="&#xab;" horiz-adv-x="955" d="M88 536v35l265 409l92 -42q36 -17 42 -46t-12 -62l-134 -231q-15 -27 -35 -45q19 -18 35 -45l134 -233q17 -33 11.5 -61.5t-41.5 -44.5l-92 -43zM439 536v35l265 409l92 -42q36 -17 42 -46t-12 -62l-134 -231q-15 -27 -35 -45q19 -18 35 -45l134 -233q17 -33 11.5 -61.5 t-41.5 -44.5l-92 -43z" />
<glyph unicode="&#xad;" horiz-adv-x="764" d="M112 505v231h540v-231h-540z" />
<glyph unicode="&#xae;" horiz-adv-x="1681" d="M82 743q0 104 27 201.5t76 181.5t119 154t154 119t181 76t201 27t201.5 -27t182 -76t153.5 -119t118.5 -154t76.5 -181t27 -202q0 -104 -27 -201t-76.5 -180.5t-118.5 -153.5t-153.5 -119t-182 -76t-201.5 -27t-201 27t-181 76t-154 119t-119 153.5t-76 180.5t-27 201z M234 743q0 -132 47 -246t128 -198.5t192 -133t239 -48.5q124 0 231.5 44.5t189.5 124.5h-221q-50 0 -70 36l-124 255q-10 15 -23 22.5t-39 7.5h-45v-321h-244v920h343q198 0 289 -69.5t91 -199.5q0 -89 -45 -157.5t-140 -101.5q27 -14 44.5 -36t32.5 -52l160 -295 q85 85 133 199.5t48 248.5q0 88 -21.5 169t-61 151.5t-94.5 127.5t-123.5 98t-147 63t-163.5 22q-128 0 -239 -49t-192 -134t-128 -200t-47 -248zM739 778h79q51 0 82.5 8.5t48.5 24.5t22.5 39.5t5.5 54.5q0 30 -5 52t-20 37t-42.5 22.5t-71.5 7.5h-99v-246z" />
<glyph unicode="&#xb4;" horiz-adv-x="819" d="M266 1195l144 250q15 29 37 43t67 14h273l-259 -268q-20 -22 -40 -30.5t-52 -8.5h-170z" />
<glyph unicode="&#xb8;" horiz-adv-x="819" d="M229 -345l26 87q6 25 32 25q14 0 30.5 -6t42.5 -6q31 0 45.5 11.5t14.5 26.5q0 26 -34.5 37.5t-110.5 23.5l64 186h158l-27 -97q48 -11 81 -27t53 -35.5t28.5 -43t8.5 -49.5q0 -36 -19 -64t-53 -47.5t-82.5 -30.5t-106.5 -11q-42 0 -78.5 5t-72.5 15z" />
<glyph unicode="&#xbb;" horiz-adv-x="955" d="M116.5 215q-5.5 29 12.5 61l133 233q15 27 35 45q-19 18 -35 45l-133 231q-18 33 -12.5 62t41.5 46l93 42l265 -409v-35l-265 -409l-93 43q-36 16 -41.5 45zM467.5 215q-5.5 29 12.5 61l133 233q15 27 35 45q-19 18 -35 45l-133 231q-18 33 -12.5 62t41.5 46l93 42 l265 -409v-35l-265 -409l-93 43q-36 16 -41.5 45z" />
<glyph unicode="&#x2c6;" horiz-adv-x="819" d="M40 1196l238 290h264l237 -290h-188q-16 0 -31.5 5.5t-32.5 21.5l-90 97q-5 5 -11 11.5t-11 15.5q-12 -15 -24 -27l-92 -97q-29 -27 -63 -27h-196z" />
<glyph unicode="&#x2da;" horiz-adv-x="819" d="M172 1361q0 49 19.5 89.5t51.5 68.5t74.5 44t90.5 16t92 -16t77 -44t52.5 -68.5t19.5 -89.5q0 -48 -19.5 -87t-52.5 -66.5t-77 -43t-92 -15.5q-47 0 -90 15.5t-75 43t-51.5 66.5t-19.5 87zM324 1361q0 -39 22.5 -63t65.5 -24q39 0 62.5 24t23.5 63q0 41 -23.5 65 t-62.5 24q-43 0 -65.5 -24t-22.5 -65z" />
<glyph unicode="&#x2dc;" horiz-adv-x="819" d="M72 1219q0 60 16.5 109t47 84t71 54t87.5 19q38 0 70.5 -12.5t60.5 -27.5t51 -27.5t42 -12.5q28 0 44.5 15t16.5 58h172q0 -60 -17 -109.5t-47 -84t-71 -53.5t-88 -19q-37 0 -69 13t-60 28t-51.5 27.5t-42.5 12.5q-28 0 -43.5 -15.5t-15.5 -58.5h-174z" />
<glyph unicode="&#x400;" horiz-adv-x="1175" d="M156 0v1486h946v-241h-637v-382h496v-232h-496v-390h637v-241h-946zM188 1909h295q22 0 37.5 -1t28.5 -6t24.5 -13.5t23.5 -23.5l218 -278h-205q-16 0 -28.5 0.5t-22.5 3t-20 8.5t-21 15z" />
<glyph unicode="&#x401;" horiz-adv-x="1175" d="M156 0v1486h946v-241h-637v-382h496v-232h-496v-390h637v-241h-946zM269 1707q0 30 11.5 57t31.5 47t45.5 31.5t54.5 11.5q31 0 58.5 -11.5t48.5 -31.5t33 -47t12 -57t-12 -56t-33 -45t-48.5 -30t-58.5 -11q-29 0 -54.5 11t-45.5 30t-31.5 45t-11.5 56zM728 1707 q0 30 11.5 57t31.5 47t46.5 31.5t57.5 11.5t57.5 -11.5t46.5 -31.5t31.5 -47t11.5 -57t-11.5 -56t-31.5 -45t-46.5 -30t-57.5 -11t-57.5 11t-46.5 30t-31.5 45t-11.5 56z" />
<glyph unicode="&#x402;" horiz-adv-x="1550" d="M29 1246v240h1103v-240h-414v-365h262q148 0 253.5 -33t171.5 -89.5t97 -130.5t31 -158q0 -106 -37.5 -193t-108 -148t-173.5 -95t-235 -34h-84v236h84q74 0 122 16t76 44.5t40 65t12 77.5q0 46 -12 84t-40 65t-76 41.5t-121 14.5h-262v-644h-307v1246h-382z" />
<glyph unicode="&#x403;" horiz-adv-x="1112" d="M156 0v1486h925v-233h-616v-1253h-309zM450 1587l205 278q11 15 21.5 23.5t23.5 13.5t29.5 6t37.5 1h313l-331 -293q-11 -9 -21.5 -15t-21 -9t-23.5 -4t-28 -1h-205z" />
<glyph unicode="&#x404;" horiz-adv-x="1361" d="M71 743q0 111 24 211t70 184t111 151.5t147 115t178.5 72.5t206.5 25q82 0 155 -14t136.5 -40t117.5 -62t97 -79l-104 -142q-9 -13 -23.5 -23t-38.5 -10q-25 0 -50 17t-61.5 38.5t-91 39t-138.5 17.5q-81 0 -150 -25t-122.5 -73.5t-89.5 -119.5t-51 -161h660v-224h-662 q13 -96 51 -171t93.5 -125.5t125 -77t148.5 -26.5q52 0 94.5 5t79 17t68.5 31.5t65 49.5q11 9 23.5 15.5t26.5 6.5q26 0 43 -19l122 -130q-90 -115 -223.5 -174t-317.5 -59q-167 0 -300.5 56.5t-226.5 158t-143 241t-50 303.5z" />
<glyph unicode="&#x405;" horiz-adv-x="1128" d="M39 179l90 146q11 16 29.5 26.5t39.5 10.5q28 0 58.5 -20t70.5 -45t92.5 -45.5t126.5 -20.5q108 0 166.5 49.5t58.5 146.5q0 56 -29 91t-76.5 58.5t-107.5 40.5t-123.5 37.5t-124 49t-107.5 75.5t-76.5 117t-29.5 173q0 83 33 161t96.5 138t156 97t212.5 37 q134 0 248 -41.5t193 -114.5l-75 -145q-14 -24 -29.5 -34.5t-38.5 -10.5t-49 16t-60.5 34.5t-80 34t-105.5 15.5q-106 0 -159.5 -47.5t-53.5 -124.5q0 -49 29 -81t77 -55.5t108 -42t123.5 -40.5t124 -52t108 -75t77 -110t29.5 -158q0 -101 -35.5 -190t-102 -155t-164 -103.5 t-221.5 -37.5q-71 0 -141 14t-135 39.5t-122.5 61.5t-100.5 80z" />
<glyph unicode="&#x406;" horiz-adv-x="620" d="M156 0v1486h309v-1486h-309z" />
<glyph unicode="&#x407;" horiz-adv-x="620" d="M-62 1707q0 30 11.5 57t31.5 47t45.5 31.5t54.5 11.5q31 0 58.5 -11.5t48.5 -31.5t33 -47t12 -57t-12 -56t-33 -45t-48.5 -30t-58.5 -11q-29 0 -54.5 11t-45.5 30t-31.5 45t-11.5 56zM156 0v1486h309v-1486h-309zM397 1707q0 30 11.5 57t31.5 47t46.5 31.5t57.5 11.5 t57.5 -11.5t46.5 -31.5t31.5 -47t11.5 -57t-11.5 -56t-31.5 -45t-46.5 -30t-57.5 -11t-57.5 11t-46.5 30t-31.5 45t-11.5 56z" />
<glyph unicode="&#x408;" horiz-adv-x="884" d="M22 11l8 90l8 90q3 25 19.5 40t46.5 15q17 0 44.5 -6.5t67.5 -6.5q55 0 96 15.5t69 50.5t41.5 90.5t13.5 135.5v961h307v-954q0 -125 -30.5 -225.5t-92.5 -173t-155 -111t-217 -38.5q-56 0 -111 6.5t-115 20.5z" />
<glyph unicode="&#x409;" horiz-adv-x="2194" d="M-3 41v189h82q33 0 68 11t69.5 51.5t66.5 120.5t58.5 219.5t45.5 348t27 505.5h969v-605h223q150 0 254.5 -33t171 -89.5t97.5 -130.5t31 -158q0 -106 -37.5 -193t-108 -148t-173.5 -95t-235 -34h-532v1253h-371q-15 -276 -41.5 -478t-64 -342.5t-85 -228t-104.5 -136.5 t-122 -66t-136 -17q-81 0 -117 14t-36 42zM1383 236h223q74 0 122 16t76 44.5t39.5 65t11.5 77.5q0 46 -11.5 84t-39.5 65t-76.5 41.5t-121.5 14.5h-223v-408z" />
<glyph unicode="&#x40a;" horiz-adv-x="2240" d="M156 0v1486h309v-631h654v631h309v-605h224q148 0 253.5 -33t171.5 -89.5t97 -130.5t31 -158q0 -106 -37.5 -193t-108 -148t-173.5 -95t-235 -34h-532v640h-654v-640h-309zM1428 236h223q74 0 122 16t76 44.5t40 65t12 77.5q0 46 -11.5 84t-40 65t-76.5 41.5t-121 14.5 h-224v-408z" />
<glyph unicode="&#x40b;" horiz-adv-x="1560" d="M29 1246v240h1103v-240h-414v-374q176 42 320.5 49.5t246 -37t157.5 -148t56 -281.5v-456h-310v457q0 79 -15.5 134t-64.5 82t-142 24.5t-248 -39.5v-657h-307v1246h-382z" />
<glyph unicode="&#x40c;" horiz-adv-x="1446" d="M156 0v1486h307v-614h134q40 0 69.5 14.5t55.5 53.5l300 465q22 36 52.5 58.5t73.5 22.5h263l-385 -591q-26 -40 -60.5 -66t-76.5 -42q66 -17 110.5 -56.5t84.5 -109.5l364 -621h-281q-42 0 -70.5 22t-53.5 65l-283 483q-12 22 -26 36.5t-30 23t-36 11.5t-44 3h-161v-644 h-307zM577 1587l205 278q11 15 21.5 23.5t23.5 13.5t29.5 6t37.5 1h313l-331 -293q-11 -9 -21.5 -15t-21 -9t-23.5 -4t-28 -1h-205z" />
<glyph unicode="&#x40d;" horiz-adv-x="1584" d="M156 0v1486h309v-886q0 -55 -3 -116t-12 -129q23 60 48 112.5t49 91.5l515 834q10 16 24.5 33t31.5 30t37 21.5t42 8.5h231v-1486h-309v886q0 55 3 116t13 128q-23 -60 -48.5 -112t-49.5 -91l-515 -833q-10 -17 -24.5 -33.5t-31 -30.5t-36.5 -22t-43 -8h-231zM351 1909 h295q22 0 37.5 -1t28.5 -6t24.5 -13.5t23.5 -23.5l218 -278h-205q-16 0 -28.5 0.5t-22.5 3t-20 8.5t-21 15z" />
<glyph unicode="&#x40e;" horiz-adv-x="1336" d="M-24 1486h289q40 0 63.5 -19t39.5 -49l258 -497q26 -47 45.5 -94.5t35.5 -95.5q28 96 73 190l228 497q12 25 37 46.5t64 21.5h255l-599 -1275q-33 -69 -71 -113t-81.5 -69t-92.5 -34.5t-105 -9.5q-81 0 -117 14t-36 42v189h83q20 0 43.5 4t46.5 15.5t44.5 33t39.5 58.5 l53 105zM351 1784q0 28 14 52.5t44 24.5h167q0 -46 5.5 -75.5t19.5 -47t38 -24t61 -6.5t61 6.5t37.5 24t19.5 47t6 75.5h166q30 0 44 -25t14 -52q0 -53 -25 -93t-71.5 -67.5t-110.5 -40.5t-141 -13q-78 0 -142 13t-110 40.5t-71.5 67.5t-25.5 93z" />
<glyph unicode="&#x40f;" horiz-adv-x="1534" d="M156 0v1486h309v-1254h605v1254h309v-1486h-471v-264q0 -39 -27 -62.5t-70 -23.5h-185v350h-470z" />
<glyph unicode="&#x410;" horiz-adv-x="1430" d="M-22 0l580 1486h314l580 -1486h-238q-40 0 -65 19t-37 49l-100 283h-593l-101 -283q-9 -26 -35 -47t-65 -21h-240zM495 564h442l-161 455q-14 36 -30 84.5t-31 104.5q-14 -57 -30 -106t-31 -85z" />
<glyph unicode="&#x411;" horiz-adv-x="1297" d="M156 0v1486h1028v-234h-721v-371h223q148 0 254 -33t172 -89.5t96.5 -130.5t30.5 -158q0 -106 -37.5 -193t-108 -148t-173.5 -95t-234 -34h-530zM463 236h223q73 0 121 16t76.5 44.5t40.5 65t12 77.5q0 46 -12 84t-40 65t-76 41.5t-122 14.5h-223v-408z" />
<glyph unicode="&#x412;" horiz-adv-x="1358" d="M156 0v1486h527q150 0 255.5 -28t173 -80t98 -125.5t30.5 -165.5q0 -51 -15 -98t-46 -88.5t-80 -75t-117 -57.5q152 -36 224.5 -117t72.5 -210q0 -94 -36.5 -175t-106 -140t-171.5 -92.5t-234 -33.5h-575zM463 236h263q74 0 121.5 17.5t76 47.5t40 68.5t11.5 79.5 q0 45 -13.5 80.5t-43 60.5t-77 38.5t-117.5 13.5h-261v-406zM463 851h202q65 0 114.5 10.5t83.5 34.5t52 62t18 93t-15 94t-45.5 62.5t-77.5 34t-112 10.5h-220v-401z" />
<glyph unicode="&#x413;" horiz-adv-x="1112" d="M156 0v1486h925v-233h-616v-1253h-309z" />
<glyph unicode="&#x414;" horiz-adv-x="1674" d="M14 232h165q27 15 54.5 48.5t53.5 94.5t49 154t42 226.5t33 313.5t20 417h970v-1254h226v-496q0 -39 -27 -62.5t-70 -23.5h-184v350h-1049v-264q0 -39 -27 -62.5t-70 -23.5h-186v582zM512 232h580v1021h-370q-12 -207 -32.5 -368.5t-47.5 -285.5t-59.5 -214t-70.5 -153z " />
<glyph unicode="&#x415;" horiz-adv-x="1175" d="M156 0v1486h946v-241h-637v-382h496v-232h-496v-390h637v-241h-946z" />
<glyph unicode="&#x416;" horiz-adv-x="2211" d="M-4 0l365 625q39 66 83.5 104.5t101.5 58.5q-46 18 -79.5 50.5t-64.5 81.5l-362 566h244q46 0 85.5 -22.5t62.5 -62.5l276 -455q26 -45 57.5 -59.5t71.5 -14.5h124v614h289v-614h124q41 0 72.5 14.5t57.5 59.5l276 455q24 40 63 62.5t85 22.5h244l-363 -566 q-31 -48 -64 -80.5t-79 -51.5q56 -20 100.5 -59t82.5 -104l367 -625h-206q-67 0 -114.5 28t-74.5 76l-275 457q-27 46 -61 64.5t-83 18.5h-152v-644h-289v644h-151q-50 0 -84 -18.5t-60 -64.5l-275 -457q-29 -48 -76 -76t-114 -28h-205z" />
<glyph unicode="&#x417;" horiz-adv-x="1196" d="M15 181l91 146q11 16 29.5 27t39.5 11q29 0 61.5 -20.5t76.5 -45.5t104.5 -45.5t144.5 -20.5q127 0 197.5 53.5t70.5 171.5q0 47 -19.5 84.5t-55.5 63t-87.5 38.5t-112.5 12h-213l-1 244h190q128 0 196 47t68 137q0 79 -63 125t-186 46q-71 0 -123 -15t-90.5 -34 t-66.5 -34.5t-51 -15.5q-24 0 -39 11t-30 33l-75 145q87 74 208.5 115.5t268.5 41.5q123 0 221.5 -28.5t168.5 -80.5t107 -124t37 -159q0 -102 -45.5 -187t-140.5 -140q49 -25 90.5 -57.5t70.5 -72.5t45.5 -86t16.5 -97q0 -101 -38 -190t-110 -154t-177.5 -102.5 t-240.5 -37.5q-77 0 -153 14t-146 40t-131 61.5t-108 79.5z" />
<glyph unicode="&#x418;" horiz-adv-x="1584" d="M156 0v1486h309v-886q0 -55 -3 -116t-12 -129q23 60 48 112.5t49 91.5l515 834q10 16 24.5 33t31.5 30t37 21.5t42 8.5h231v-1486h-309v886q0 55 3 116t13 128q-23 -60 -48.5 -112t-49.5 -91l-515 -833q-10 -17 -24.5 -33.5t-31 -30.5t-36.5 -22t-43 -8h-231z" />
<glyph unicode="&#x419;" horiz-adv-x="1584" d="M156 0v1486h309v-886q0 -55 -3 -116t-12 -129q23 60 48 112.5t49 91.5l515 834q10 16 24.5 33t31.5 30t37 21.5t42 8.5h231v-1486h-309v886q0 55 3 116t13 128q-23 -60 -48.5 -112t-49.5 -91l-515 -833q-10 -17 -24.5 -33.5t-31 -30.5t-36.5 -22t-43 -8h-231zM459 1784 q0 28 14 52.5t44 24.5h167q0 -46 5.5 -75.5t19.5 -47t38 -24t61 -6.5t61 6.5t37.5 24t19.5 47t6 75.5h166q30 0 44 -25t14 -52q0 -53 -25 -93t-71.5 -67.5t-110.5 -40.5t-141 -13q-78 0 -142 13t-110 40.5t-71.5 67.5t-25.5 93z" />
<glyph unicode="&#x41a;" horiz-adv-x="1446" d="M156 0v1486h307v-614h134q40 0 69.5 14.5t55.5 53.5l300 465q22 36 52.5 58.5t73.5 22.5h263l-385 -591q-26 -40 -60.5 -66t-76.5 -42q66 -17 110.5 -56.5t84.5 -109.5l364 -621h-281q-42 0 -70.5 22t-53.5 65l-283 483q-12 22 -26 36.5t-30 23t-36 11.5t-44 3h-161v-644 h-307z" />
<glyph unicode="&#x41b;" horiz-adv-x="1539" d="M-3 41v189h82q33 0 68 11t69.5 51.5t66.5 120.5t58.5 219.5t45.5 348t27 505.5h969v-1486h-309v1253h-371q-15 -276 -41.5 -478t-64 -342.5t-85 -228t-104.5 -136.5t-122 -66t-136 -17q-81 0 -117 14t-36 42z" />
<glyph unicode="&#x41c;" horiz-adv-x="1948" d="M156 0v1486h233q19 0 34.5 -1t27.5 -5.5t21.5 -14.5t19.5 -27l415 -793q19 -36 36.5 -73.5t32.5 -77.5q15 41 32 79.5t36 74.5l413 790q9 17 19.5 27t22 14.5t26.5 5.5t36 1h233v-1486h-271v912q0 29 1.5 62t5.5 66l-425 -806q-35 -67 -108 -66h-43q-36 0 -63.5 17 t-43.5 49l-427 809q3 -36 5 -69t2 -62v-912h-271z" />
<glyph unicode="&#x41d;" horiz-adv-x="1584" d="M156 0v1486h309v-631h654v631h309v-1486h-309v640h-654v-640h-309z" />
<glyph unicode="&#x41e;" horiz-adv-x="1660" d="M69 743q0 163 54.5 302t155 240t240.5 159t311 58t311.5 -58t240.5 -159.5t154.5 -240.5t54.5 -301q0 -163 -54.5 -302t-154.5 -240.5t-240.5 -159t-311.5 -57.5t-311 57.5t-240.5 159t-155 241t-54.5 301.5zM383 743q0 -118 30.5 -210.5t88.5 -157t141 -98.5t187 -34 t187 34t140.5 98.5t88.5 157t31 210.5q0 117 -31 210t-88.5 158t-140 99t-187.5 34q-104 0 -187 -34t-141 -99t-88.5 -158t-30.5 -210z" />
<glyph unicode="&#x41f;" horiz-adv-x="1534" d="M156 0v1486h1223v-1486h-309v1253h-605v-1253h-309z" />
<glyph unicode="&#x420;" horiz-adv-x="1284" d="M156 0v1486h501q153 0 264 -36t183 -100t106 -152t34 -191q0 -110 -36 -201t-108.5 -156.5t-183 -102t-259.5 -36.5h-194v-511h-307zM463 746h194q144 0 211.5 70t67.5 191q0 55 -17 100.5t-51 78t-86.5 49.5t-124.5 17h-194v-506z" />
<glyph unicode="&#x421;" horiz-adv-x="1349" d="M71 743q0 111 24 211t70 184t111 151.5t147 115t178.5 72.5t206.5 25q82 0 155 -14t136.5 -40t117.5 -62t97 -79l-104 -142q-9 -13 -23.5 -23t-38.5 -10q-25 0 -50 17t-61.5 38.5t-91 39t-138.5 17.5q-93 0 -171 -33.5t-134 -97.5t-86.5 -157.5t-30.5 -212.5 q0 -120 33.5 -213.5t91 -158t135 -97.5t165.5 -33q52 0 94.5 5t79 17t68.5 31.5t65 49.5q11 9 23.5 15.5t26.5 6.5q26 0 43 -19l122 -130q-90 -115 -223.5 -174t-317.5 -59q-167 0 -300.5 56.5t-226.5 158t-143 241t-50 303.5z" />
<glyph unicode="&#x422;" horiz-adv-x="1236" d="M31 1238v248h1176v-248h-434v-1238h-308v1238h-434z" />
<glyph unicode="&#x423;" horiz-adv-x="1336" d="M-24 1486h289q40 0 63.5 -19t39.5 -49l258 -497q26 -47 45.5 -94.5t35.5 -95.5q28 96 73 190l228 497q12 25 37 46.5t64 21.5h255l-599 -1275q-33 -69 -71 -113t-81.5 -69t-92.5 -34.5t-105 -9.5q-81 0 -117 14t-36 42v189h83q20 0 43.5 4t46.5 15.5t44.5 33t39.5 58.5 l53 105z" />
<glyph unicode="&#x424;" horiz-adv-x="1666" d="M55 775q0 121 48 228t132 187.5t200.5 128.5t252.5 53v174h291v-174q136 -5 252 -53t200.5 -128.5t132 -187.5t47.5 -228q0 -122 -47.5 -229t-132 -187t-200.5 -129t-252 -54v-176h-291v176q-136 5 -252.5 54t-200.5 129t-132 187t-48 229zM362 775q0 -76 24 -142 t67 -115t102.5 -77.5t132.5 -30.5v730q-73 -2 -132.5 -31.5t-102.5 -78.5t-67 -114.5t-24 -140.5zM979 410q72 2 131.5 30.5t102.5 77.5t67 115t24 142q0 75 -24 140.5t-67 114.5t-102.5 78.5t-131.5 31.5v-730z" />
<glyph unicode="&#x425;" horiz-adv-x="1391" d="M-4 0l486 765l-468 721h308q31 0 45 -8.5t25 -26.5l320 -525q5 12 11 25t14 26l287 469q12 20 27 30t36 10h294l-472 -708l485 -778h-308q-31 0 -49.5 15.5t-29.5 35.5l-322 547q-5 -11 -9.5 -22t-10.5 -20l-306 -505q-13 -19 -31 -35t-45 -16h-287z" />
<glyph unicode="&#x426;" horiz-adv-x="1639" d="M156 0v1486h309v-1254h605v1254h309v-1254h207v-496q0 -39 -26.5 -62.5t-69.5 -23.5h-185v350h-1149z" />
<glyph unicode="&#x427;" horiz-adv-x="1396" d="M75 994v492h309v-493q0 -80 25 -135t87 -81.5t168 -23.5t268 41v692h309v-1486h-309v579q-121 -29 -231 -42.5t-205.5 -7t-173 35t-132.5 84.5t-85 140.5t-30 204.5z" />
<glyph unicode="&#x428;" horiz-adv-x="2229" d="M156 0v1486h309v-1254h494v1254h310v-1254h495v1254h310v-1486h-1918z" />
<glyph unicode="&#x429;" horiz-adv-x="2333" d="M156 0v1486h309v-1254h494v1254h310v-1254h495v1254h310v-1254h206v-496q0 -39 -26.5 -62.5t-69.5 -23.5h-185v350h-1843z" />
<glyph unicode="&#x42a;" horiz-adv-x="1565" d="M30 1245v241h724v-605h223q148 0 253.5 -33t171.5 -89.5t97 -130.5t31 -158q0 -106 -37.5 -193t-108 -148t-173.5 -95t-234 -34h-531v1245h-416zM754 236h223q73 0 121 16t76.5 44.5t40.5 65t12 77.5q0 46 -12 84t-40 65t-76 41.5t-122 14.5h-223v-408z" />
<glyph unicode="&#x42b;" horiz-adv-x="1898" d="M156 0v1486h307v-605h223q148 0 254 -33t172 -89.5t96.5 -130.5t30.5 -158q0 -106 -37.5 -193t-108 -148t-173.5 -95t-234 -34h-530zM463 236h223q73 0 121 16t76.5 44.5t40.5 65t12 77.5q0 46 -12 84t-40 65t-76 41.5t-122 14.5h-223v-408zM1434 0v1486h309v-1486h-309z " />
<glyph unicode="&#x42c;" horiz-adv-x="1274" d="M156 0v1486h307v-605h223q148 0 254 -33t172 -89.5t96.5 -130.5t30.5 -158q0 -106 -37.5 -193t-108 -148t-173.5 -95t-234 -34h-530zM463 236h223q73 0 121 16t76.5 44.5t40.5 65t12 77.5q0 46 -12 84t-40 65t-76 41.5t-122 14.5h-223v-408z" />
<glyph unicode="&#x42d;" horiz-adv-x="1360" d="M30 217l122 130q10 10 20.5 14.5t22.5 4.5q14 0 26.5 -6.5t24.5 -15.5q32 -30 64.5 -49.5t68.5 -31.5t78.5 -17t94.5 -5q78 0 148 26.5t125.5 77t93 125.5t51.5 171h-663v224h661q-14 90 -50.5 161t-90 119.5t-122.5 73.5t-149 25q-85 0 -139.5 -17.5t-91 -39t-61 -38.5 t-50.5 -17q-25 0 -38.5 10t-23.5 23l-104 142q86 87 213.5 141t292.5 54q109 0 206 -25t179 -72.5t147 -115t111 -151.5t70 -184t24 -211q0 -165 -50 -304t-143 -240.5t-226.5 -158t-300.5 -56.5q-184 0 -317.5 59t-223.5 174z" />
<glyph unicode="&#x42e;" horiz-adv-x="2203" d="M156 0v1486h309v-630h246q16 141 72.5 259.5t147.5 204.5t214.5 134t272.5 48q164 0 296 -58t225.5 -159t143 -240t49.5 -302t-49.5 -301.5t-143 -240.5t-225.5 -159t-296 -57q-150 0 -272 47.5t-212.5 132t-147.5 201.5t-74 258h-247v-624h-309zM1020 743 q0 -118 26.5 -212t78 -160t125 -102t168.5 -36t169.5 36t125.5 102t78 160.5t27 211.5t-27 211.5t-78 160.5t-125.5 101.5t-169.5 35.5t-168.5 -35.5t-125 -101.5t-78 -160.5t-26.5 -211.5z" />
<glyph unicode="&#x42f;" horiz-adv-x="1402" d="M-19 0l324 515q33 52 72 87.5t91 57.5q-80 23 -139.5 61t-97.5 87.5t-57 109.5t-19 128q0 95 37 176t108 139.5t174 91.5t235 33h538v-1486h-307v606h-132q-48 0 -89 -21t-78 -82l-238 -399q-29 -48 -75.5 -76t-114.5 -28h-232zM459 1048q0 -46 11 -84t40 -65.5t77 -42 t121 -14.5h232v408h-231q-74 0 -122 -16t-76.5 -44t-40 -64.5t-11.5 -77.5z" />
<glyph unicode="&#x430;" horiz-adv-x="1048" d="M43 272q0 58 29.5 116.5t102 106.5t192.5 79t302 35v55q0 99 -42 145.5t-121 46.5q-58 0 -97 -14t-68.5 -29.5t-55 -29.5t-59.5 -14q-30 0 -49.5 15t-33.5 35l-50 90q93 84 206 125.5t244 41.5q94 0 168 -30.5t126 -85.5t79.5 -130.5t27.5 -165.5v-664h-129 q-40 0 -61 11.5t-34 46.5l-23 68q-40 -35 -77 -61.5t-77 -44.5t-85.5 -27t-102.5 -9q-70 0 -127 18t-98.5 54.5t-64 91t-22.5 124.5zM313 287q0 -61 34.5 -87t95.5 -26q71 0 122.5 25t103.5 79v163q-103 -5 -172 -17.5t-109.5 -33t-57.5 -47t-17 -56.5z" />
<glyph unicode="&#x431;" horiz-adv-x="1214" d="M88 686q0 159 29 297t98 243t181 169.5t277 77.5l374 26l15 -143q5 -46 -13.5 -78t-65.5 -34l-287 -17q-93 -5 -159 -34.5t-109 -79t-64.5 -117.5t-25.5 -151q26 38 61.5 69t81 54t99.5 36t115 13q104 0 189 -37t144 -104.5t91 -163t32 -210.5q0 -120 -38.5 -216 t-108 -163t-167 -102.5t-215.5 -35.5t-216 37.5t-168.5 121t-110 217.5t-39.5 325zM381 509q0 -160 58.5 -241.5t182.5 -81.5q121 0 179.5 79.5t58.5 235.5t-58 235t-178 79q-243 0 -243 -306z" />
<glyph unicode="&#x432;" horiz-adv-x="1034" d="M117 0v1056h428q101 0 175 -19.5t122 -54t71 -81.5t23 -102q0 -34 -8.5 -71t-31 -69.5t-60 -60.5t-96.5 -43q50 -11 93 -31.5t73.5 -50.5t48 -70.5t17.5 -90.5q0 -82 -34.5 -141t-92 -97t-131.5 -56t-154 -18h-443zM385 189h173q71 0 112.5 36t41.5 98q0 26 -6.5 48.5 t-23 39.5t-46.5 26.5t-77 9.5h-174v-258zM385 618h152q68 0 109.5 38.5t41.5 100.5q0 23 -7 43.5t-25 37.5t-47 27.5t-72 10.5h-152v-258z" />
<glyph unicode="&#x433;" horiz-adv-x="867" d="M117 0v1056h728v-206h-446v-850h-282z" />
<glyph unicode="&#x434;" horiz-adv-x="1310" d="M16 198h28q35 0 68.5 8.5t64.5 37.5t58 86t49.5 152.5t39.5 235.5t27 338h734v-850h195v-474q0 -38 -22.5 -60t-57.5 -22h-177v350h-751v-272q0 -30 -18 -54t-59 -24h-179v548zM433 198h379v646h-230q-9 -123 -23.5 -223.5t-34 -180t-42.5 -139t-49 -103.5z" />
<glyph unicode="&#x435;" horiz-adv-x="1097" d="M60 550q0 108 35.5 203t102 165.5t162 112t214.5 41.5q101 0 187 -32t148 -93.5t96 -151t34 -204.5q0 -32 -3 -52.5t-10 -32.5t-19.5 -17t-31.5 -5h-633q13 -148 84.5 -216.5t185.5 -68.5q58 0 101 13.5t75 30.5t58 31t52 14q33 0 51 -25l82 -102q-45 -52 -99 -86.5 t-112.5 -54.5t-118 -27.5t-114.5 -7.5q-111 0 -206.5 36t-167 107.5t-112.5 177t-41 244.5zM346 652h440q0 44 -11.5 84t-37 71t-64.5 48.5t-93 17.5q-101 0 -158.5 -57t-75.5 -164z" />
<glyph unicode="&#x436;" horiz-adv-x="1698" d="M12 0l235 435q26 47 58.5 78t84.5 47q-38 14 -64.5 40t-52.5 68l-234 388h222q39 0 71.5 -20t50.5 -53l161 -292q17 -33 41 -47.5t67 -14.5h61v427h273v-427h55q43 0 70 14.5t44 47.5l161 292q17 33 50 53t72 20h222l-236 -388q-25 -42 -51 -68t-64 -40q52 -16 84.5 -47 t57.5 -78l236 -435h-195q-75 0 -114 22.5t-61 72.5l-136 280q-17 37 -48.5 54.5t-71.5 17.5h-75v-447h-273v447h-75q-40 0 -71 -17.5t-49 -54.5l-136 -280q-23 -50 -61.5 -72.5t-113.5 -22.5h-195z" />
<glyph unicode="&#x437;" horiz-adv-x="923" d="M29 161l82 102q18 25 51 25q26 0 47 -14.5t48.5 -32t64 -31.5t92.5 -14q88 0 131.5 38.5t43.5 98.5q0 58 -46 91t-152 33h-119v179h119q93 0 142 31.5t49 85.5q0 49 -43 78.5t-124 29.5q-52 0 -88 -10.5t-62 -23t-45 -23t-37 -10.5q-19 0 -33 7t-29 32l-64 106 q61 59 150.5 96t215.5 37q98 0 175.5 -23.5t130.5 -63t81 -91t28 -108.5q0 -30 -9 -61.5t-28.5 -61.5t-51 -56.5t-78.5 -45.5q83 -33 134.5 -95.5t51.5 -156.5q0 -78 -36.5 -138t-95.5 -101.5t-135.5 -63t-156.5 -21.5q-44 0 -95.5 7.5t-105 27.5t-106 54.5t-97.5 86.5z" />
<glyph unicode="&#x438;" horiz-adv-x="1201" d="M117 -1v1056h282v-581q0 -25 -3 -55.5t-8 -60.5q12 27 24.5 49.5t24.5 39.5q1 2 18 27t43.5 63t60 86.5t68.5 98.5q81 117 184 265q15 25 41.5 47t58.5 22h172v-1056h-282v581q0 24 2.5 54t7.5 59q-24 -51 -48 -87q-2 -2 -18.5 -26.5t-43 -63t-60 -86.5t-68.5 -98 q-81 -117 -183 -265q-8 -12 -19 -24t-23.5 -22.5t-27 -16.5t-30.5 -6h-173z" />
<glyph unicode="&#x439;" horiz-adv-x="1201" d="M117 -1v1056h282v-581q0 -25 -3 -55.5t-8 -60.5q12 27 24.5 49.5t24.5 39.5q1 2 18 27t43.5 63t60 86.5t68.5 98.5q81 117 184 265q15 25 41.5 47t58.5 22h172v-1056h-282v581q0 24 2.5 54t7.5 59q-24 -51 -48 -87q-2 -2 -18.5 -26.5t-43 -63t-60 -86.5t-68.5 -98 q-81 -117 -183 -265q-8 -12 -19 -24t-23.5 -22.5t-27 -16.5t-30.5 -6h-173zM267 1409q0 28 14 52.5t44 24.5h167q0 -46 5.5 -76.5t19.5 -49t38 -26t61 -7.5t61 7.5t37.5 26t19.5 49t6 76.5h166q30 0 44 -24.5t14 -52.5q0 -53 -25 -95.5t-71.5 -72.5t-110.5 -45.5t-141 -15.5 q-78 0 -142 15.5t-110 45.5t-71.5 72.5t-25.5 95.5z" />
<glyph unicode="&#x43a;" horiz-adv-x="1134" d="M117 0v1056h282v-427h74q43 0 67 14.5t42 47.5l161 292q20 32 56 52.5t74 20.5h224l-236 -388q-26 -43 -52.5 -68.5t-64.5 -39.5q52 -16 85 -47t59 -78l234 -435h-194q-37 0 -65 6t-50 18.5t-38.5 30t-31.5 40.5l-135 280q-17 37 -49 54.5t-72 17.5h-88v-447h-282z" />
<glyph unicode="&#x43b;" horiz-adv-x="1235" d="M4 25v172h64q33 0 65.5 9.5t63.5 40.5t59 88t51.5 152.5t41 234.5t27.5 334h743v-1056h-282v844h-229q-13 -193 -38.5 -331t-61.5 -234t-80 -153.5t-94 -89t-103.5 -41.5t-107.5 -10q-63 0 -91 10t-28 30z" />
<glyph unicode="&#x43c;" horiz-adv-x="1476" d="M117 0v1057h235q29 0 57.5 -12.5t49.5 -49.5l217 -406q17 -33 33 -70.5t30 -76.5q13 39 29 76.5t34 70.5l216 406q20 39 49 50.5t57 11.5h236v-1057h-255v549q0 37 4 84t11 89l-286 -540q-26 -48 -79 -48h-31q-52 0 -80 48l-290 542q8 -42 13 -89.5t5 -85.5v-549h-255z " />
<glyph unicode="&#x43d;" horiz-adv-x="1171" d="M117 0v1056h282v-392h373v392h282v-1056h-282v458h-373v-458h-282z" />
<glyph unicode="&#x43e;" horiz-adv-x="1182" d="M61 529q0 126 38.5 226.5t108.5 170.5t167.5 108t217.5 38q119 0 216 -38t167 -108t107.5 -170.5t37.5 -226.5t-37.5 -226.5t-107.5 -171.5t-167 -108.5t-216 -37.5q-120 0 -217.5 37.5t-167.5 108.5t-108.5 171.5t-38.5 226.5zM352 528q0 -165 58.5 -248t182.5 -83 q121 0 179 83.5t58 247.5t-58 247.5t-179 83.5q-124 0 -182.5 -83.5t-58.5 -247.5z" />
<glyph unicode="&#x43f;" horiz-adv-x="1171" d="M117 0v1056h937v-1056h-282v850h-373v-850h-282z" />
<glyph unicode="&#x440;" horiz-adv-x="1169" d="M117 -341v1397h174q53 0 70 -49l22 -89q32 35 67.5 64t76.5 50t88.5 32.5t102.5 11.5q85 0 156 -36t122.5 -105.5t80 -169.5t28.5 -229q0 -119 -32.5 -220t-91.5 -174.5t-142.5 -115t-186.5 -41.5q-86 0 -146 25.5t-107 69.5v-421h-282zM399 279q40 -46 86.5 -64.5 t100.5 -18.5q51 0 93 19t72 60.5t46.5 106t16.5 154.5q0 88 -14 149t-39 99t-60.5 55t-79.5 17q-75 0 -126 -29t-96 -86v-462z" />
<glyph unicode="&#x441;" horiz-adv-x="991" d="M61 529q0 116 34 215.5t99.5 172t162.5 114t224 41.5q121 0 212 -39t163 -112l-73 -101q-12 -16 -24.5 -25t-35.5 -9q-20 0 -39 12t-43.5 26t-58.5 25.5t-84 11.5q-63 0 -110 -23t-77.5 -66t-45.5 -104.5t-15 -138.5q0 -162 65 -247.5t178 -85.5q39 0 67 6.5t49 16.5 t36.5 22.5t29 22.5t27.5 17t32 7q33 0 51 -25l81 -102q-45 -52 -96.5 -86.5t-106 -54.5t-111 -27.5t-111.5 -7.5q-97 0 -184.5 36t-153 106t-104 171t-38.5 231z" />
<glyph unicode="&#x442;" horiz-adv-x="1056" d="M23 850v206h1011v-206h-364v-850h-283v850h-364z" />
<glyph unicode="&#x443;" horiz-adv-x="1089" d="M0 1056h248q34 0 52 -15.5t27 -35.5l200 -505q11 -30 20 -60t17 -60q18 60 42 121l187 504q8 23 29.5 37t46.5 14h227l-570 -1340q-13 -29 -32 -43t-60 -14h-210l200 426z" />
<glyph unicode="&#x444;" horiz-adv-x="1519" d="M58 529q0 119 42 216t117.5 166.5t180 110.5t230.5 48v416h264v-416q126 -8 230.5 -48.5t179.5 -110t117 -166.5t42 -216q0 -120 -42 -216.5t-117 -166t-179.5 -111t-230.5 -48.5v-337h-264v337q-126 7 -230.5 48t-180 111t-117.5 167t-42 216zM340 528 q0 -76 20.5 -135.5t59 -102.5t93.5 -68t124 -32v676q-69 -6 -124 -31.5t-93.5 -68.5t-59 -103t-20.5 -135zM883 190q69 6 124 32t93.5 68.5t59 102.5t20.5 135t-20.5 135t-59 103t-94 68.5t-123.5 31.5v-676z" />
<glyph unicode="&#x445;" horiz-adv-x="1089" d="M-1 0l358 545l-344 511h272q31 0 45 -8.5t25 -26.5l207 -335q5 17 13.5 35t19.5 36l159 259q25 40 63 40h259l-344 -499l359 -557h-272q-31 0 -49.5 15.5t-30.5 35.5l-208 347q-9 -35 -26 -61l-178 -286q-12 -19 -30 -35t-46 -16h-252z" />
<glyph unicode="&#x446;" horiz-adv-x="1280" d="M117 0v1056h282v-850h373v850h282v-850h194v-474q0 -38 -22.5 -60t-57.5 -22h-177v350h-874z" />
<glyph unicode="&#x447;" horiz-adv-x="1090" d="M65 705v351h282v-310q0 -60 17.5 -98t58 -56t106 -16t161.5 20v460h283v-1056h-283v403q-136 -33 -250.5 -35t-198 31.5t-130 108.5t-46.5 197z" />
<glyph unicode="&#x448;" horiz-adv-x="1711" d="M117 0v1056h282v-850h316v850h281v-850h316v850h281v-1056h-1476z" />
<glyph unicode="&#x449;" horiz-adv-x="1819" d="M117 0v1056h282v-850h316v850h281v-850h316v850h281v-1056h1v206h194v-474q0 -38 -22.5 -60t-57.5 -22h-176v350h-1415z" />
<glyph unicode="&#x44a;" horiz-adv-x="1223" d="M25 847v209h585v-383h172q111 0 188.5 -27.5t125 -73t69 -105t21.5 -126.5q0 -76 -27 -138.5t-78.5 -107.5t-126 -70t-170.5 -25h-442v847h-317zM610 198h173q76 0 114.5 40t38.5 102q0 27 -8.5 51.5t-27.5 43t-48 29.5t-69 11h-173v-277z" />
<glyph unicode="&#x44b;" horiz-adv-x="1536" d="M117 0v1056h268v-383h172q111 0 188 -27.5t125.5 -73t70 -105t21.5 -126.5q0 -76 -27.5 -138.5t-79 -107.5t-126.5 -70t-170 -25h-442zM385 198h173q76 0 114.5 40t38.5 102q0 27 -9 51.5t-28 43t-47.5 29.5t-68.5 11h-173v-277zM1137 0v1056h281v-1056h-281z" />
<glyph unicode="&#x44c;" horiz-adv-x="998" d="M117 0v1056h268v-383h172q111 0 188 -27.5t125.5 -73t70 -105t21.5 -126.5q0 -76 -27.5 -138.5t-79 -107.5t-126.5 -70t-170 -25h-442zM385 198h173q76 0 114.5 40t38.5 102q0 27 -9 51.5t-28 43t-47.5 29.5t-68.5 11h-173v-277z" />
<glyph unicode="&#x44d;" horiz-adv-x="1001" d="M36 161l77 93q17 26 51 26q26 0 45.5 -13.5t44.5 -29t60.5 -28.5t94.5 -13q97 0 162.5 64.5t82.5 184.5h-426v189h423q-19 109 -81.5 168t-166.5 59q-50 0 -84 -10t-59.5 -23t-44.5 -23t-41 -10t-34 9t-24 24l-71 93q73 74 164 112.5t212 38.5q127 0 223.5 -41.5 t162.5 -114t100 -172t34 -215.5q0 -130 -38.5 -231t-104 -171t-153 -106t-184.5 -36q-55 0 -111.5 7.5t-111.5 27.5t-106 54.5t-96 86.5z" />
<glyph unicode="&#x44e;" horiz-adv-x="1659" d="M117 0v1056h282v-421h192q13 102 54 183t105 137.5t149 86.5t187 30q115 0 210 -38t162 -108t103.5 -170.5t36.5 -226.5t-38 -226.5t-106.5 -171.5t-162 -108.5t-205.5 -37.5q-106 0 -192.5 31t-150.5 90t-103 143t-51 189h-190v-438h-282zM865 528q0 -165 53 -248 t168 -83t168.5 83.5t53.5 247.5t-53.5 247.5t-168.5 83.5t-168 -83.5t-53 -247.5z" />
<glyph unicode="&#x44f;" horiz-adv-x="1051" d="M-6 0l250 364q24 41 55 67t74 40q-73 13 -123.5 42.5t-82 66.5t-45 79.5t-13.5 83.5q0 59 24 115.5t75 100t132.5 70.5t195.5 27h398v-1056h-268v416h-29q-32 0 -52.5 -6t-34 -16.5t-23 -25t-19.5 -31.5l-144 -242q-13 -24 -28 -41.5t-35 -29.5t-47.5 -18t-65.5 -6h-194z M392 732q0 -68 43.5 -106.5t114.5 -38.5h116v289h-122q-43 0 -72.5 -13t-47 -33.5t-25 -46t-7.5 -51.5z" />
<glyph unicode="&#x450;" horiz-adv-x="1097" d="M60 550q0 108 35.5 203t102 165.5t162 112t214.5 41.5q101 0 187 -32t148 -93.5t96 -151t34 -204.5q0 -32 -3 -52.5t-10 -32.5t-19.5 -17t-31.5 -5h-633q13 -148 84.5 -216.5t185.5 -68.5q58 0 101 13.5t75 30.5t58 31t52 14q33 0 51 -25l82 -102q-45 -52 -99 -86.5 t-112.5 -54.5t-118 -27.5t-114.5 -7.5q-111 0 -206.5 36t-167 107.5t-112.5 177t-41 244.5zM230 1502h265q44 0 66 -14t38 -43l142 -250h-159q-32 0 -52 8.5t-41 30.5zM346 652h440q0 44 -11.5 84t-37 71t-64.5 48.5t-93 17.5q-101 0 -158.5 -57t-75.5 -164z" />
<glyph unicode="&#x451;" horiz-adv-x="1097" d="M60 550q0 108 35.5 203t102 165.5t162 112t214.5 41.5q101 0 187 -32t148 -93.5t96 -151t34 -204.5q0 -32 -3 -52.5t-10 -32.5t-19.5 -17t-31.5 -5h-633q13 -148 84.5 -216.5t185.5 -68.5q58 0 101 13.5t75 30.5t58 31t52 14q33 0 51 -25l82 -102q-45 -52 -99 -86.5 t-112.5 -54.5t-118 -27.5t-114.5 -7.5q-111 0 -206.5 36t-167 107.5t-112.5 177t-41 244.5zM216 1325q0 31 12.5 58.5t33 48.5t47.5 33t57 12q32 0 60 -12t49 -33t33 -48.5t12 -58.5t-12 -57.5t-33 -46.5t-49.5 -31t-59.5 -11q-30 0 -57 11t-47.5 31t-33 46.5t-12.5 57.5z M346 652h440q0 44 -11.5 84t-37 71t-64.5 48.5t-93 17.5q-101 0 -158.5 -57t-75.5 -164zM641 1325q0 31 12 58.5t32.5 48.5t48 33t58.5 12q32 0 60 -12t48.5 -33t32.5 -48.5t12 -58.5t-12 -57.5t-32.5 -46.5t-49 -31t-59.5 -11t-58.5 11t-48 31t-32.5 46.5t-12 57.5z" />
<glyph unicode="&#x452;" horiz-adv-x="1159" d="M-43 1099v208h160v220h281v-220h312v-208h-312v-243q30 27 62.5 49t68.5 37.5t77.5 24.5t89.5 9q195 0 287.5 -123.5t92.5 -363.5q0 -104 -16.5 -211t-46.5 -211.5t-73 -205.5t-96 -193l-228 84q44 89 77 175.5t55.5 177t34 185.5t11.5 199q0 75 -14 127t-38.5 84 t-58.5 46t-74 14q-59 0 -111.5 -26t-99.5 -71v-663h-281v1099h-160z" />
<glyph unicode="&#x453;" horiz-adv-x="867" d="M117 0v1056h728v-206h-446v-850h-282zM305 1195l144 250q15 29 37 43t67 14h273l-259 -268q-20 -22 -40 -30.5t-52 -8.5h-170z" />
<glyph unicode="&#x454;" horiz-adv-x="1001" d="M61 529q0 116 34 215.5t99.5 172t162.5 114t224 41.5q121 0 212 -39t163 -112l-70 -93q-12 -15 -24.5 -24t-34.5 -9t-41 10t-44 23t-59.5 23t-84.5 10q-103 0 -165.5 -60t-82.5 -167h424v-189h-428q17 -122 83.5 -185.5t163.5 -63.5q58 0 94 13t61 28.5t44.5 29 t45.5 13.5q34 0 51 -26l77 -93q-45 -52 -96.5 -86.5t-106 -54.5t-111 -27.5t-111.5 -7.5q-97 0 -184.5 36t-153 106t-104 171t-38.5 231z" />
<glyph unicode="&#x455;" horiz-adv-x="906" d="M42 114l66 105q11 18 28 28.5t43 10.5t47.5 -13t48 -27.5t63 -27.5t90.5 -13q41 0 70.5 9.5t48 25t27.5 35.5t9 42q0 35 -22 57t-57.5 38t-81.5 29.5t-93.5 30t-93.5 39t-81 56.5t-57 84.5t-22 121.5q0 66 25.5 125t76.5 104t127.5 71.5t176.5 26.5q113 0 205 -37 t152 -96l-65 -100q-11 -17 -23 -25t-32 -8t-42 10t-48.5 22t-61 22t-79.5 10q-69 0 -106.5 -28t-37.5 -74q0 -32 21.5 -53.5t57 -37t80.5 -29.5t92.5 -30.5t92.5 -38t80.5 -53.5t57 -78t21.5 -110q0 -77 -28 -142t-82.5 -112t-135.5 -73.5t-186 -26.5q-54 0 -107.5 9.5 t-101.5 27.5t-90 41.5t-73 51.5z" />
<glyph unicode="&#x456;" horiz-adv-x="532" d="M91 1356q0 36 14 67t37.5 54.5t54.5 37t66 13.5q37 0 69.5 -13.5t56.5 -37t38 -54.5t14 -67t-14 -67t-38 -54.5t-56.5 -36.5t-69.5 -13q-35 0 -66 13t-54.5 36.5t-37.5 54.5t-14 67zM125 0v1056h283v-1056h-283z" />
<glyph unicode="&#x457;" horiz-adv-x="532" d="M-57 1325q0 31 12 58.5t32.5 48.5t47.5 33t56 12q32 0 60 -12t49 -33t33.5 -48.5t12.5 -58.5t-12.5 -57.5t-33.5 -46.5t-49 -31t-60 -11q-30 0 -56.5 11t-47 31t-32.5 46.5t-12 57.5zM125 0v1056h283v-1056h-283zM303 1325q0 31 12 58.5t32.5 48.5t48 33t58.5 12 q32 0 59.5 -12t48.5 -33t32.5 -48.5t11.5 -58.5t-11.5 -57.5t-32.5 -46.5t-48.5 -31t-59.5 -11q-31 0 -58.5 11t-48 31t-32.5 46.5t-12 57.5z" />
<glyph unicode="&#x458;" horiz-adv-x="532" d="M-80 -348l10 149q2 20 15 28.5t51 8.5t62.5 7t39.5 23t21 43.5t6 68.5v1076h283v-1076q0 -72 -18.5 -135t-60 -110t-108.5 -75t-166 -28q-37 0 -69 5.5t-66 14.5zM91 1356q0 36 14 67t37.5 54.5t54.5 37t66 13.5q37 0 69.5 -13.5t56.5 -37t38 -54.5t14 -67t-14 -67 t-38 -54.5t-56.5 -36.5t-69.5 -13q-35 0 -66 13t-54.5 36.5t-37.5 54.5t-14 67z" />
<glyph unicode="&#x459;" horiz-adv-x="1731" d="M4 25v172h64q33 0 65.5 9.5t63.5 40.5t59 88t51.5 152.5t41 234.5t27.5 334h743v-383h171q111 0 188 -27.5t125.5 -73t70 -105t21.5 -126.5q0 -76 -27.5 -138.5t-79 -107.5t-125.5 -70t-170 -25h-456v844h-229q-13 -193 -38.5 -331t-61.5 -234t-80 -153.5t-94 -89 t-103.5 -41.5t-107.5 -10q-63 0 -91 10t-28 30zM1119 198h173q76 0 114 40t38 102q0 27 -9 51.5t-27 43t-47.5 29.5t-69.5 11h-172v-277z" />
<glyph unicode="&#x45a;" horiz-adv-x="1667" d="M117 0v1056h282v-392h373v392h282v-383h172q111 0 188 -27.5t125 -73t69.5 -105t21.5 -126.5q0 -76 -27 -138.5t-78.5 -107.5t-126.5 -70t-170 -25h-456v458h-373v-458h-282zM1054 198h174q75 0 113 40t38 102q0 27 -8.5 51.5t-27 43t-47.5 29.5t-69 11h-173v-277z" />
<glyph unicode="&#x45b;" horiz-adv-x="1161" d="M-26 1159v171h143v197h281v-197h283v-171h-283v-241q30 27 62.5 48.5t68.5 37.5t77.5 24.5t89.5 8.5q86 0 152.5 -29.5t112.5 -83t69 -127t23 -161.5v-636h-282v636q0 88 -41 136.5t-121 48.5q-59 0 -111.5 -26t-99.5 -71v-724h-281v1159h-143z" />
<glyph unicode="&#x45c;" horiz-adv-x="1134" d="M117 0v1056h282v-427h74q43 0 67 14.5t42 47.5l161 292q20 32 56 52.5t74 20.5h224l-236 -388q-26 -43 -52.5 -68.5t-64.5 -39.5q52 -16 85 -47t59 -78l234 -435h-194q-37 0 -65 6t-50 18.5t-38.5 30t-31.5 40.5l-135 280q-17 37 -49 54.5t-72 17.5h-88v-447h-282z M433 1195l144 250q15 29 37 43t67 14h273l-259 -268q-20 -22 -40 -30.5t-52 -8.5h-170z" />
<glyph unicode="&#x45d;" horiz-adv-x="1201" d="M117 -1v1056h282v-581q0 -25 -3 -55.5t-8 -60.5q12 27 24.5 49.5t24.5 39.5q1 2 18 27t43.5 63t60 86.5t68.5 98.5q81 117 184 265q15 25 41.5 47t58.5 22h172v-1056h-282v581q0 24 2.5 54t7.5 59q-24 -51 -48 -87q-2 -2 -18.5 -26.5t-43 -63t-60 -86.5t-68.5 -98 q-81 -117 -183 -265q-8 -12 -19 -24t-23.5 -22.5t-27 -16.5t-30.5 -6h-173zM265 1502h265q44 0 66 -14t38 -43l142 -250h-159q-32 0 -52 8.5t-41 30.5z" />
<glyph unicode="&#x45e;" horiz-adv-x="1089" d="M0 1056h248q34 0 52 -15.5t27 -35.5l200 -505q11 -30 20 -60t17 -60q18 60 42 121l187 504q8 23 29.5 37t46.5 14h227l-570 -1340q-13 -29 -32 -43t-60 -14h-210l200 426zM222 1409q0 28 14 52.5t44 24.5h167q0 -46 5.5 -76.5t19.5 -49t38 -26t61 -7.5t61 7.5t37.5 26 t19.5 49t6 76.5h166q30 0 44 -24.5t14 -52.5q0 -53 -25 -95.5t-71.5 -72.5t-110.5 -45.5t-141 -15.5q-78 0 -142 15.5t-110 45.5t-71.5 72.5t-25.5 95.5z" />
<glyph unicode="&#x45f;" horiz-adv-x="1171" d="M117 0v1056h282v-850h373v850h282v-1056h-340v-268q0 -38 -22.5 -60t-57.5 -22h-176v350h-341z" />
<glyph unicode="&#x460;" horiz-adv-x="2204" d="M80 755q0 155 29.5 290.5t95 236.5t169 160t251.5 59q122 0 209 -38.5t148 -97.5l-64 -151q-15 -24 -28.5 -31t-33.5 -7q-17 0 -35 10.5t-40.5 23.5t-53 23.5t-71.5 10.5q-63 0 -113 -30.5t-85 -93t-53.5 -158t-18.5 -224.5q0 -120 17.5 -212.5t54.5 -156t95.5 -96 t141.5 -32.5q75 0 137.5 26.5t115.5 78.5v453h309v-454q53 -52 115.5 -78t136.5 -26q83 0 142 32.5t96.5 96t55 156t17.5 212.5q0 129 -18.5 224.5t-53.5 158t-85 93t-114 30.5q-42 0 -71.5 -10.5t-52 -23.5t-40.5 -23.5t-35 -10.5q-19 0 -33 7.5t-30 30.5l-63 151 q61 59 147.5 97.5t209.5 38.5q147 0 250.5 -59t168.5 -160t95 -237t30 -290q0 -177 -37.5 -320t-111 -243.5t-184 -154t-256.5 -53.5q-131 0 -237.5 43t-195.5 125q-89 -82 -195.5 -125t-238.5 -43q-146 0 -256.5 53.5t-184 154t-111 243.5t-37.5 320z" />
<glyph unicode="&#x461;" horiz-adv-x="1611" d="M96 597v459h194q42 0 60.5 -24.5t18.5 -55.5v-348q0 -118 42 -211t109 -161q31 34 58.5 75t47.5 88t32 99.5t12 108.5v429h192q43 0 61.5 -24.5t18.5 -55.5v-339q0 -112 39.5 -208t110.5 -173q32 34 61.5 78t52.5 100t36.5 126t13.5 155q0 61 -6.5 105.5t-14 77 t-14.5 55.5t-7 41q0 24 15 43t44 19h213q20 -94 30.5 -175t10.5 -162q0 -119 -20.5 -220.5t-59 -189t-94.5 -163.5t-126 -146h-166q-22 0 -35 8t-30 27q-52 55 -102 128.5t-89 160.5q-38 -85 -87.5 -159t-102.5 -131q-8 -9 -14 -15.5t-12 -10.5t-14 -6t-20 -2h-170 q-59 58 -112 128t-92 146t-62 158t-23 165z" />
<glyph unicode="&#x462;" horiz-adv-x="1513" d="M43 1066v222h351v198h307v-198h427v-222h-427v-185h224q148 0 253.5 -33t171.5 -89.5t97 -130.5t31 -158q0 -106 -37.5 -193t-108 -148t-173.5 -95t-234 -34h-531v1066h-351zM701 236h224q73 0 121 16t76.5 44.5t40.5 65t12 77.5q0 46 -12 84t-40 65t-76.5 41.5 t-121.5 14.5h-224v-408z" />
<glyph unicode="&#x463;" horiz-adv-x="1170" d="M27 846v209h249v268h269v-268h315v-209h-315v-173h192q111 0 188 -27.5t125 -73t69.5 -105t21.5 -126.5q0 -76 -27.5 -138.5t-78.5 -107.5t-125.5 -70t-170.5 -25h-463v846h-249zM545 198h193q76 0 114.5 40t38.5 102q0 27 -9 51.5t-27.5 43t-47.5 29.5t-69 11h-193v-277 z" />
<glyph unicode="&#x464;" horiz-adv-x="1959" d="M156 0v1486h309v-621h257q18 142 76.5 259.5t150 201.5t212.5 130t264 46q160 0 282 -54t205 -141l-103 -142q-10 -13 -23.5 -23t-38.5 -10t-48.5 17t-58 38.5t-86 39t-131.5 17.5q-76 0 -139.5 -25t-114 -73.5t-84 -119.5t-47.5 -161h596v-224h-598q12 -96 47.5 -171 t88 -125.5t118 -77t138.5 -26.5q48 0 87.5 5t73.5 17t64 31.5t61 49.5q11 9 24 15.5t26 6.5q26 0 44 -19l122 -130q-87 -115 -216 -174t-306 -59q-148 0 -269 48.5t-209 135.5t-142 208t-68 265h-255v-641h-309z" />
<glyph unicode="&#x465;" horiz-adv-x="1434" d="M117 0v1056h272v-425h148q15 96 57.5 176.5t107.5 138.5t150.5 89.5t185.5 31.5q117 0 206.5 -40.5t146.5 -102.5l-93 -126q-8 -11 -20 -19.5t-34 -8.5q-20 0 -36 11t-36.5 24t-51.5 24t-84 11q-83 0 -141 -53.5t-79 -155.5h379v-197h-379q10 -53 32 -94t52.5 -68.5 t67.5 -42t78 -14.5q27 0 49 2.5t42 8.5t38.5 17.5t36.5 28.5q20 19 44 19q20 0 37 -17l108 -114q-60 -86 -154 -128.5t-220 -42.5q-105 0 -190 33t-148 92t-102.5 141t-51.5 179h-146v-434h-272z" />
<glyph unicode="&#x466;" horiz-adv-x="1504" d="M-30 0l634 1486h296l635 -1486h-248q-40 0 -65.5 19t-36.5 49l-196 505h-93v-573h-292v573h-89l-196 -505q-10 -26 -35.5 -47t-64.5 -21h-249zM598 786h309l-90 233q-15 39 -32 92t-33 115q-15 -62 -32.5 -116t-32.5 -93z" />
<glyph unicode="&#x467;" horiz-adv-x="1207" d="M-13 0l486 1056h261l488 -1056h-220q-35 0 -56.5 16.5t-32.5 42.5l-123 289h-60v-348h-256v348h-55l-124 -289q-9 -23 -32 -41t-56 -18h-220zM499 536h210l-50 115q-13 33 -28 78.5t-29 98.5q-13 -54 -27.5 -100t-26.5 -79z" />
<glyph unicode="&#x468;" horiz-adv-x="2131" d="M156 0v1486h309v-700h469l298 700h296l635 -1486h-248q-40 0 -65.5 19t-37.5 49l-195 505h-93v-573h-292v573h-89l-196 -505q-10 -26 -35.5 -47t-64.5 -21h-249l245 573h-378v-573h-309zM1226 786h309l-90 233q-15 39 -32 92t-34 115q-15 -62 -32 -116t-32 -93z" />
<glyph unicode="&#x469;" horiz-adv-x="1698" d="M117 0v1056h272v-520h335l241 520h261l486 -1056h-218q-36 0 -57.5 16.5t-32.5 42.5l-124 289h-58v-348h-256v348h-57l-123 -289q-9 -23 -32 -41t-57 -18h-220l161 348h-249v-348h-272zM990 536h210l-49 115q-13 33 -28 78.5t-28 98.5q-14 -54 -28.5 -100t-28.5 -79z" />
<glyph unicode="&#x46a;" horiz-adv-x="1775" d="M5 0l192 497q28 71 62 129t79 102t102 73.5t129 43.5l-512 640h1659l-512 -639q74 -13 131.5 -43t103 -74t80 -102.5t62.5 -129.5l192 -497h-250q-39 0 -64.5 21t-36.5 47l-132 404q-17 51 -35.5 84.5t-44.5 52.5t-63 26.5t-89 7.5h-16l-1 -1h-11v-642h-292v642h-6l-1 1 h-11q-52 0 -89 -7.5t-63 -26.5t-45 -52.5t-36 -84.5l-132 -404q-11 -26 -36.5 -47t-64.5 -21h-249zM544 1273l171 -220q33 -41 60 -75t48.5 -65t37.5 -62.5t26 -67.5q10 36 25.5 67.5t37 62.5t49 65t60.5 75l171 220h-686z" />
<glyph unicode="&#x46b;" horiz-adv-x="1393" d="M3 0l141 332q23 53 49 97t58.5 79t72.5 59.5t91 38.5l-379 450h1321l-379 -449q52 -14 92.5 -38.5t73.5 -59t58.5 -79.5t48.5 -98l142 -332h-221q-33 0 -55.5 18.5t-33.5 40.5l-87 251q-13 39 -28 63.5t-35 38.5t-47 19t-65 5v-436h-256v436q-36 -1 -61.5 -6.5 t-44.5 -19.5t-32.5 -38t-27.5 -62l-87 -251q-10 -23 -32.5 -41t-56.5 -18h-220zM478 868l69 -76q29 -36 52.5 -65t41.5 -56t32 -54t23 -58q8 31 22 58t33 54t42.5 56t52.5 65l67 76h-435z" />
<glyph unicode="&#x46c;" horiz-adv-x="2415" d="M156 0v1486h309v-630h738l-504 629h1658l-512 -639q74 -13 131.5 -42.5t103 -73.5t80 -103t62.5 -130l192 -497h-249q-39 0 -64.5 21t-37.5 47l-132 404q-17 51 -35.5 84.5t-44.5 52.5t-63 26.5t-89 7.5h-16l-1 -1h-11v-642h-292v642h-5l-1 1h-18q-48 0 -83 -7t-61.5 -26 t-46.5 -52.5t-38 -85.5l-134 -404q-10 -26 -35.5 -47t-64.5 -21h-249l191 496q17 47 56 83.5t91 63.5h-516v-643h-309zM1185 1273l171 -220q33 -41 60 -74.5t48.5 -64.5t37.5 -62.5t26 -67.5q10 36 26 67.5t37.5 62.5t48.5 64.5t60 74.5l171 220h-686z" />
<glyph unicode="&#x46d;" horiz-adv-x="1892" d="M117 0v1056h272v-432h512l-364 432h1320l-379 -449q52 -14 92.5 -38.5t73 -59t58 -79.5t49.5 -98l141 -332h-220q-34 0 -56.5 18.5t-32.5 40.5l-87 251q-13 39 -27.5 63t-34.5 38t-47 19.5t-65 5.5v-436h-256v436q-34 0 -59.5 -5.5t-45 -19.5t-35 -38t-28.5 -63l-90 -251 q-9 -23 -31.5 -41t-56.5 -18h-219l141 332q12 33 40 59t64 45h-357v-436h-272zM979 868l69 -76q29 -36 52 -65t41.5 -56t32.5 -54t23 -58q8 31 22 58t33 54t42.5 56t52.5 65l67 76h-435z" />
<glyph unicode="&#x46e;" horiz-adv-x="1167" d="M19 -24q0 143 92 221.5t258 78.5q65 0 116 -8.5t101 -8.5q52 0 92 14.5t66.5 40.5t40 62.5t13.5 79.5q0 53 -20 91.5t-56.5 63t-87 35.5t-113.5 10h-212l-1 244h190q129 0 196.5 47t67.5 137q0 79 -63.5 125t-185.5 46q-71 0 -123 -15t-90.5 -34t-67 -34.5t-51.5 -15.5 q-24 0 -38.5 11t-28.5 33l-76 145q86 74 208.5 115.5t268.5 41.5q123 0 222 -28.5t168.5 -80.5t107 -124t37.5 -159q0 -100 -44 -184t-136 -139q48 -24 88 -56.5t68.5 -74t44 -92t15.5 -110.5q0 -83 -31 -163t-95.5 -142t-164.5 -100t-238 -38q-34 0 -59 2t-45 4.5t-36.5 5 t-31.5 2.5q-40 0 -59 -16t-19 -44q0 -17 8 -29.5t25.5 -20.5t48 -12t75.5 -4q34 0 68.5 1.5t68 3.5t63.5 3.5t55 1.5q77 0 128 -17.5t81.5 -49t43 -74.5t12.5 -95q0 -13 -1.5 -27t-7.5 -25t-19 -18t-35 -7h-81q-2 50 -32 69t-98 19q-25 0 -44 -1.5t-40 -4t-48 -4t-68 -1.5 q-251 0 -371 74t-120 229z" />
<glyph unicode="&#x46f;" horiz-adv-x="910" d="M18 -53q0 54 17.5 100t53 80t87 53.5t121.5 19.5q30 0 62 -3t56 -3q39 0 68.5 10.5t50 28t30.5 41t10 49.5q0 67 -45.5 100.5t-150.5 33.5h-119v179h119q93 0 141 31.5t48 85.5q0 49 -42.5 78.5t-124.5 29.5q-52 0 -88 -10.5t-62 -23t-45 -23t-36 -10.5q-19 0 -32.5 7 t-28.5 32l-65 106q50 49 118 83t161 45l-217 264h161q30 0 50.5 -7t35.5 -29l66 -87q8 -11 16.5 -24.5t17.5 -27.5q8 14 16 27.5t16 24.5l62 81q19 26 52 39.5t75 13.5q28 0 50.5 -5t44.5 -13v-127h-17q-28 0 -44 -13.5t-28 -26.5l-99 -106q58 -17 103.5 -44.5t77 -62.5 t47.5 -75t16 -83q0 -30 -8.5 -61.5t-28 -61.5t-51 -56.5t-78.5 -45.5q46 -18 81 -44.5t58 -57.5t35 -67t12 -73q0 -71 -27 -131t-78.5 -103.5t-125.5 -68.5t-170 -25q-40 0 -77.5 3.5t-60.5 3.5q-30 0 -46.5 -11.5t-16.5 -37.5q0 -34 26.5 -48t75.5 -14q22 0 50.5 1.5 t59.5 4t62 4t55 1.5q77 0 128 -18t81.5 -49.5t43 -75t12.5 -94.5q0 -13 -1.5 -26.5t-8 -24.5t-19 -18.5t-35.5 -7.5h-81q-2 50 -31 69t-99 19q-49 0 -97 -5t-95 -5q-74 0 -137.5 18.5t-111 54.5t-75 89t-27.5 123z" />
<glyph unicode="&#x470;" horiz-adv-x="1721" d="M82 951v535h207q49 0 75.5 -29.5t26.5 -72.5v-433q0 -82 15 -145t51.5 -107.5t96 -70t149.5 -32.5v890h310v-890q90 7 151 32.5t97 69.5t51.5 107.5t15.5 145.5v433q0 43 26.5 72.5t76.5 29.5h206v-535q0 -130 -39.5 -236.5t-118 -183.5t-195.5 -123t-271 -55v-353h-310 v353q-154 9 -270 55.5t-194 123.5t-117.5 183t-39.5 236z" />
<glyph unicode="&#x471;" horiz-adv-x="1640" d="M101 519v537h196q17 0 32.5 -10.5t27.5 -25.5t19 -33.5t7 -35.5v-432q0 -136 77.5 -211.5t220.5 -97.5v1276h283v-1279q74 9 130.5 31t95.5 63.5t59 104.5t20 154q0 83 -8 140.5t-17 102t-17.5 82t-9.5 82.5q0 25 6.5 41.5t17.5 27.5t25 15.5t28 4.5h204q12 -66 22 -127 t17 -121t10.5 -121.5t3.5 -126.5q0 -152 -45.5 -255.5t-124.5 -169.5t-187 -100t-230 -45v-330h-283v329q-155 12 -264.5 53.5t-179.5 110t-103 161t-33 205.5z" />
<glyph unicode="&#x472;" horiz-adv-x="1660" d="M69 743q0 163 54.5 302t155 240t240.5 159t311 58t311.5 -58t240.5 -159.5t154.5 -240.5t54.5 -301q0 -163 -54.5 -302t-154.5 -240.5t-240.5 -159t-311.5 -57.5t-311 57.5t-240.5 159t-155 241t-54.5 301.5zM389 641q12 -94 48 -168t93 -125t132.5 -78t167.5 -27t168 27 t132.5 78t92 125t48.5 168h-882zM392 865h876q-15 89 -51.5 160t-92.5 119.5t-129.5 74t-164.5 25.5q-90 0 -163.5 -25.5t-130 -74t-92.5 -119.5t-52 -160z" />
<glyph unicode="&#x473;" horiz-adv-x="1182" d="M61 529q0 126 38.5 226.5t108.5 170.5t167.5 108t217.5 38q119 0 216 -38t167 -108t107.5 -170.5t37.5 -226.5t-37.5 -226.5t-107.5 -171.5t-167 -108.5t-216 -37.5q-120 0 -217.5 37.5t-167.5 108.5t-108.5 171.5t-38.5 226.5zM339 446q15 -130 80 -194t174 -64 q105 0 169.5 64t81.5 194h-505zM341 627h500q-18 121 -82 181t-166 60q-105 0 -169.5 -60t-82.5 -181z" />
<glyph unicode="&#x474;" horiz-adv-x="1472" d="M-23 1486h247q40 0 65 -19t38 -49l321 -856q18 -47 36.5 -104.5t33.5 -118.5q13 61 29.5 118.5t34.5 104.5l222 699q38 120 116.5 177.5t212.5 57.5q40 0 64.5 -3t38 -9.5t18 -17.5t4.5 -26v-189h-55q-47 0 -79 -24.5t-52 -79.5l-418 -1147h-279z" />
<glyph unicode="&#x475;" horiz-adv-x="1136" d="M0 1056h234q31 0 52 -14.5t28 -36.5l180 -523q37 -108 56 -212q11 52 25 104.5t30 107.5l113 371q19 68 46.5 110t61 66t74 32.5t87.5 8.5q38 0 61.5 -4t37 -10t18 -13.5t4.5 -12.5v-152h-32q-41 0 -70.5 -17t-43.5 -56l-289 -805h-256z" />
<glyph unicode="&#x476;" horiz-adv-x="1472" d="M-23 1486h247q40 0 65 -19t38 -49l321 -856q18 -47 36.5 -104.5t33.5 -118.5q13 61 29.5 118.5t34.5 104.5l222 699q38 120 116.5 177.5t212.5 57.5q40 0 64.5 -3t38 -9.5t18 -17.5t4.5 -26v-189h-55q-47 0 -79 -24.5t-52 -79.5l-418 -1147h-279zM157 1870h210 q45 0 74.5 -16t50.5 -42l187 -225h-152q-32 0 -55 10t-46 30zM575 1870h182q44 0 72.5 -15.5t44.5 -42.5l137 -225h-133q-32 0 -50.5 10.5t-41.5 29.5z" />
<glyph unicode="&#x477;" horiz-adv-x="1136" d="M0 1056h234q31 0 52 -14.5t28 -36.5l180 -523q37 -108 56 -212q11 52 25 104.5t30 107.5l113 371q19 68 46.5 110t61 66t74 32.5t87.5 8.5q38 0 61.5 -4t37 -10t18 -13.5t4.5 -12.5v-152h-32q-41 0 -70.5 -17t-43.5 -56l-289 -805h-256zM28 1502h201q22 0 38 -4t27 -11 t21 -18t19 -24l181 -250h-133q-33 0 -52.5 8.5t-39.5 30.5zM399 1502h184q44 0 66.5 -14t36.5 -43l125 -250h-115q-33 0 -54 7.5t-38 31.5z" />
<glyph unicode="&#x478;" horiz-adv-x="2737" d="M70 743q0 163 54.5 302t155 240t240.5 159t311 58t311.5 -58t240.5 -159.5t154.5 -240.5t54.5 -301q0 -163 -54.5 -302t-154.5 -240.5t-240.5 -159t-311.5 -57.5t-311 57.5t-240.5 159t-155 241t-54.5 301.5zM384 743q0 -118 30.5 -210.5t88.5 -157t141 -98.5t187 -34 t187 34t140.5 98.5t88.5 157t31 210.5q0 117 -31 210t-88.5 158t-140 99t-187.5 34q-104 0 -187 -34t-141 -99t-88.5 -158t-30.5 -210zM1653 1056h248q34 0 52 -15.5t27 -35.5l200 -505q11 -30 20 -60t17 -60q18 60 42 121l187 504q8 23 29.5 37t46.5 14h227l-570 -1340 q-13 -29 -32 -43t-60 -14h-210l200 426z" />
<glyph unicode="&#x479;" horiz-adv-x="2281" d="M61 529q0 126 38.5 226.5t108.5 170.5t167.5 108t217.5 38q119 0 216 -38t167 -108t107.5 -170.5t37.5 -226.5t-37.5 -226.5t-107.5 -171.5t-167 -108.5t-216 -37.5q-120 0 -217.5 37.5t-167.5 108.5t-108.5 171.5t-38.5 226.5zM352 528q0 -165 58.5 -248t182.5 -83 q121 0 179 83.5t58 247.5t-58 247.5t-179 83.5q-124 0 -182.5 -83.5t-58.5 -247.5zM1192 1056h248q34 0 52 -15.5t27 -35.5l200 -505q11 -30 20 -60t17 -60q18 60 42 121l187 504q8 23 29.5 37t46.5 14h227l-570 -1340q-13 -29 -32 -43t-60 -14h-210l200 426z" />
<glyph unicode="&#x47a;" horiz-adv-x="1778" d="M69 743q0 147 45.5 275.5t129 228t201 163.5t263.5 84q30 45 77.5 71.5t107.5 26.5t109 -27t78 -72q143 -22 259.5 -87t199 -163.5t127 -226.5t44.5 -273q0 -146 -44.5 -273t-126.5 -226t-198 -164t-260 -86q-30 -46 -79 -73t-109 -27t-109 26.5t-77 71.5 q-144 20 -262 84.5t-201.5 164t-129 227.5t-45.5 275zM383 743q0 -101 23 -184.5t67 -146.5t107.5 -103.5t144.5 -55.5q30 34 73 54t95 20q50 0 93 -19.5t74 -53.5q80 16 142.5 57.5t105.5 104t65.5 145t22.5 182.5t-22.5 183.5t-65.5 145.5t-105 102.5t-141 58.5 q-31 -35 -74.5 -54.5t-94.5 -19.5q-52 0 -95.5 20t-73.5 55q-80 -16 -143.5 -56.5t-107.5 -103.5t-67 -146t-23 -185z" />
<glyph unicode="&#x47b;" horiz-adv-x="1355" d="M60 529q0 111 30 202t85 159.5t133.5 113t175.5 60.5q28 49 78.5 79.5t115.5 30.5q63 0 114 -30.5t79 -79.5q96 -15 175 -59t134.5 -113t85.5 -160.5t30 -202.5q0 -113 -30.5 -205t-87 -161t-135.5 -112.5t-178 -58.5q-30 -45 -78.5 -71.5t-108.5 -26.5t-109 26.5 t-79 72.5q-98 15 -177.5 58.5t-135 112.5t-86.5 161.5t-31 203.5zM352 528q0 -123 32.5 -200.5t100.5 -109.5q28 49 78.5 79t114.5 30q63 0 113 -30t79 -80q134 63 135 311q0 125 -34 203.5t-105 109.5q-30 -46 -79 -73.5t-109 -27.5q-61 0 -110 27t-79 73 q-71 -31 -104 -109.5t-33 -202.5z" />
<glyph unicode="&#x47c;" horiz-adv-x="2206" d="M81 755q0 155 29.5 290.5t94.5 236.5t168.5 160t251.5 59q123 0 210 -38.5t148 -97.5l-64 -151q-15 -24 -28.5 -31t-33.5 -7q-17 0 -35 10.5t-40.5 23.5t-53 23.5t-71.5 10.5q-63 0 -113.5 -30.5t-85.5 -93t-53.5 -158t-18.5 -224.5q0 -120 17.5 -212.5t55 -156t96 -96 t141.5 -32.5q108 0 177.5 54t115.5 160h229q46 -105 115.5 -159.5t176.5 -54.5q83 0 142 32.5t96.5 96t55 156t17.5 212.5q0 129 -18.5 224.5t-53.5 158t-85.5 93t-114.5 30.5q-42 0 -71.5 -10.5t-52 -23.5t-40 -23.5t-34.5 -10.5q-20 0 -33.5 7.5t-29.5 30.5l-64 151 q61 59 148 97.5t210 38.5q147 0 250.5 -59t168.5 -160t95 -237t30 -290q0 -177 -37.5 -320t-111 -243.5t-184 -154t-256.5 -53.5q-131 0 -237.5 43t-195.5 126q-90 -83 -196.5 -126t-237.5 -43q-146 0 -256.5 53.5t-184 154t-111 243.5t-37.5 320zM741 1696q0 68 19.5 119.5 t55.5 86t87 52.5t115 18q49 0 91.5 -9.5t82 -25t78 -32.5t81 -32t91 -25t107.5 -10v-143q-104 0 -181.5 20.5t-138.5 45t-109 45t-94 20.5q-52 0 -82.5 -32.5t-30.5 -97.5h-172zM1008 1628q0 45 29 74.5t83 29.5q65 0 98 -41.5t33 -104.5q0 -42 -13.5 -76t-41.5 -59.5 t-69.5 -39t-97.5 -12.5v43q0 14 10.5 21.5t34.5 13.5q33 8 49.5 20.5t18.5 41.5q-10 -2 -19 -2q-33 0 -54.5 7.5t-35.5 20t-19.5 29t-5.5 34.5z" />
<glyph unicode="&#x47d;" horiz-adv-x="1601" d="M68 535q0 110 21.5 206.5t68.5 168.5t122 114t183 42q93 0 159 -28.5t111 -72.5l-55 -135q-14 -22 -26 -27.5t-29 -5.5q-14 0 -27.5 6.5t-28.5 14.5t-33 15t-42 7q-35 0 -64 -18t-49 -56.5t-31 -99t-11 -146.5q0 -72 8 -128.5t28.5 -95.5t55.5 -60t88 -21q69 0 111.5 36 t72.5 115h200q30 -79 73 -115t111 -36q53 0 88 21t55 60t28.5 96t8.5 128q0 86 -11 146.5t-31 99t-48.5 56.5t-63.5 18q-25 0 -42.5 -7t-33 -15t-29 -14.5t-27.5 -6.5q-17 0 -28.5 6t-25.5 27l-56 135q46 44 111.5 72.5t158.5 28.5q109 0 184 -42t122 -114t68 -169t21 -206 q0 -123 -25.5 -223.5t-78 -172t-132.5 -111t-190 -39.5q-92 0 -167.5 28.5t-139.5 83.5q-65 -55 -139.5 -83.5t-166.5 -28.5q-110 0 -190.5 39.5t-133 111t-78 172t-25.5 223.5zM442 1309q0 68 19.5 119.5t55.5 86t87 52.5t115 18q49 0 91.5 -9.5t82 -25t78.5 -32.5 t81.5 -32.5t91 -25t107.5 -9.5v-142q-70 0 -127.5 9.5t-105 24t-87.5 31.5t-75.5 31t-66.5 24t-62 10q-52 0 -82.5 -32t-30.5 -98h-172zM709 1241q0 45 29 75t83 30q65 0 98 -42t33 -105q0 -42 -13.5 -76t-41.5 -59.5t-69.5 -38.5t-97.5 -13v43q0 14 10.5 21.5t34.5 13.5 q33 8 49.5 20.5t18.5 42.5q-10 -2 -19 -2q-33 0 -54.5 7.5t-35.5 20t-19.5 29t-5.5 33.5z" />
<glyph unicode="&#x47e;" horiz-adv-x="2204" d="M80 755q0 155 29.5 290.5t95 236.5t169 160t251.5 59q122 0 209 -38.5t148 -97.5l-64 -151q-15 -24 -28.5 -31t-33.5 -7q-17 0 -35 10.5t-40.5 23.5t-53 23.5t-71.5 10.5q-63 0 -113 -30.5t-85 -93t-53.5 -158t-18.5 -224.5q0 -120 17.5 -212.5t54.5 -156t95.5 -96 t141.5 -32.5q75 0 137.5 26.5t115.5 78.5v453h309v-454q53 -52 115.5 -78t136.5 -26q83 0 142 32.5t96.5 96t55 156t17.5 212.5q0 129 -18.5 224.5t-53.5 158t-85 93t-114 30.5q-42 0 -71.5 -10.5t-52 -23.5t-40.5 -23.5t-35 -10.5q-19 0 -33 7.5t-30 30.5l-63 151 q61 59 147.5 97.5t209.5 38.5q147 0 250.5 -59t168.5 -160t95 -237t30 -290q0 -177 -37.5 -320t-111 -243.5t-184 -154t-256.5 -53.5q-131 0 -237.5 43t-195.5 125q-89 -82 -195.5 -125t-238.5 -43q-146 0 -256.5 53.5t-184 154t-111 243.5t-37.5 320zM639 1844h925 q0 -16 -2 -27t-5 -23l-69 -219q-5 -16 -17 -24.5t-24.5 -8.5t-23.5 8t-16 25l-40 134h-182l-43 -134q-5 -16 -17 -24.5t-24.5 -8.5t-23.5 8t-16 25l-40 134h-186l-43 -134q-5 -16 -16.5 -24.5t-24.5 -8.5t-24 8t-17 25l-64 218q-2 11 -4.5 23t-2.5 28z" />
<glyph unicode="&#x47f;" horiz-adv-x="1611" d="M96 597v459h194q42 0 60.5 -24.5t18.5 -55.5v-348q0 -118 42 -211t109 -161q31 34 58.5 75t47.5 88t32 99.5t12 108.5v429h192q43 0 61.5 -24.5t18.5 -55.5v-339q0 -112 39.5 -208t110.5 -173q32 34 61.5 78t52.5 100t36.5 126t13.5 155q0 61 -6.5 105.5t-14 77 t-14.5 55.5t-7 41q0 24 15 43t44 19h213q20 -94 30.5 -175t10.5 -162q0 -119 -20.5 -220.5t-59 -189t-94.5 -163.5t-126 -146h-166q-22 0 -35 8t-30 27q-52 55 -102 128.5t-89 160.5q-38 -85 -87.5 -159t-102.5 -131q-8 -9 -14 -15.5t-12 -10.5t-14 -6t-20 -2h-170 q-59 58 -112 128t-92 146t-62 158t-23 165zM343 1414h925q0 -16 -2 -27t-5 -23l-69 -219q-5 -16 -17 -24.5t-24.5 -8.5t-23.5 8t-16 25l-40 134h-182l-43 -134q-5 -16 -17 -24.5t-24.5 -8.5t-23.5 8t-16 25l-40 134h-186l-43 -134q-5 -16 -16.5 -24.5t-24.5 -8.5t-24 8 t-17 25l-64 218q-2 11 -4.5 23t-2.5 28z" />
<glyph unicode="&#x480;" horiz-adv-x="1300" d="M72 743q0 111 24.5 211t69.5 184t110.5 151.5t147.5 115t178.5 72.5t206.5 25q82 0 155 -14t136.5 -40t117.5 -62t97 -79l-104 -142q-9 -13 -23 -23t-39 -10q-26 0 -50.5 17t-61.5 38.5t-91 39t-139 17.5q-93 0 -170.5 -33.5t-133.5 -97.5t-86.5 -157.5t-30.5 -212.5 q0 -120 32.5 -213.5t89.5 -158t135.5 -97.5t169.5 -33q62 0 98 5.5t58.5 11.5t39.5 11.5t42 5.5h87v-543q0 -38 -22.5 -60t-57.5 -22h-177v345q-26 -2 -50 -2.5t-39 -0.5q-167 0 -300.5 55.5t-226.5 155.5t-143 238t-50 302z" />
<glyph unicode="&#x481;" horiz-adv-x="963" d="M61 529q0 116 34 215.5t99.5 172t162.5 114t224 41.5q121 0 212 -39t163 -112l-73 -101q-12 -16 -24.5 -25t-35.5 -9q-20 0 -39 12t-43.5 26t-58.5 25.5t-84 11.5q-63 0 -110 -23t-77.5 -66t-45.5 -104.5t-15 -138.5q0 -162 65 -247.5t178 -85.5q36 0 60 5.5t40 11.5 t25.5 11.5t16.5 5.5h108v-499q0 -38 -22.5 -60t-57.5 -22h-176v337q-11 -1 -23 -1h-23q-97 0 -184.5 36t-153 106t-104 171t-38.5 231z" />
<glyph unicode="&#x482;" horiz-adv-x="1505" d="M25 723l138 201l369 -253l211 306l-370 254l139 201l370 -254l224 326l236 -152l-229 -333l368 -253l-139 -201l-367 253l-211 -307l369 -253l-140 -201l-368 253l-226 -327l-235 152l230 334z" />
<glyph unicode="&#x483;" horiz-adv-x="0" d="M-34 1248q0 38 12.5 66t33.5 46t49.5 27t61.5 9h501v101h73q31 0 59 -9t49.5 -27.5t34.5 -46.5t13 -63q0 -39 -12.5 -67t-34 -45.5t-50 -26t-60.5 -8.5h-500v-101h-74q-31 0 -59 9t-49.5 27.5t-34.5 45.5t-13 63z" />
<glyph unicode="&#x484;" horiz-adv-x="0" d="M-5 1186v166q67 0 119 11t96 27.5t82.5 36.5t78.5 36.5t85 27.5t101 11q81 0 137.5 -20t91.5 -60t51 -98.5t16 -136.5h-200q0 45 -10 73.5t-26.5 44.5t-37 22t-43.5 6q-39 0 -72.5 -10.5t-67.5 -27t-70.5 -36t-83.5 -36t-107 -27t-140 -10.5z" />
<glyph unicode="&#x485;" horiz-adv-x="0" d="M273 1373q0 77 41 119t121 42q66 0 101.5 -36t35.5 -91q0 -22 -7 -41.5t-23.5 -35.5t-43.5 -25.5t-67 -9.5h-11t-10 1q5 -31 24.5 -46.5t55.5 -23.5q32 -7 44.5 -17t12.5 -27v-54q-70 -1 -121 18.5t-85 53t-51 78.5t-17 95z" />
<glyph unicode="&#x486;" horiz-adv-x="0" d="M273 1406q0 55 35.5 90.5t102.5 35.5q40 0 70 -14t50.5 -37.5t30.5 -55.5t10 -70q0 -50 -16.5 -92t-51 -73t-85.5 -47.5t-120 -16.5v55q0 16 12.5 26.5t42.5 16.5q40 8 59.5 23.5t22.5 48.5q-5 -1 -10 -1.5t-11 -0.5q-40 0 -67 9.5t-43.5 24.5t-24 35.5t-7.5 42.5z" />
<glyph unicode="&#x488;" horiz-adv-x="2330" d="M60 567q0 58 18 108t54 86t89.5 56t125.5 20t125.5 -20t90 -56t54.5 -85.5t18 -108.5h-198q0 50 -17.5 75t-72.5 25t-72.5 -25t-17.5 -75h-197zM258 109q0 58 18 107t54 85t89.5 56t125.5 20t126 -20t90 -56t54 -85t18 -107h-197q0 49 -18 73.5t-73 24.5t-72 -24.5 t-17 -73.5h-198zM258 1026q0 58 18 107.5t54 85t89.5 55.5t125.5 20t126 -20t90 -55.5t54 -85t18 -107.5h-197q0 50 -18 74t-73 24t-72 -24t-17 -74h-198zM878 -245q0 58 17.5 107.5t53.5 85.5t89.5 56t125.5 20t126.5 -20t90 -56t53.5 -85t18 -108h-197q0 49 -17.5 74 t-73.5 25q-54 0 -71.5 -25t-17.5 -74h-197zM878 1379q0 58 17.5 108t53.5 86t89.5 56t125.5 20t126.5 -20t90 -56t53.5 -85.5t18 -108.5h-197q0 50 -17.5 75t-73.5 25q-54 0 -71.5 -24.5t-17.5 -75.5h-197zM1498 109q0 58 18 107t54 85t89.5 56t125.5 20t125.5 -20t90 -56 t54.5 -85t18 -107h-198q0 49 -18 73.5t-72 24.5q-55 0 -72.5 -24.5t-17.5 -73.5h-197zM1498 1026q0 58 18 107.5t54 85t89.5 55.5t125.5 20t125.5 -20t90 -55.5t54.5 -85t18 -107.5h-198q0 50 -18 74t-72 24q-55 0 -72.5 -24t-17.5 -74h-197zM1696 567q0 58 18 108t53.5 86 t89 56t125.5 20t126 -20t90 -56t54 -85.5t18 -108.5h-197q0 50 -17.5 75t-73.5 25q-55 0 -72 -25t-17 -75h-197z" />
<glyph unicode="&#x489;" horiz-adv-x="2249" d="M41 736l41 42q14 18 37 19q8 0 18 -6.5t19 -14.5q11 -10 27 -24.5t36 -29t44 -27t50 -18.5q1 30 13.5 54.5t32.5 42t46.5 27t57.5 9.5q28 0 52.5 -10t43 -28.5t28.5 -45t10 -56.5q0 -37 -14 -64.5t-37 -46t-53 -28t-64 -9.5q-45 0 -96 14t-102.5 41t-100 67t-89.5 92z M302 4q-2 13 1.5 22t11.5 17q6 6 17.5 8.5t22.5 2.5q15 1 37.5 2t47 5.5t50 12.5t49.5 23q-20 22 -29.5 47.5t-8 51.5t13.5 51.5t34 47.5q19 19 43.5 29t51 9.5t52 -12t47.5 -32.5q27 -27 38 -56t7.5 -58.5t-18 -56.5t-39.5 -50q-32 -32 -78 -58t-101 -43t-118.5 -23 t-129.5 2zM410 1352q-6 62 3 128l59 2q13 2 22 -1.5t18 -12.5q6 -5 9 -16t2 -22q1 -15 2 -37t5.5 -46.5t12 -50.5t21.5 -50q23 19 49 28.5t52.5 8t52 -13.5t47.5 -33q19 -19 29.5 -43.5t10 -50t-12 -51t-33.5 -48.5q-28 -27 -57 -36.5t-59 -6t-57.5 17.5t-51.5 38 q-32 32 -58 78t-43 101t-23 117zM975 -7q0 28 10 52t29 41t45 27.5t58 10.5q38 0 66 -13.5t46.5 -36t28 -52t9.5 -62.5q0 -45 -14 -96t-41 -102t-67.5 -99.5t-93.5 -88.5l-43 40q-11 8 -15 16.5t-4 20.5q0 8 5.5 17t14.5 18q10 11 25.5 27.5t29.5 37t27 44.5t19 51 q-31 1 -55.5 13t-42.5 31.5t-27.5 45.5t-9.5 57zM988 1355q0 45 14 96t41.5 102t68 99.5t92.5 88.5l44 -40q11 -8 15 -16.5t4 -20.5q0 -8 -6.5 -17.5t-14.5 -17.5l-25 -27.5t-29 -37t-27 -44.5t-19 -52q30 -1 55 -12.5t43 -31t27.5 -45.5t9.5 -57q0 -28 -10 -52t-29 -41.5 t-45.5 -27.5t-57.5 -10q-39 0 -67.5 13.5t-46.5 36t-27.5 52t-9.5 62.5zM1451.5 172q0.5 26 12 51.5t33.5 47.5q27 26 56.5 36t58.5 7t57.5 -17t51.5 -38q32 -33 58 -78.5t43 -100.5t23 -117t-2 -128l-60 -2q-13 -2 -22 1.5t-17 11.5q-6 5 -9 16.5t-2 22.5q-1 15 -2 37.5 t-5.5 47t-12.5 50t-22 49.5q-23 -20 -48.5 -29t-52 -7.5t-53 13t-47.5 33.5q-19 19 -29 43t-9.5 50zM1466 1140q3 29 18.5 56.5t39.5 50.5q32 32 78.5 58t101.5 43t118 23t130 -2l2 -58q1 -13 -2 -22t-13 -17q-5 -6 -16.5 -8.5t-22.5 -2.5q-15 -1 -37 -2.5t-46.5 -5.5 t-50.5 -12t-50 -23q20 -22 29.5 -47.5t8 -51.5t-13 -52t-33.5 -47q-20 -19 -44.5 -29t-50.5 -9.5t-52 12t-49 32.5q-27 27 -37.5 56t-7.5 58zM1659 645q0 37 14 64.5t37 46t52.5 28t63.5 9.5q45 0 96 -14t103 -41t100.5 -67t89.5 -92l-41 -42q-15 -18 -38 -19q-8 0 -18 6 t-18 15q-11 10 -27 24.5t-36.5 28.5t-44.5 27t-50 19q-1 -30 -13 -54.5t-32 -42t-46.5 -27t-57.5 -9.5q-29 0 -53.5 10t-42.5 28.5t-28 44.5t-10 57z" />
<glyph unicode="&#x48a;" horiz-adv-x="1664" d="M156 0v1486h309v-886q0 -55 -3 -116t-12 -129q23 60 48 112.5t49 91.5l515 834q10 16 24.5 33t31.5 30t37 21.5t42 8.5h231v-1254h209l-164 -582h-301l110 350h-163v886q0 55 3 116t13 128q-23 -60 -48.5 -112t-49.5 -91l-515 -833q-10 -17 -24.5 -33.5t-31 -30.5 t-36.5 -22t-43 -8h-231zM460 1784q0 28 13.5 52.5t43.5 24.5h167q0 -46 5.5 -75.5t19.5 -47t38 -24t61 -6.5t61 6.5t38 24t19.5 47t5.5 75.5h167q30 0 43.5 -25t13.5 -52q0 -53 -25 -93t-71 -67.5t-110 -40.5t-142 -13t-142 13t-110 40.5t-71 67.5t-25 93z" />
<glyph unicode="&#x48b;" horiz-adv-x="1293" d="M117 -1v1056h282v-581q0 -25 -3 -55.5t-8 -60.5q12 27 24.5 49.5t24.5 39.5q1 2 18 27t43.5 63t60 86.5t68.5 98.5q81 117 184 265q15 25 41.5 47t58.5 22h172v-850h201l-157 -556h-264l110 350h-172v581q0 24 2.5 54t7.5 59q-24 -51 -48 -87q-2 -2 -18.5 -26.5t-43 -63 t-60 -86.5t-68.5 -98q-81 -117 -183 -265q-8 -12 -19 -24t-23.5 -22.5t-27 -16.5t-30.5 -6h-173zM267 1409q0 28 14 52.5t44 24.5h167q0 -46 5.5 -76.5t19 -49t38 -26t60.5 -7.5q37 0 61 7.5t38 26t19.5 49t5.5 76.5h167q30 0 44 -24.5t14 -52.5q0 -53 -25.5 -95.5 t-71.5 -72.5t-110 -45.5t-142 -15.5t-141.5 15.5t-110 45.5t-71.5 72.5t-25 95.5z" />
<glyph unicode="&#x48c;" horiz-adv-x="1392" d="M35 1074v223h239v189h308v-189h352v-223h-352v-193h223q148 0 253.5 -33t171.5 -89.5t97 -130.5t31 -158q0 -106 -37.5 -193t-108 -148t-173.5 -95t-234 -34h-531v1074h-239zM582 236h223q73 0 121 16t76.5 44.5t40.5 65t12 77.5q0 46 -12 84t-40 65t-76 41.5t-122 14.5 h-223v-408z" />
<glyph unicode="&#x48d;" horiz-adv-x="1089" d="M39 768v197h170v117h267v-117h215v-197h-215v-95h172q111 0 188 -27.5t125.5 -73t70 -105t21.5 -126.5q0 -76 -27.5 -138.5t-79 -107.5t-126 -70t-169.5 -25h-442v768h-170zM476 198h174q75 0 113.5 40t38.5 102q0 27 -9 51.5t-27 43t-47.5 29.5t-69.5 11h-173v-277z" />
<glyph unicode="&#x48e;" horiz-adv-x="1284" d="M156 0v1486h501q153 0 264 -36t183 -100t106 -152t34 -191q0 -140 -58 -248t-175 -172l85 -131l-185 -115l-115 179q-65 -9 -139 -9h-194v-511h-307zM463 746h186l-89 138l183 114l121 -186q37 34 54.5 83t17.5 112q0 55 -17 100.5t-51 78t-86.5 49.5t-124.5 17h-194 v-506z" />
<glyph unicode="&#x48f;" horiz-adv-x="1169" d="M117 -341v1397h174q53 0 70 -49l22 -89q32 35 67.5 64t76.5 50t88.5 32.5t102.5 11.5q85 0 156 -36t122.5 -105.5t80 -169.5t28.5 -229q0 -150 -50.5 -270t-142.5 -192l103 -158l-185 -115l-120 188q-14 -2 -28.5 -3t-29.5 -1q-86 0 -146 25.5t-107 69.5v-421h-282z M399 279q38 -43 82 -62t94 -21l-96 148l184 115l103 -160q24 42 36 100.5t12 136.5q0 88 -14 149t-39 99t-60.5 55t-79.5 17q-75 0 -126 -29t-96 -86v-462z" />
<glyph unicode="&#x490;" horiz-adv-x="1112" d="M156 0v1486h688v328h237v-561h-616v-1253h-309z" />
<glyph unicode="&#x491;" horiz-adv-x="867" d="M117 0v1056h472v251h256v-457h-446v-850h-282z" />
<glyph unicode="&#x492;" horiz-adv-x="1230" d="M34 645v224h239v617h926v-233h-616v-384h351v-224h-351v-645h-310v645h-239z" />
<glyph unicode="&#x493;" horiz-adv-x="961" d="M39 422v196h170v438h728v-206h-445v-232h200v-196h-200v-422h-283v422h-170z" />
<glyph unicode="&#x494;" horiz-adv-x="1304" d="M156 0v1486h925v-233h-616v-422q57 26 117.5 39.5t131.5 13.5q109 0 208 -30.5t175.5 -100.5t122 -183.5t45.5 -279.5q0 -153 -41 -274t-115 -206t-177.5 -131t-229.5 -46q-57 0 -111.5 7t-114.5 21q4 45 7.5 90t9.5 90q2 25 18.5 40t46.5 15q17 0 45 -6.5t67 -6.5 q69 0 125 21.5t96 69.5t62 122t22 180q0 114 -24 189t-66.5 119.5t-101.5 63t-129 18.5q-65 0 -108 -15.5t-81 -37.5v-613h-309z" />
<glyph unicode="&#x495;" horiz-adv-x="1029" d="M117 0v1056h728v-206h-446v-294q46 32 98 49t116 17q93 0 164 -34t117.5 -95.5t70 -146t23.5 -185.5q0 -121 -32 -218.5t-89 -166.5t-135 -106.5t-168 -37.5q-44 0 -85 5t-87 16q2 22 4 37.5t3.5 30.5t4 31.5t4.5 37.5q2 24 17 37t43 13q11 0 28 -3t38 -3q38 0 69.5 14.5 t54 49.5t35 96t12.5 153q0 81 -12.5 133t-35.5 82t-57 41.5t-76 11.5t-70 -11.5t-55 -29.5v-374h-282z" />
<glyph unicode="&#x496;" horiz-adv-x="2306" d="M-5 0l365 625q39 66 83.5 104.5t101.5 58.5q-46 18 -79.5 50.5t-64.5 81.5l-362 566h244q46 0 85.5 -22.5t62.5 -62.5l276 -455q26 -45 57.5 -59.5t71.5 -14.5h123v614h290v-614h124q41 0 72.5 14.5t57.5 59.5l276 455q24 40 63 62.5t85 22.5h244l-363 -566 q-31 -48 -64 -80.5t-79 -51.5q56 -20 100.5 -59t82.5 -104l231 -393h227v-496q0 -39 -27 -62.5t-70 -23.5h-186v350h-14q-67 0 -114.5 28t-74.5 76l-275 457q-27 46 -61 64.5t-83 18.5h-152v-644h-290v644h-150q-50 0 -84 -18.5t-60 -64.5l-275 -457q-29 -48 -76 -76 t-114 -28h-205z" />
<glyph unicode="&#x497;" horiz-adv-x="1788" d="M12 0l235 435q26 47 58.5 78t84.5 47q-38 14 -64.5 40t-52.5 68l-234 388h222q39 0 71.5 -20t50.5 -53l161 -292q17 -33 41 -47.5t67 -14.5h61v427h273v-427h55q43 0 70 14.5t44 47.5l161 292q17 33 50 53t72 20h222l-236 -388q-25 -42 -51 -68t-64 -40q52 -16 84.5 -47 t57.5 -78l124 -229h197v-474q0 -38 -23 -60t-57 -22h-178v350h-22q-75 0 -114 22.5t-61 72.5l-136 280q-17 37 -48.5 54.5t-71.5 17.5h-75v-447h-273v447h-75q-40 0 -71 -17.5t-49 -54.5l-136 -280q-23 -50 -61.5 -72.5t-113.5 -22.5h-195z" />
<glyph unicode="&#x498;" horiz-adv-x="1196" d="M15 181l91 146q11 16 29.5 27t39.5 11q29 0 61.5 -20.5t76.5 -45.5t104.5 -45.5t144.5 -20.5q127 0 197.5 53.5t70.5 171.5q0 47 -19.5 84.5t-55.5 63t-87.5 38.5t-112.5 12h-213l-1 244h190q128 0 196 47t68 137q0 79 -63 125t-186 46q-71 0 -123 -15t-90.5 -34 t-66.5 -34.5t-51 -15.5q-24 0 -39 11t-30 33l-75 145q87 74 208.5 115.5t268.5 41.5q123 0 221.5 -28.5t168.5 -80.5t107 -124t37 -159q0 -102 -45.5 -187t-140.5 -140q49 -25 90.5 -57.5t70.5 -72.5t45.5 -86t16.5 -97q0 -89 -29 -168.5t-86 -142.5t-140 -105.5t-189 -58.5 q52 -27 80 -68t28 -87q0 -42 -15 -77.5t-44.5 -62t-71.5 -41t-94 -14.5q-58 0 -110 14.5t-86 37.5l42 102q7 17 26 18q5 0 10 -1.5t12.5 -4t18 -4.5t28.5 -2q44 0 65 27.5t21 64.5q0 26 -8.5 50t-36.5 39q-76 1 -150.5 15.5t-142 40.5t-127 61t-105.5 78z" />
<glyph unicode="&#x499;" horiz-adv-x="923" d="M29 161l82 102q18 25 51 25q26 0 47 -14.5t48.5 -32t64 -31.5t92.5 -14q88 0 131.5 38.5t43.5 98.5q0 58 -46 91t-152 33h-119v179h119q93 0 142 31.5t49 85.5q0 49 -43 78.5t-124 29.5q-52 0 -88 -10.5t-62 -23t-45 -23t-37 -10.5q-19 0 -33 7t-29 32l-64 106 q61 59 150.5 96t215.5 37q98 0 175.5 -23.5t130.5 -63t81 -91t28 -108.5q0 -30 -9 -61.5t-28.5 -61.5t-51 -56.5t-78.5 -45.5q83 -33 134.5 -95.5t51.5 -156.5q0 -61 -23.5 -112.5t-63.5 -90t-93 -66t-114 -40.5q57 -27 88 -69t31 -91q0 -42 -15.5 -77.5t-44.5 -62t-71 -41 t-94 -14.5q-58 0 -110 14.5t-86 37.5l42 102q8 18 26 18q5 0 10 -1.5t12 -4t18 -4.5t28 -2q44 0 65 27.5t21 64.5q0 26 -8 49.5t-35 38.5h-7q-44 0 -95.5 7.5t-105 27.5t-106 54.5t-97.5 86.5z" />
<glyph unicode="&#x49a;" horiz-adv-x="1520" d="M156 0v1486h307v-614h134q40 0 69.5 14.5t55.5 53.5l300 465q22 36 52.5 58.5t73.5 22.5h263l-385 -591q-26 -40 -60.5 -66t-76.5 -42q66 -17 110.5 -56.5t84.5 -109.5l228 -389h201v-496q0 -39 -26.5 -62.5t-69.5 -23.5h-185v350h-65q-42 0 -70.5 22t-53.5 65l-283 483 q-12 22 -26 36.5t-30 23t-36 11.5t-44 3h-161v-644h-307z" />
<glyph unicode="&#x49b;" horiz-adv-x="1224" d="M117 0v1056h282v-427h74q43 0 67 14.5t42 47.5l161 292q20 32 56 52.5t74 20.5h224l-236 -388q-26 -43 -52.5 -68.5t-64.5 -39.5q52 -16 85 -47t59 -78l123 -229h195v-474q0 -38 -22.5 -60t-57.5 -22h-176v350h-22q-37 0 -65 6t-50 18.5t-38.5 30t-31.5 40.5l-135 280 q-17 37 -49 54.5t-72 17.5h-88v-447h-282z" />
<glyph unicode="&#x49c;" horiz-adv-x="1548" d="M156 0v1486h307v-614h99v284h216v-278q24 6 43 20.5t33 41.5l259 465q19 37 51 59t75 22h254l-352 -591q-24 -39 -55.5 -65t-70.5 -42q66 -17 111 -56.5t81 -110.5l324 -621h-281q-84 0 -124 87l-243 483q-18 38 -43.5 53.5t-61.5 19.5v-251h-216v252h-99v-644h-307z" />
<glyph unicode="&#x49d;" horiz-adv-x="1231" d="M117 0v1056h282v-427h62v226h188v-217q34 13 50 53l121 292q6 17 20.5 31t32.5 23.5t38 14t39 4.5h224l-196 -388q-22 -43 -48 -69t-63 -39q51 -16 83.5 -46.5t54.5 -78.5l195 -435h-194q-76 0 -123 21.5t-62 73.5l-96 280q-9 27 -29 43t-47 23v-251h-188v257h-62v-447 h-282z" />
<glyph unicode="&#x49e;" horiz-adv-x="1564" d="M35 1074v223h239v189h308v-189h254v-223h-254v-202h134q40 0 69.5 14.5t55.5 53.5l300 465q22 36 52.5 58.5t73.5 22.5h263l-385 -591q-26 -40 -60.5 -66t-76.5 -42q66 -17 110.5 -56.5t84.5 -109.5l364 -621h-281q-42 0 -70.5 22t-53.5 65l-283 483q-12 22 -26 36.5 t-30 23t-36 11.5t-45 3h-160v-644h-308v1074h-239z" />
<glyph unicode="&#x49f;" horiz-adv-x="1225" d="M39 768v197h170v91h281v-91h165v-197h-165v-139h75q43 0 66.5 14.5t41.5 47.5l162 292q20 32 55.5 52.5t74.5 20.5h223l-236 -388q-26 -42 -52.5 -68t-63.5 -40q52 -16 84.5 -47t58.5 -78l235 -435h-195q-37 0 -65 6t-49.5 18.5t-38.5 30t-30 40.5l-137 280 q-17 37 -49 54.5t-71 17.5h-89v-447h-281v768h-170z" />
<glyph unicode="&#x4a0;" horiz-adv-x="1736" d="M30 1245v241h724v-614h133q41 0 70.5 14.5t54.5 53.5l300 465q23 36 53.5 58.5t73.5 22.5h262l-384 -591q-26 -40 -60.5 -66t-76.5 -42q66 -17 110.5 -56.5t84.5 -109.5l364 -621h-281q-42 0 -71 22t-53 65l-284 483q-12 22 -26 36.5t-30 23t-35.5 11.5t-44.5 3h-160 v-644h-308v1245h-416z" />
<glyph unicode="&#x4a1;" horiz-adv-x="1359" d="M25 847v209h600v-427h73q43 0 67.5 14.5t41.5 47.5l161 292q20 32 56 52.5t75 20.5h222l-236 -388q-25 -42 -51 -68t-64 -40q52 -16 84.5 -47t57.5 -78l236 -435h-195q-37 0 -65 6t-50 18.5t-38.5 30t-30.5 40.5l-136 280q-17 37 -48.5 54.5t-71.5 17.5h-88v-447h-283 v847h-317z" />
<glyph unicode="&#x4a2;" horiz-adv-x="1688" d="M156 0v1486h309v-631h654v631h309v-1254h207v-496q0 -39 -26.5 -62.5t-69.5 -23.5h-185v350h-235v640h-654v-640h-309z" />
<glyph unicode="&#x4a3;" horiz-adv-x="1280" d="M117 0v1056h282v-392h373v392h282v-850h194v-474q0 -38 -22.5 -60t-57.5 -22h-177v350h-219v458h-373v-458h-282z" />
<glyph unicode="&#x4a4;" horiz-adv-x="2075" d="M156 0v1486h309v-631h654v631h926v-233h-617v-1253h-309v640h-654v-640h-309z" />
<glyph unicode="&#x4a5;" horiz-adv-x="1522" d="M117 0v1056h282v-392h373v392h727v-206h-445v-850h-282v458h-373v-458h-282z" />
<glyph unicode="&#x4a6;" horiz-adv-x="2220" d="M156 0v1486h1223v-655q57 26 118 39.5t131 13.5q109 0 208 -30.5t175.5 -100.5t122 -183.5t45.5 -279.5q0 -153 -41 -274t-114.5 -206.5t-177 -131.5t-229.5 -46q-56 0 -111.5 7t-114.5 21q4 45 7.5 90t8.5 91q3 24 19.5 39t47.5 15q17 0 44 -6.5t66 -6.5q69 0 125 22 t96 69t62 122t22 181q0 114 -24 189t-66.5 119.5t-101.5 63t-128 18.5q-65 0 -109 -15.5t-81 -37.5v-613h-309v1253h-605v-1253h-309z" />
<glyph unicode="&#x4a7;" horiz-adv-x="1678" d="M117 0v1056h937v-500q46 32 98 49t116 17q93 0 163.5 -34t117 -95.5t70 -146t23.5 -185.5q0 -121 -32 -218.5t-89 -166.5t-134.5 -106.5t-167.5 -37.5q-44 0 -85 5t-87 16q2 22 4 37.5t3.5 30.5t3.5 31.5t4 37.5q2 24 17.5 37t42.5 13q11 0 28 -3t38 -3q38 0 69.5 14.5 t54 49.5t35.5 96t13 153q0 81 -12.5 133t-36 82t-57 41.5t-75.5 11.5t-70 -12t-55 -29v-374h-282v850h-373v-850h-282z" />
<glyph unicode="&#x4a8;" horiz-adv-x="1690" d="M71 743q0 167 50.5 306.5t149 240t242 156t330.5 55.5q35 0 65 -2.5t58.5 -7t58 -12.5t61.5 -17l-17 -114q-3 -23 -10.5 -44t-19.5 -37.5t-27.5 -26t-32.5 -9.5t-33.5 2t-36 4.5t-44 4.5t-58.5 2q-93 0 -171 -33.5t-134 -97.5t-86.5 -157.5t-30.5 -212.5 q0 -120 31 -213.5t88 -158t138 -97.5t181 -33h18.5t17.5 1q-60 80 -96.5 189.5t-36.5 254.5q0 106 24.5 191.5t73.5 144t122.5 90.5t169.5 32q103 0 178 -36t123 -98.5t70.5 -146.5t22.5 -180q0 -137 -46 -253t-127 -206q20 -2 37.5 -3t31.5 -1q28 0 49.5 2t39.5 4.5 t34.5 4.5t33.5 2q35 0 61.5 -24t32.5 -70l17 -113q-63 -19 -137.5 -28.5t-144.5 -9.5q-68 0 -142.5 15t-148.5 48q-73 -33 -152.5 -50t-162.5 -17q-162 0 -294 56.5t-225.5 158t-144.5 241t-51 303.5zM998 678q0 -126 30.5 -209t77.5 -133q68 61 100 149t32 191q0 41 -5 84 t-18 78t-36 58.5t-60 23.5q-54 0 -87.5 -59t-33.5 -183z" />
<glyph unicode="&#x4a9;" horiz-adv-x="1297" d="M60 529q0 116 34 215.5t100 172t163 114t224 41.5q44 0 87.5 -6.5t84.5 -22.5l-18 -113q-6 -45 -27 -58.5t-56 -13.5q-11 0 -26 1.5t-28 1.5q-63 0 -110 -23t-77.5 -66t-45.5 -104.5t-15 -138.5q0 -80 19 -143.5t55.5 -108.5t90 -69t123.5 -24q-56 68 -86.5 153 t-30.5 183q0 80 24.5 142.5t69 104.5t106.5 64t138 22t140 -25t110 -69t71 -104.5t25 -131.5q0 -93 -41.5 -179.5t-112.5 -158.5q10 -1 20 -1.5t22 -0.5q26 0 39.5 3.5t27.5 4.5q45 0 66 -16.5t28 -60.5l16 -108q-33 -10 -77.5 -16t-93.5 -6q-75 0 -142.5 14t-126.5 41 q-62 -27 -128 -40.5t-135 -13.5q-103 0 -195 36t-161.5 106t-110 171t-40.5 231zM785 515q0 -68 21 -127.5t61 -105.5q37 44 56 101t19 122q0 62 -20 96t-59 34t-58.5 -32.5t-19.5 -87.5z" />
<glyph unicode="&#x4aa;" horiz-adv-x="1349" d="M71 743q0 111 24 211t70 184t111 151.5t147 115t178.5 72.5t206.5 25q82 0 155 -14t136.5 -40t117.5 -62t97 -79l-104 -142q-9 -13 -23.5 -23t-38.5 -10q-25 0 -50 17t-61.5 38.5t-91 39t-138.5 17.5q-93 0 -171 -33.5t-134 -97.5t-86.5 -157.5t-30.5 -212.5 q0 -120 33.5 -213.5t91 -158t135 -97.5t165.5 -33q52 0 94.5 5t79 17t68.5 31.5t65 49.5q11 9 23.5 15.5t26.5 6.5q26 0 43 -19l122 -130q-78 -99 -189.5 -157t-260.5 -72q47 -27 71.5 -66t24.5 -82q0 -42 -15.5 -77.5t-44.5 -62t-71 -41t-94 -14.5q-58 0 -110 14.5 t-86 37.5l42 102q7 17 26 18q5 0 10 -1.5t12 -4t18 -4.5t28 -2q44 0 65 27.5t21 64.5q0 26 -8 50t-36 39q-155 9 -277.5 69.5t-208.5 160.5t-132 235t-46 292z" />
<glyph unicode="&#x4ab;" horiz-adv-x="991" d="M61 529q0 116 34 215.5t99.5 172t162.5 114t224 41.5q121 0 212 -39t163 -112l-73 -101q-12 -16 -24.5 -25t-35.5 -9q-20 0 -39 12t-43.5 26t-58.5 25.5t-84 11.5q-63 0 -110 -23t-77.5 -66t-45.5 -104.5t-15 -138.5q0 -162 65 -247.5t178 -85.5q39 0 67 6.5t49 16.5 t36.5 22.5t29 22.5t27.5 17t32 7q33 0 51 -25l81 -102q-62 -73 -135.5 -111t-151.5 -53q55 -27 84.5 -68t29.5 -89q0 -42 -15.5 -77.5t-45 -62t-71 -41t-94.5 -14.5q-58 0 -109.5 14.5t-85.5 37.5l42 102q7 17 25 18q5 0 10.5 -1.5t12.5 -4t17.5 -4.5t28.5 -2q44 0 65 27.5 t21 64.5q0 26 -8 49.5t-35 38.5h-10q-97 0 -184.5 36t-153 106t-104 171t-38.5 231z" />
<glyph unicode="&#x4ac;" horiz-adv-x="1245" d="M31 1238v248h1176v-248h-434v-1006h207v-496q0 -39 -27 -62.5t-70 -23.5h-186v350h-232v1238h-434z" />
<glyph unicode="&#x4ad;" horiz-adv-x="1068" d="M23 850v206h1011v-206h-364v-644h194v-474q0 -38 -22.5 -60t-57.5 -22h-177v350h-220v850h-364z" />
<glyph unicode="&#x4ae;" horiz-adv-x="1340" d="M-24 1486h272q39 0 63 -19t39 -49l244 -468q25 -47 44.5 -88.5t34.5 -81.5q14 41 33 82.5t43 87.5l241 468q12 25 37.5 46.5t64.5 21.5h272l-540 -914v-572h-308v572z" />
<glyph unicode="&#x4af;" horiz-adv-x="1087" d="M1 1056h233q31 0 51.5 -15t28.5 -36l179 -475q18 -49 31 -96t23 -95q10 47 24 94.5t33 96.5l182 475q8 22 28.5 36.5t48.5 14.5h223l-401 -975v-422h-283v422z" />
<glyph unicode="&#x4b0;" horiz-adv-x="1375" d="M-6 1486h271q39 0 62 -19.5t41 -48.5l243 -414q26 -43 45.5 -78t33.5 -68q14 33 32.5 68t43.5 78l242 414q7 12 16 24t21.5 22t28 16t34.5 6h273l-539 -829v-56h301v-223h-301v-378h-308v378h-302v223h302v56z" />
<glyph unicode="&#x4b1;" horiz-adv-x="1095" d="M5 1056h234q31 0 51 -15t28 -36l179 -475q18 -49 31 -96t23 -95q10 47 24 94.5t33 96.5l183 475q8 22 28 36.5t48 14.5h224l-402 -975v-57h203v-197h-203v-168h-282v168h-203v197h203v57z" />
<glyph unicode="&#x4b2;" horiz-adv-x="1441" d="M-5 0l486 765l-468 721h308q31 0 45 -8.5t25 -26.5l320 -525q5 12 11 25t14 26l287 469q12 20 27 30t36 10h294l-472 -708l340 -546h172v-496q0 -39 -26.5 -62.5t-69.5 -23.5h-185v350h-54q-31 0 -49.5 15.5t-29.5 35.5l-322 547q-5 -11 -9.5 -22t-10.5 -20l-306 -505 q-13 -19 -31 -35t-45 -16h-287z" />
<glyph unicode="&#x4b3;" horiz-adv-x="1165" d="M-3 0l358 545l-344 511h272q31 0 45 -8.5t25 -26.5l207 -335q5 17 13.5 35t19.5 36l159 259q25 40 63 40h259l-344 -499l226 -351h191v-474q0 -38 -22.5 -60t-57.5 -22h-177v350h-73q-31 0 -49.5 15.5t-30.5 35.5l-208 347q-9 -35 -26 -61l-178 -286q-12 -19 -30.5 -35 t-45.5 -16h-252z" />
<glyph unicode="&#x4b4;" horiz-adv-x="1929" d="M30 1245v241h1142v-241h-416v-1013h605v1254h309v-1254h207v-496q0 -39 -27 -62.5t-70 -23.5h-186v350h-1148v1245h-416z" />
<glyph unicode="&#x4b5;" horiz-adv-x="1504" d="M25 847v209h835v-209h-235v-641h371v850h283v-850h195v-474q0 -38 -23 -60t-57 -22h-177v350h-875v847h-317z" />
<glyph unicode="&#x4b6;" horiz-adv-x="1501" d="M75 994v492h309v-493q0 -80 25 -135t87 -81.5t168 -23.5t268 41v692h309v-1254h207v-496q0 -39 -26.5 -62.5t-69.5 -23.5h-186v350h-234v579q-121 -29 -231 -42.5t-205.5 -7t-173 35t-132.5 84.5t-85 140.5t-30 204.5z" />
<glyph unicode="&#x4b7;" horiz-adv-x="1199" d="M65 705v351h282v-310q0 -60 17.5 -98t58 -56t106 -16t161.5 20v460h283v-850h194v-474q0 -38 -22.5 -60t-57.5 -22h-177v350h-220v403q-136 -33 -250.5 -35t-198 31.5t-130 108.5t-46.5 197z" />
<glyph unicode="&#x4b8;" horiz-adv-x="1396" d="M75 994v492h309v-493q0 -50 9 -90.5t31 -70t58 -49t89 -26.5v307h216v-299q33 5 69.5 12t75.5 17v692h309v-1486h-309v579q-37 -8 -73 -16t-72 -14v-249h-216v227q-111 -2 -202 22t-157 79.5t-101.5 145t-35.5 220.5z" />
<glyph unicode="&#x4b9;" horiz-adv-x="1088" d="M63 705v351h282v-310q0 -65 20 -103.5t67 -54.5v267h189v-270q31 4 68 12v459h282v-1056h-282v403q-17 -4 -34 -7.5t-34 -6.5v-199h-189v179q-84 -1 -152 17t-116 58.5t-74.5 104.5t-26.5 156z" />
<glyph unicode="&#x4ba;" horiz-adv-x="1346" d="M156 0v1486h309v-579q120 29 227 42.5t197 7t162.5 -35t123 -84.5t77.5 -141.5t27 -203.5v-492h-309v493q0 80 -19 135t-73.5 81.5t-153.5 23.5t-259 -41v-692h-309z" />
<glyph unicode="&#x4bb;" horiz-adv-x="1080" d="M117 0v1056h282v-404q136 33 251 36t198.5 -31t130 -108.5t46.5 -197.5v-351h-282v309q0 60 -17 98t-57.5 56t-106.5 16.5t-163 -20.5v-459h-282z" />
<glyph unicode="&#x4bc;" horiz-adv-x="1789" d="M2 966q0 46 10 88.5t33 94.5l164 -31q34 -6 46.5 -26t12.5 -36t-5 -37t-5 -46q0 -46 27 -63.5t75 -17.5h2q17 130 74.5 242.5t148.5 195.5t214.5 130.5t273.5 47.5q142 0 262 -45.5t207 -132t135 -212t48 -284.5q0 -45 -4 -74t-13.5 -45.5t-27 -23t-44.5 -6.5h-961 q19 -222 135.5 -330t316.5 -108q83 0 145.5 20.5t111.5 45.5t87.5 45.5t75.5 20.5q24 0 42.5 -10t29.5 -25l94 -114q-66 -74 -141.5 -122t-156.5 -76t-163 -38.5t-159 -10.5q-145 0 -273 45t-226 133.5t-160.5 220t-76.5 303.5h-3q-67 0 -129.5 12t-112.5 43t-80 85.5 t-30 140.5zM679 892h748q0 79 -23 146t-68 115.5t-111.5 76t-152.5 27.5t-153.5 -26t-116.5 -73.5t-80 -115t-43 -150.5z" />
<glyph unicode="&#x4bd;" horiz-adv-x="1364" d="M30 726q0 46 10 88.5t33 94.5l106 -21q33 -8 43.5 -26t10.5 -35q0 -16 -5.5 -36.5t-5.5 -48.5q0 -43 25.5 -65t88.5 -25q15 89 56.5 166t106.5 133.5t151 88.5t191 32q102 0 187.5 -32t147.5 -93.5t96.5 -151t34.5 -204.5q0 -32 -3.5 -52.5t-10.5 -32.5t-19 -17t-32 -5 h-634q13 -148 85 -216.5t187 -68.5q58 0 100.5 13.5t74.5 30.5t58 31t51 14q34 0 53 -25l80 -102q-45 -52 -99 -86.5t-112.5 -54.5t-117.5 -27.5t-114 -7.5q-103 0 -195 31.5t-161.5 94.5t-114 156.5t-54.5 216.5q-59 1 -113.5 10t-95.5 34.5t-65.5 72t-24.5 125.5zM613 652 h441q0 44 -12.5 84t-37.5 71t-64.5 48.5t-93.5 17.5q-100 0 -157.5 -57t-75.5 -164z" />
<glyph unicode="&#x4be;" horiz-adv-x="1789" d="M2 966q0 46 10 88.5t33 94.5l164 -31q34 -6 46.5 -26t12.5 -36t-5 -37t-5 -46q0 -46 27 -63.5t75 -17.5h2q17 130 74.5 242.5t148.5 195.5t214.5 130.5t273.5 47.5q142 0 262 -45.5t207 -132t135 -212t48 -284.5q0 -45 -4 -74t-13.5 -45.5t-27 -23t-44.5 -6.5h-961 q19 -222 135.5 -330t316.5 -108q83 0 145.5 20.5t111.5 45.5t87.5 45.5t75.5 20.5q24 0 42.5 -10t29.5 -25l94 -114q-50 -57 -106.5 -98t-117.5 -69.5t-123 -45.5t-125 -25v-333h-282v334q-122 18 -226 72t-183.5 141t-129.5 206.5t-63 272.5h-3q-67 0 -129.5 12t-112.5 43 t-80 85.5t-30 140.5zM679 892h748q0 79 -23 146t-68 115.5t-111.5 76t-152.5 27.5t-153.5 -26t-116.5 -73.5t-80 -115t-43 -150.5z" />
<glyph unicode="&#x4bf;" horiz-adv-x="1364" d="M30 726q0 46 10 88.5t33 94.5l106 -21q33 -8 43.5 -26t10.5 -35q0 -16 -5.5 -36.5t-5.5 -48.5q0 -43 25.5 -65t88.5 -25q15 89 56.5 166t106.5 133.5t151 88.5t191 32q102 0 187.5 -32t147.5 -93.5t96.5 -151t34.5 -204.5q0 -32 -3.5 -52.5t-10.5 -32.5t-19 -17t-32 -5 h-634q13 -148 85 -216.5t187 -68.5q58 0 100.5 13.5t74.5 30.5t58 31t51 14q34 0 53 -25l80 -102q-33 -38 -71 -66t-79 -48t-83.5 -33t-85.5 -20v-262q0 -38 -22.5 -60t-57.5 -22h-177v349q-80 17 -148 57t-120 101t-84 143t-40 184q-59 1 -113.5 10t-95.5 34.5t-65.5 72 t-24.5 125.5zM613 652h441q0 44 -12.5 84t-37.5 71t-64.5 48.5t-93.5 17.5q-100 0 -157.5 -57t-75.5 -164z" />
<glyph unicode="&#x4c0;" horiz-adv-x="620" d="M156 0v1486h309v-1486h-309z" />
<glyph unicode="&#x4c1;" horiz-adv-x="2211" d="M-4 0l365 625q39 66 83.5 104.5t101.5 58.5q-46 18 -79.5 50.5t-64.5 81.5l-362 566h244q46 0 85.5 -22.5t62.5 -62.5l276 -455q26 -45 57.5 -59.5t71.5 -14.5h124v614h289v-614h124q41 0 72.5 14.5t57.5 59.5l276 455q24 40 63 62.5t85 22.5h244l-363 -566 q-31 -48 -64 -80.5t-79 -51.5q56 -20 100.5 -59t82.5 -104l367 -625h-206q-67 0 -114.5 28t-74.5 76l-275 457q-27 46 -61 64.5t-83 18.5h-152v-644h-289v644h-151q-50 0 -84 -18.5t-60 -64.5l-275 -457q-29 -48 -76 -76t-114 -28h-205zM758 1784q0 28 14 52.5t44 24.5h167 q0 -46 5.5 -75.5t19.5 -47t38 -24t61 -6.5t61 6.5t37.5 24t19.5 47t6 75.5h166q30 0 44 -25t14 -52q0 -53 -25 -93t-71.5 -67.5t-110.5 -40.5t-141 -13q-78 0 -142 13t-110 40.5t-71.5 67.5t-25.5 93z" />
<glyph unicode="&#x4c2;" horiz-adv-x="1698" d="M12 0l235 435q26 47 58.5 78t84.5 47q-38 14 -64.5 40t-52.5 68l-234 388h222q39 0 71.5 -20t50.5 -53l161 -292q17 -33 41 -47.5t67 -14.5h61v427h273v-427h55q43 0 70 14.5t44 47.5l161 292q17 33 50 53t72 20h222l-236 -388q-25 -42 -51 -68t-64 -40q52 -16 84.5 -47 t57.5 -78l236 -435h-195q-75 0 -114 22.5t-61 72.5l-136 280q-17 37 -48.5 54.5t-71.5 17.5h-75v-447h-273v447h-75q-40 0 -71 -17.5t-49 -54.5l-136 -280q-23 -50 -61.5 -72.5t-113.5 -22.5h-195zM500 1409q0 28 14 52.5t44 24.5h167q0 -46 5.5 -76.5t19.5 -49t38 -26 t61 -7.5t61 7.5t37.5 26t19.5 49t6 76.5h166q30 0 44 -24.5t14 -52.5q0 -53 -25 -95.5t-71.5 -72.5t-110.5 -45.5t-141 -15.5q-78 0 -142 15.5t-110 45.5t-71.5 72.5t-25.5 95.5z" />
<glyph unicode="&#x4c3;" horiz-adv-x="1492" d="M156 0v1486h307v-614h134q40 0 69.5 14.5t55.5 53.5l300 465q22 36 52.5 58.5t73.5 22.5h263l-385 -591q-13 -20 -28 -36t-32 -31q89 -13 169 -47.5t141 -99t97.5 -163.5t36.5 -242q0 -147 -39.5 -265.5t-112 -200t-177 -125.5t-233.5 -44q-56 0 -111.5 6t-114.5 20 q4 46 8 91l8 90q3 25 19.5 40t47.5 15q17 0 44 -6.5t66 -6.5q69 0 125 20t96 64.5t62 115.5t22 171q0 119 -29.5 193.5t-79 116.5t-114 57.5t-135.5 15.5h-299v-644h-307z" />
<glyph unicode="&#x4c4;" horiz-adv-x="1157" d="M117 0v1056h282v-427h74q43 0 67 14.5t42 47.5l161 292q20 32 56 52.5t74 20.5h224l-236 -388q-18 -30 -36.5 -52t-41.5 -36q152 -22 227 -131t75 -291q0 -119 -32.5 -216t-89.5 -166t-134.5 -106.5t-168.5 -37.5q-43 0 -84 5t-87 16q2 22 4.5 37.5t4 30.5t3.5 31.5 t4 37.5q2 24 17.5 37t41.5 13q12 0 29 -3t37 -3q38 0 69.5 17t54 56t35.5 102.5t13 156.5q0 81 -12.5 135t-35.5 87t-56.5 46t-75.5 13h-223v-447h-282z" />
<glyph unicode="&#x4c5;" horiz-adv-x="1623" d="M-3 41v189h82q33 0 68 11t69.5 51.5t66.5 120.5t58.5 219.5t45.5 348t27 505.5h969v-1254h218l-165 -582h-300l109 350h-171v1253h-371q-15 -276 -41.5 -478t-64 -342.5t-85 -228t-104.5 -136.5t-122 -66t-136 -17q-81 0 -117 14t-36 42z" />
<glyph unicode="&#x4c6;" horiz-adv-x="1335" d="M4 25v172h64q33 0 65.5 9.5t63.5 40.5t59 88t51.5 152.5t41 234.5t27.5 334h743v-850h204l-158 -556h-264l110 350h-174v844h-229q-13 -193 -38.5 -331t-61.5 -234t-80 -153.5t-94 -89t-103.5 -41.5t-107.5 -10q-63 0 -91 10t-28 30z" />
<glyph unicode="&#x4c7;" horiz-adv-x="1584" d="M156 0v1486h309v-631h654v631h309v-1351q0 -115 -30.5 -208t-92.5 -158.5t-155 -101t-217 -35.5q-56 0 -111.5 7t-114.5 21q4 45 7.5 90t8.5 91q2 24 19 39t46 15q17 0 45 -6.5t67 -6.5q55 0 96 12.5t69 40.5t41 75t13 118v512h-654v-640h-309z" />
<glyph unicode="&#x4c8;" horiz-adv-x="1170" d="M117 0v1056h282v-392h373v392h282l1 -1006q0 -114 -27 -193t-79.5 -129.5t-131.5 -73.5t-182 -23q-44 0 -81 5t-82 16q2 22 3.5 37.5t3.5 30.5t4 31.5t4 37.5q2 24 17.5 37t42.5 13q11 0 25.5 -3t44.5 -3q33 0 61.5 7.5t49.5 31.5t32.5 67t11.5 114v405h-373v-458h-282z " />
<glyph unicode="&#x4c9;" horiz-adv-x="1669" d="M156 0v1486h309v-631h654v631h309v-1254h218l-165 -582h-300l109 350h-171v640h-654v-640h-309z" />
<glyph unicode="&#x4ca;" horiz-adv-x="1270" d="M117 0v1056h282v-392h373v392h282v-850h204l-157 -556h-264l109 350h-174v458h-373v-458h-282z" />
<glyph unicode="&#x4cb;" horiz-adv-x="1396" d="M75 994v492h309v-493q0 -80 25 -135t87 -81.5t168 -23.5t268 41v692h309v-1486h-233v-255q0 -39 -27.5 -62.5t-70.5 -23.5h-185v573h207v347q-121 -29 -231 -42.5t-205.5 -7t-173 35t-132.5 84.5t-85 140.5t-30 204.5z" />
<glyph unicode="&#x4cc;" horiz-adv-x="1087" d="M63 705v351h282v-310q0 -60 17.5 -98t58 -56t106.5 -16t162 21v459h282v-1056h-219v-268q0 -38 -22.5 -60t-57.5 -22h-177v556h194v197q-136 -33 -250.5 -35t-198 31.5t-130.5 108.5t-47 197z" />
<glyph unicode="&#x4cd;" horiz-adv-x="2033" d="M156 0v1486h233q19 0 34.5 -1t27.5 -5.5t21.5 -14.5t19.5 -27l415 -793q19 -36 36.5 -73.5t32.5 -77.5q15 41 32 79.5t36 74.5l413 790q9 17 19.5 27t22 14.5t26.5 5.5t36 1h233v-1254h217l-165 -582h-301l111 350h-133v912q0 29 1.5 62t5.5 66l-425 -806 q-35 -67 -108 -66h-43q-36 0 -63.5 17t-43.5 49l-427 809q3 -36 5 -69t2 -62v-912h-271z" />
<glyph unicode="&#x4ce;" horiz-adv-x="1575" d="M117 0v1057h235q29 0 57.5 -12.5t49.5 -49.5l217 -406q17 -33 33 -70.5t30 -76.5q13 39 29 76.5t34 70.5l216 406q20 39 49 50.5t57 11.5h236v-851h203l-158 -556h-264l109 350h-145v549q0 37 4 84t11 89l-286 -540q-26 -48 -79 -48h-31q-52 0 -80 48l-290 542 q8 -42 13 -89.5t5 -85.5v-549h-255z" />
<glyph unicode="&#x4cf;" horiz-adv-x="620" d="M156 0v1486h309v-1486h-309z" />
<glyph unicode="&#x4d0;" horiz-adv-x="1430" d="M-22 0l580 1486h315l579 -1486h-238q-40 0 -65.5 19t-37.5 49l-100 283h-592l-100 -283q-10 -26 -36 -47t-65 -21h-240zM366 1784q0 28 14 52.5t44 24.5h167q0 -46 5.5 -75.5t19.5 -47t38 -24t61 -6.5t61 6.5t37.5 24t19.5 47t6 75.5h166q30 0 44 -25t14 -52 q0 -53 -25 -93t-71.5 -67.5t-110.5 -40.5t-141 -13q-78 0 -142 13t-110 40.5t-71.5 67.5t-25.5 93zM495 564h441l-161 455q-14 36 -30 84t-30 104q-14 -57 -30 -105.5t-31 -84.5z" />
<glyph unicode="&#x4d1;" horiz-adv-x="1048" d="M43 272q0 58 29.5 116.5t102 106.5t192.5 79t302 35v55q0 99 -42 145.5t-121 46.5q-58 0 -97 -14t-68.5 -29.5t-55 -29.5t-59.5 -14q-30 0 -49.5 15t-33.5 35l-50 90q93 84 206 125.5t244 41.5q94 0 168 -30.5t126 -85.5t79.5 -130.5t27.5 -165.5v-664h-129 q-40 0 -61 11.5t-34 46.5l-23 68q-40 -35 -77 -61.5t-77 -44.5t-85.5 -27t-102.5 -9q-70 0 -127 18t-98.5 54.5t-64 91t-22.5 124.5zM169 1409q0 28 14 52.5t44 24.5h167q0 -46 5.5 -76.5t19.5 -49t38 -26t61 -7.5t61 7.5t37.5 26t19.5 49t6 76.5h166q30 0 44 -24.5 t14 -52.5q0 -53 -25 -95.5t-71.5 -72.5t-110.5 -45.5t-141 -15.5q-78 0 -142 15.5t-110 45.5t-71.5 72.5t-25.5 95.5zM313 287q0 -61 34.5 -87t95.5 -26q71 0 122.5 25t103.5 79v163q-103 -5 -172 -17.5t-109.5 -33t-57.5 -47t-17 -56.5z" />
<glyph unicode="&#x4d2;" horiz-adv-x="1430" d="M-22 0l580 1486h315l579 -1486h-238q-40 0 -65.5 19t-37.5 49l-100 283h-592l-100 -283q-10 -26 -36 -47t-65 -21h-240zM338 1707q0 30 11.5 57t31.5 47t45.5 31.5t54.5 11.5q31 0 58.5 -11.5t48.5 -31.5t33 -47t12 -57t-12 -56t-33 -45t-48.5 -30t-58.5 -11 q-29 0 -54.5 11t-45.5 30t-31.5 45t-11.5 56zM495 564h441l-161 455q-14 36 -30 84t-30 104q-14 -57 -30 -105.5t-31 -84.5zM797 1707q0 30 11.5 57t31.5 47t46.5 31.5t57.5 11.5t57.5 -11.5t46.5 -31.5t31.5 -47t11.5 -57t-11.5 -56t-31.5 -45t-46.5 -30t-57.5 -11 t-57.5 11t-46.5 30t-31.5 45t-11.5 56z" />
<glyph unicode="&#x4d3;" horiz-adv-x="1048" d="M43 272q0 58 29.5 116.5t102 106.5t192.5 79t302 35v55q0 99 -42 145.5t-121 46.5q-58 0 -97 -14t-68.5 -29.5t-55 -29.5t-59.5 -14q-30 0 -49.5 15t-33.5 35l-50 90q93 84 206 125.5t244 41.5q94 0 168 -30.5t126 -85.5t79.5 -130.5t27.5 -165.5v-664h-129 q-40 0 -61 11.5t-34 46.5l-23 68q-40 -35 -77 -61.5t-77 -44.5t-85.5 -27t-102.5 -9q-70 0 -127 18t-98.5 54.5t-64 91t-22.5 124.5zM153 1325q0 31 12.5 58.5t33 48.5t47.5 33t57 12q32 0 60 -12t49 -33t33 -48.5t12 -58.5t-12 -57.5t-33 -46.5t-49.5 -31t-59.5 -11 q-30 0 -57 11t-47.5 31t-33 46.5t-12.5 57.5zM313 287q0 -61 34.5 -87t95.5 -26q71 0 122.5 25t103.5 79v163q-103 -5 -172 -17.5t-109.5 -33t-57.5 -47t-17 -56.5zM578 1325q0 31 12 58.5t32.5 48.5t48 33t58.5 12q32 0 60 -12t48.5 -33t32.5 -48.5t12 -58.5t-12 -57.5 t-32.5 -46.5t-49 -31t-59.5 -11t-58.5 11t-48 31t-32.5 46.5t-12 57.5z" />
<glyph unicode="&#x4d4;" horiz-adv-x="1908" d="M-31 0l745 1486h1120v-241h-687l46 -382h501v-232h-472l47 -390h566l-1 -241h-826l-43 351h-515l-132 -283q-14 -30 -43.5 -49t-71.5 -19h-234zM548 564h391l-85 696q-17 -56 -36.5 -105t-39.5 -91z" />
<glyph unicode="&#x4d5;" horiz-adv-x="1661" d="M45 284q0 58 29.5 118.5t102 110t192.5 83t302 37.5v31q0 99 -42 149.5t-121 50.5q-58 0 -97 -14.5t-68.5 -32.5t-55 -33t-59.5 -15q-30 0 -49.5 15t-33.5 35l-50 90q93 84 194.5 125.5t224.5 41.5q118 0 193.5 -42.5t117.5 -117.5q58 73 145.5 114.5t201.5 41.5 q92 0 170.5 -35t136 -100.5t90.5 -158t33 -208.5q0 -32 -3 -52t-10 -32.5t-18.5 -17t-31.5 -4.5h-599q15 -137 82.5 -201t170.5 -64q69 0 111.5 12.5t70 28t46.5 28.5t42 13q39 0 58 -25l75 -95q-45 -52 -98 -86.5t-109.5 -54.5t-113 -27.5t-110.5 -7.5t-105.5 11.5 t-99 35.5t-89 61.5t-72.5 88.5q-32 -52 -77 -89.5t-100 -62t-116 -35.5t-125 -11q-79 0 -141 20t-105.5 58t-66.5 94t-23 128zM315 298q0 -63 35 -93.5t100 -30.5q47 0 87.5 14.5t70 45t46.5 79t17 118.5v34q-103 -5 -172 -20.5t-109.5 -37.5t-57.5 -50t-17 -59zM939 632 h412q0 45 -11 88.5t-34 77t-59.5 54.5t-86.5 21q-99 0 -153 -62.5t-68 -178.5z" />
<glyph unicode="&#x4d6;" horiz-adv-x="1175" d="M156 0v1486h946v-241h-637v-382h496v-232h-496v-390h637v-241h-946zM297 1784q0 28 14 52.5t44 24.5h167q0 -46 5.5 -75.5t19.5 -47t38 -24t61 -6.5t61 6.5t37.5 24t19.5 47t6 75.5h166q30 0 44 -25t14 -52q0 -53 -25 -93t-71.5 -67.5t-110.5 -40.5t-141 -13 q-78 0 -142 13t-110 40.5t-71.5 67.5t-25.5 93z" />
<glyph unicode="&#x4d7;" horiz-adv-x="1097" d="M60 550q0 108 35.5 203t102 165.5t162 112t214.5 41.5q101 0 187 -32t148 -93.5t96 -151t34 -204.5q0 -32 -3 -52.5t-10 -32.5t-19.5 -17t-31.5 -5h-633q13 -148 84.5 -216.5t185.5 -68.5q58 0 101 13.5t75 30.5t58 31t52 14q33 0 51 -25l82 -102q-45 -52 -99 -86.5 t-112.5 -54.5t-118 -27.5t-114.5 -7.5q-111 0 -206.5 36t-167 107.5t-112.5 177t-41 244.5zM232 1409q0 28 14 52.5t44 24.5h167q0 -46 5.5 -76.5t19.5 -49t38 -26t61 -7.5t61 7.5t37.5 26t19.5 49t6 76.5h166q30 0 44 -24.5t14 -52.5q0 -53 -25 -95.5t-71.5 -72.5 t-110.5 -45.5t-141 -15.5q-78 0 -142 15.5t-110 45.5t-71.5 72.5t-25.5 95.5zM346 652h440q0 44 -11.5 84t-37 71t-64.5 48.5t-93 17.5q-101 0 -158.5 -57t-75.5 -164z" />
<glyph unicode="&#x4d8;" horiz-adv-x="1508" d="M66 657q0 44 3.5 73t13.5 45.5t27.5 23t44.5 6.5h961q-19 222 -135.5 330t-316.5 108q-84 0 -146.5 -20.5t-111.5 -45t-87 -45t-75 -20.5q-24 0 -42.5 9t-30.5 26l-93 114q66 74 141.5 122t156.5 76t163 38.5t159 10.5q155 0 289.5 -51t234.5 -151.5t157.5 -248.5 t57.5 -342q0 -151 -50 -284t-143 -233t-226 -157.5t-300 -57.5q-143 0 -263 45t-206.5 131.5t-134.5 212t-48 285.5zM364 599q0 -79 23 -146t68 -115.5t111.5 -76.5t152.5 -28t153.5 26.5t116.5 74t80 115t43 150.5h-748z" />
<glyph unicode="&#x4d9;" horiz-adv-x="1097" d="M58 465q0 32 3.5 52.5t10.5 32.5t19 16.5t32 4.5h634q-13 150 -85 218.5t-187 68.5q-58 0 -100.5 -14t-74.5 -30.5t-58 -30.5t-51 -14q-34 0 -53 25l-80 102q45 52 99 86t112.5 54t117.5 28t114 8q111 0 206.5 -36.5t167 -107.5t112.5 -177t41 -245q0 -108 -35.5 -202.5 t-102 -165t-162 -112t-214.5 -41.5q-102 0 -187.5 32t-147.5 93.5t-96.5 151t-34.5 203.5zM311 404q0 -44 12 -83.5t37.5 -70.5t65 -49t93.5 -18q100 0 158 57.5t76 163.5h-442z" />
<glyph unicode="&#x4da;" horiz-adv-x="1508" d="M66 657q0 44 3.5 73t13.5 45.5t27.5 23t44.5 6.5h961q-19 222 -135.5 330t-316.5 108q-84 0 -146.5 -20.5t-111.5 -45t-87 -45t-75 -20.5q-24 0 -42.5 9t-30.5 26l-93 114q66 74 141.5 122t156.5 76t163 38.5t159 10.5q155 0 289.5 -51t234.5 -151.5t157.5 -248.5 t57.5 -342q0 -151 -50 -284t-143 -233t-226 -157.5t-300 -57.5q-143 0 -263 45t-206.5 131.5t-134.5 212t-48 285.5zM330 1707q0 30 11.5 57t31.5 47t45.5 31.5t54.5 11.5q31 0 58.5 -11.5t48.5 -31.5t33 -47t12 -57t-12 -56t-33 -45t-48.5 -30t-58.5 -11q-29 0 -54.5 11 t-45.5 30t-31.5 45t-11.5 56zM364 599q0 -79 23 -146t68 -115.5t111.5 -76.5t152.5 -28t153.5 26.5t116.5 74t80 115t43 150.5h-748zM789 1707q0 30 11.5 57t31.5 47t46.5 31.5t57.5 11.5t57.5 -11.5t46.5 -31.5t31.5 -47t11.5 -57t-11.5 -56t-31.5 -45t-46.5 -30t-57.5 -11 t-57.5 11t-46.5 30t-31.5 45t-11.5 56z" />
<glyph unicode="&#x4db;" horiz-adv-x="1097" d="M58 465q0 32 3.5 52.5t10.5 32.5t19 16.5t32 4.5h634q-13 150 -85 218.5t-187 68.5q-58 0 -100.5 -14t-74.5 -30.5t-58 -30.5t-51 -14q-34 0 -53 25l-80 102q45 52 99 86t112.5 54t117.5 28t114 8q111 0 206.5 -36.5t167 -107.5t112.5 -177t41 -245q0 -108 -35.5 -202.5 t-102 -165t-162 -112t-214.5 -41.5q-102 0 -187.5 32t-147.5 93.5t-96.5 151t-34.5 203.5zM180 1325q0 31 12.5 58.5t33 48.5t47.5 33t57 12q32 0 60 -12t49 -33t33 -48.5t12 -58.5t-12 -57.5t-33 -46.5t-49.5 -31t-59.5 -11q-30 0 -57 11t-47.5 31t-33 46.5t-12.5 57.5z M311 404q0 -44 12 -83.5t37.5 -70.5t65 -49t93.5 -18q100 0 158 57.5t76 163.5h-442zM605 1325q0 31 12 58.5t32.5 48.5t48 33t58.5 12q32 0 60 -12t48.5 -33t32.5 -48.5t12 -58.5t-12 -57.5t-32.5 -46.5t-49 -31t-59.5 -11t-58.5 11t-48 31t-32.5 46.5t-12 57.5z" />
<glyph unicode="&#x4dc;" horiz-adv-x="2211" d="M-4 0l365 625q39 66 83.5 104.5t101.5 58.5q-46 18 -79.5 50.5t-64.5 81.5l-362 566h244q46 0 85.5 -22.5t62.5 -62.5l276 -455q26 -45 57.5 -59.5t71.5 -14.5h124v614h289v-614h124q41 0 72.5 14.5t57.5 59.5l276 455q24 40 63 62.5t85 22.5h244l-363 -566 q-31 -48 -64 -80.5t-79 -51.5q56 -20 100.5 -59t82.5 -104l367 -625h-206q-67 0 -114.5 28t-74.5 76l-275 457q-27 46 -61 64.5t-83 18.5h-152v-644h-289v644h-151q-50 0 -84 -18.5t-60 -64.5l-275 -457q-29 -48 -76 -76t-114 -28h-205zM730 1707q0 30 11.5 57t31.5 47 t45.5 31.5t54.5 11.5q31 0 58.5 -11.5t48.5 -31.5t33 -47t12 -57t-12 -56t-33 -45t-48.5 -30t-58.5 -11q-29 0 -54.5 11t-45.5 30t-31.5 45t-11.5 56zM1189 1707q0 30 11.5 57t31.5 47t46.5 31.5t57.5 11.5t57.5 -11.5t46.5 -31.5t31.5 -47t11.5 -57t-11.5 -56t-31.5 -45 t-46.5 -30t-57.5 -11t-57.5 11t-46.5 30t-31.5 45t-11.5 56z" />
<glyph unicode="&#x4dd;" horiz-adv-x="1698" d="M12 0l235 435q26 47 58.5 78t84.5 47q-38 14 -64.5 40t-52.5 68l-234 388h222q39 0 71.5 -20t50.5 -53l161 -292q17 -33 41 -47.5t67 -14.5h61v427h273v-427h55q43 0 70 14.5t44 47.5l161 292q17 33 50 53t72 20h222l-236 -388q-25 -42 -51 -68t-64 -40q52 -16 84.5 -47 t57.5 -78l236 -435h-195q-75 0 -114 22.5t-61 72.5l-136 280q-17 37 -48.5 54.5t-71.5 17.5h-75v-447h-273v447h-75q-40 0 -71 -17.5t-49 -54.5l-136 -280q-23 -50 -61.5 -72.5t-113.5 -22.5h-195zM484 1325q0 31 12.5 58.5t33 48.5t47.5 33t57 12q32 0 60 -12t49 -33 t33 -48.5t12 -58.5t-12 -57.5t-33 -46.5t-49.5 -31t-59.5 -11q-30 0 -57 11t-47.5 31t-33 46.5t-12.5 57.5zM909 1325q0 31 12 58.5t32.5 48.5t48 33t58.5 12q32 0 60 -12t48.5 -33t32.5 -48.5t12 -58.5t-12 -57.5t-32.5 -46.5t-49 -31t-59.5 -11t-58.5 11t-48 31 t-32.5 46.5t-12 57.5z" />
<glyph unicode="&#x4de;" horiz-adv-x="1196" d="M15 181l91 146q11 16 29.5 27t39.5 11q29 0 61.5 -20.5t76.5 -45.5t104.5 -45.5t144.5 -20.5q127 0 197.5 53.5t70.5 171.5q0 47 -19.5 84.5t-55.5 63t-87.5 38.5t-112.5 12h-213l-1 244h190q128 0 196 47t68 137q0 79 -63 125t-186 46q-71 0 -123 -15t-90.5 -34 t-66.5 -34.5t-51 -15.5q-24 0 -39 11t-30 33l-75 145q87 74 208.5 115.5t268.5 41.5q123 0 221.5 -28.5t168.5 -80.5t107 -124t37 -159q0 -102 -45.5 -187t-140.5 -140q49 -25 90.5 -57.5t70.5 -72.5t45.5 -86t16.5 -97q0 -101 -38 -190t-110 -154t-177.5 -102.5 t-240.5 -37.5q-77 0 -153 14t-146 40t-131 61.5t-108 79.5zM199 1707q0 30 11.5 57t31.5 47t45.5 31.5t54.5 11.5q31 0 58.5 -11.5t48.5 -31.5t33 -47t12 -57t-12 -56t-33 -45t-48.5 -30t-58.5 -11q-29 0 -54.5 11t-45.5 30t-31.5 45t-11.5 56zM658 1707q0 30 11.5 57 t31.5 47t46.5 31.5t57.5 11.5t57.5 -11.5t46.5 -31.5t31.5 -47t11.5 -57t-11.5 -56t-31.5 -45t-46.5 -30t-57.5 -11t-57.5 11t-46.5 30t-31.5 45t-11.5 56z" />
<glyph unicode="&#x4df;" horiz-adv-x="922" d="M29 161l82 102q18 25 51 25q26 0 47 -14.5t48.5 -32t64 -31.5t92.5 -14q88 0 131.5 38.5t43.5 98.5q0 58 -46 91t-152 33h-119v179h119q93 0 142 31.5t49 85.5q0 49 -43 78.5t-124 29.5q-52 0 -88 -10.5t-62 -23t-45 -23t-37 -10.5q-19 0 -33 7t-29 32l-64 106 q61 59 150.5 96t215.5 37q98 0 175.5 -23.5t130.5 -63t81 -91t28 -108.5q0 -30 -9 -61.5t-28.5 -61.5t-51 -56.5t-78.5 -45.5q83 -33 134.5 -95.5t51.5 -156.5q0 -78 -36.5 -138t-95.5 -101.5t-135.5 -63t-156.5 -21.5q-44 0 -95.5 7.5t-105 27.5t-106 54.5t-97.5 86.5z M74 1325q0 31 12.5 58.5t33 48.5t47.5 33t57 12q32 0 60 -12t49 -33t33 -48.5t12 -58.5t-12 -57.5t-33 -46.5t-49.5 -31t-59.5 -11q-30 0 -57 11t-47.5 31t-33 46.5t-12.5 57.5zM499 1325q0 31 12 58.5t32.5 48.5t48 33t58.5 12q32 0 60 -12t48.5 -33t32.5 -48.5t12 -58.5 t-12 -57.5t-32.5 -46.5t-49 -31t-59.5 -11t-58.5 11t-48 31t-32.5 46.5t-12 57.5z" />
<glyph unicode="&#x4e0;" horiz-adv-x="1215" d="M26 230l120 132q14 17 28 20t24 3q15 0 29.5 -5.5t41.5 -28.5q15 -15 38.5 -34.5t56 -37t76 -29t100.5 -11.5q74 0 127.5 21.5t89.5 58t53 85t17 100.5q0 47 -15.5 86t-51 67t-92.5 43.5t-139 15.5h-213v130q0 22 9.5 46t33.5 47l318 306h-593v241h1014v-113 q0 -24 -8 -51.5t-37 -54.5l-353 -336q117 -10 201 -45.5t137.5 -90.5t78.5 -126.5t25 -152.5q0 -128 -51.5 -227t-135.5 -166.5t-192 -102t-221 -34.5q-145 0 -278 58.5t-238 185.5z" />
<glyph unicode="&#x4e1;" horiz-adv-x="934" d="M-35 -229l65 106q11 18 28 28.5t43 10.5t48 -11l48 -24t61.5 -24.5t88.5 -11.5q121 0 187.5 63.5t66.5 185.5q0 51 -13.5 94t-42.5 74t-75 48t-112 17h-192v87q0 45 36 71l288 358h-454v213h791v-115q0 -37 -16.5 -66.5t-38.5 -52.5l-272 -319q96 -14 167.5 -47.5 t118 -84t69 -116.5t22.5 -142q0 -96 -33.5 -182t-101 -150.5t-168 -101.5t-232.5 -37q-67 0 -122.5 9.5t-102 27t-84 41t-68.5 51.5z" />
<glyph unicode="&#x4e2;" horiz-adv-x="1584" d="M156 0v1486h309v-886q0 -55 -3 -116t-12 -129q23 60 48 112.5t49 91.5l515 834q10 16 24.5 33t31.5 30t37 21.5t42 8.5h231v-1486h-309v886q0 55 3 116t13 128q-23 -60 -48.5 -112t-49.5 -91l-515 -833q-10 -17 -24.5 -33.5t-31 -30.5t-36.5 -22t-43 -8h-231zM491 1602 v158h633v-158h-633z" />
<glyph unicode="&#x4e3;" horiz-adv-x="1201" d="M117 -1v1056h282v-581q0 -25 -3 -55.5t-8 -60.5q12 27 24.5 49.5t24.5 39.5q1 2 18 27t43.5 63t60 86.5t68.5 98.5q81 117 184 265q15 25 41.5 47t58.5 22h172v-1056h-282v581q0 24 2.5 54t7.5 59q-24 -51 -48 -87q-2 -2 -18.5 -26.5t-43 -63t-60 -86.5t-68.5 -98 q-81 -117 -183 -265q-8 -12 -19 -24t-23.5 -22.5t-27 -16.5t-30.5 -6h-173zM304 1238v176h623v-176h-623z" />
<glyph unicode="&#x4e4;" horiz-adv-x="1584" d="M156 0v1486h309v-886q0 -55 -3 -116t-12 -129q23 60 48 112.5t49 91.5l515 834q10 16 24.5 33t31.5 30t37 21.5t42 8.5h231v-1486h-309v886q0 55 3 116t13 128q-23 -60 -48.5 -112t-49.5 -91l-515 -833q-10 -17 -24.5 -33.5t-31 -30.5t-36.5 -22t-43 -8h-231zM431 1707 q0 30 11.5 57t31.5 47t45.5 31.5t54.5 11.5q31 0 58.5 -11.5t48.5 -31.5t33 -47t12 -57t-12 -56t-33 -45t-48.5 -30t-58.5 -11q-29 0 -54.5 11t-45.5 30t-31.5 45t-11.5 56zM890 1707q0 30 11.5 57t31.5 47t46.5 31.5t57.5 11.5t57.5 -11.5t46.5 -31.5t31.5 -47t11.5 -57 t-11.5 -56t-31.5 -45t-46.5 -30t-57.5 -11t-57.5 11t-46.5 30t-31.5 45t-11.5 56z" />
<glyph unicode="&#x4e5;" horiz-adv-x="1201" d="M117 -1v1056h282v-581q0 -25 -3 -55.5t-8 -60.5q12 27 24.5 49.5t24.5 39.5q1 2 18 27t43.5 63t60 86.5t68.5 98.5q81 117 184 265q15 25 41.5 47t58.5 22h172v-1056h-282v581q0 24 2.5 54t7.5 59q-24 -51 -48 -87q-2 -2 -18.5 -26.5t-43 -63t-60 -86.5t-68.5 -98 q-81 -117 -183 -265q-8 -12 -19 -24t-23.5 -22.5t-27 -16.5t-30.5 -6h-173zM251 1325q0 31 12.5 58.5t33 48.5t47.5 33t57 12q32 0 60 -12t49 -33t33 -48.5t12 -58.5t-12 -57.5t-33 -46.5t-49.5 -31t-59.5 -11q-30 0 -57 11t-47.5 31t-33 46.5t-12.5 57.5zM676 1325 q0 31 12 58.5t32.5 48.5t48 33t58.5 12q32 0 60 -12t48.5 -33t32.5 -48.5t12 -58.5t-12 -57.5t-32.5 -46.5t-49 -31t-59.5 -11t-58.5 11t-48 31t-32.5 46.5t-12 57.5z" />
<glyph unicode="&#x4e6;" horiz-adv-x="1660" d="M69 743q0 163 54.5 302t155 240t240.5 159t311 58t311.5 -58t240.5 -159.5t154.5 -240.5t54.5 -301q0 -163 -54.5 -302t-154.5 -240.5t-240.5 -159t-311.5 -57.5t-311 57.5t-240.5 159t-155 241t-54.5 301.5zM383 743q0 -118 30.5 -210.5t88.5 -157t141 -98.5t187 -34 t187 34t140.5 98.5t88.5 157t31 210.5q0 117 -31 210t-88.5 158t-140 99t-187.5 34q-104 0 -187 -34t-141 -99t-88.5 -158t-30.5 -210zM456 1707q0 30 11.5 57t31.5 47t45.5 31.5t54.5 11.5q31 0 58.5 -11.5t48.5 -31.5t33 -47t12 -57t-12 -56t-33 -45t-48.5 -30t-58.5 -11 q-29 0 -54.5 11t-45.5 30t-31.5 45t-11.5 56zM915 1707q0 30 11.5 57t31.5 47t46.5 31.5t57.5 11.5t57.5 -11.5t46.5 -31.5t31.5 -47t11.5 -57t-11.5 -56t-31.5 -45t-46.5 -30t-57.5 -11t-57.5 11t-46.5 30t-31.5 45t-11.5 56z" />
<glyph unicode="&#x4e7;" horiz-adv-x="1182" d="M61 529q0 126 38.5 226.5t108.5 170.5t167.5 108t217.5 38q119 0 216 -38t167 -108t107.5 -170.5t37.5 -226.5t-37.5 -226.5t-107.5 -171.5t-167 -108.5t-216 -37.5q-120 0 -217.5 37.5t-167.5 108.5t-108.5 171.5t-38.5 226.5zM228 1325q0 31 12.5 58.5t33 48.5t47.5 33 t57 12q32 0 60 -12t49 -33t33 -48.5t12 -58.5t-12 -57.5t-33 -46.5t-49.5 -31t-59.5 -11q-30 0 -57 11t-47.5 31t-33 46.5t-12.5 57.5zM352 528q0 -165 58.5 -248t182.5 -83q121 0 179 83.5t58 247.5t-58 247.5t-179 83.5q-124 0 -182.5 -83.5t-58.5 -247.5zM653 1325 q0 31 12 58.5t32.5 48.5t48 33t58.5 12q32 0 60 -12t48.5 -33t32.5 -48.5t12 -58.5t-12 -57.5t-32.5 -46.5t-49 -31t-59.5 -11t-58.5 11t-48 31t-32.5 46.5t-12 57.5z" />
<glyph unicode="&#x4e8;" horiz-adv-x="1660" d="M69 743q0 163 54.5 302t155 240t240.5 159t311 58t311.5 -58t240.5 -159.5t154.5 -240.5t54.5 -301q0 -163 -54.5 -302t-154.5 -240.5t-240.5 -159t-311.5 -57.5t-311 57.5t-240.5 159t-155 241t-54.5 301.5zM389 641q12 -94 48 -168t93 -125t132.5 -78t167.5 -27t168 27 t132.5 78t92 125t48.5 168h-882zM392 865h876q-15 89 -51.5 160t-92.5 119.5t-129.5 74t-164.5 25.5q-90 0 -163.5 -25.5t-130 -74t-92.5 -119.5t-52 -160z" />
<glyph unicode="&#x4e9;" horiz-adv-x="1182" d="M61 529q0 126 38.5 226.5t108.5 170.5t167.5 108t217.5 38q119 0 216 -38t167 -108t107.5 -170.5t37.5 -226.5t-37.5 -226.5t-107.5 -171.5t-167 -108.5t-216 -37.5q-120 0 -217.5 37.5t-167.5 108.5t-108.5 171.5t-38.5 226.5zM354 464q11 -133 69 -200t170 -67 q109 0 166.5 67t68.5 200h-474zM356 609h470q-13 124 -70.5 187t-162.5 63q-109 0 -166 -63t-71 -187z" />
<glyph unicode="&#x4ea;" horiz-adv-x="1660" d="M69 743q0 163 54.5 302t155 240t240.5 159t311 58t311.5 -58t240.5 -159.5t154.5 -240.5t54.5 -301q0 -163 -54.5 -302t-154.5 -240.5t-240.5 -159t-311.5 -57.5t-311 57.5t-240.5 159t-155 241t-54.5 301.5zM389 641q12 -94 48 -168t93 -125t132.5 -78t167.5 -27t168 27 t132.5 78t92 125t48.5 168h-882zM392 865h876q-15 89 -51.5 160t-92.5 119.5t-129.5 74t-164.5 25.5q-90 0 -163.5 -25.5t-130 -74t-92.5 -119.5t-52 -160zM459 1707q0 30 11.5 57t31.5 47t45.5 31.5t54.5 11.5q31 0 58.5 -11.5t48.5 -31.5t33 -47t12 -57t-12 -56t-33 -45 t-48.5 -30t-58.5 -11q-29 0 -54.5 11t-45.5 30t-31.5 45t-11.5 56zM918 1707q0 30 11.5 57t31.5 47t46.5 31.5t57.5 11.5t57.5 -11.5t46.5 -31.5t31.5 -47t11.5 -57t-11.5 -56t-31.5 -45t-46.5 -30t-57.5 -11t-57.5 11t-46.5 30t-31.5 45t-11.5 56z" />
<glyph unicode="&#x4eb;" horiz-adv-x="1182" d="M61 529q0 126 38.5 226.5t108.5 170.5t167.5 108t217.5 38q119 0 216 -38t167 -108t107.5 -170.5t37.5 -226.5t-37.5 -226.5t-107.5 -171.5t-167 -108.5t-216 -37.5q-120 0 -217.5 37.5t-167.5 108.5t-108.5 171.5t-38.5 226.5zM228 1325q0 31 12.5 58.5t33 48.5t47.5 33 t57 12q32 0 60 -12t49 -33t33 -48.5t12 -58.5t-12 -57.5t-33 -46.5t-49.5 -31t-59.5 -11q-30 0 -57 11t-47.5 31t-33 46.5t-12.5 57.5zM354 464q11 -133 69 -200t170 -67q109 0 166.5 67t68.5 200h-474zM356 609h470q-13 124 -70.5 187t-162.5 63q-109 0 -166 -63t-71 -187z M653 1325q0 31 12 58.5t32.5 48.5t48 33t58.5 12q32 0 60 -12t48.5 -33t32.5 -48.5t12 -58.5t-12 -57.5t-32.5 -46.5t-49 -31t-59.5 -11t-58.5 11t-48 31t-32.5 46.5t-12 57.5z" />
<glyph unicode="&#x4ec;" horiz-adv-x="1360" d="M30 217l122 130q10 10 20.5 14.5t22.5 4.5q14 0 26.5 -6.5t24.5 -15.5q32 -30 64.5 -49.5t68.5 -31.5t78.5 -17t94.5 -5q78 0 148 26.5t125.5 77t93 125.5t51.5 171h-663v224h661q-14 90 -50.5 161t-90 119.5t-122.5 73.5t-149 25q-85 0 -139.5 -17.5t-91 -39t-61 -38.5 t-50.5 -17q-25 0 -38.5 10t-23.5 23l-104 142q86 87 213.5 141t292.5 54q109 0 206 -25t179 -72.5t147 -115t111 -151.5t70 -184t24 -211q0 -165 -50 -304t-143 -240.5t-226.5 -158t-300.5 -56.5q-184 0 -317.5 59t-223.5 174zM210 1707q0 30 11.5 57t31.5 47t45.5 31.5 t54.5 11.5q31 0 58.5 -11.5t48.5 -31.5t33 -47t12 -57t-12 -56t-33 -45t-48.5 -30t-58.5 -11q-29 0 -54.5 11t-45.5 30t-31.5 45t-11.5 56zM669 1707q0 30 11.5 57t31.5 47t46.5 31.5t57.5 11.5t57.5 -11.5t46.5 -31.5t31.5 -47t11.5 -57t-11.5 -56t-31.5 -45t-46.5 -30 t-57.5 -11t-57.5 11t-46.5 30t-31.5 45t-11.5 56z" />
<glyph unicode="&#x4ed;" horiz-adv-x="1001" d="M36 161l77 93q17 26 51 26q26 0 45.5 -13.5t44.5 -29t60.5 -28.5t94.5 -13q97 0 162.5 64.5t82.5 184.5h-426v189h423q-19 109 -81.5 168t-166.5 59q-50 0 -84 -10t-59.5 -23t-44.5 -23t-41 -10t-34 9t-24 24l-71 93q73 74 164 112.5t212 38.5q127 0 223.5 -41.5 t162.5 -114t100 -172t34 -215.5q0 -130 -38.5 -231t-104 -171t-153 -106t-184.5 -36q-55 0 -111.5 7.5t-111.5 27.5t-106 54.5t-96 86.5zM93 1325q0 31 12.5 58.5t33 48.5t47.5 33t57 12q32 0 60 -12t49 -33t33 -48.5t12 -58.5t-12 -57.5t-33 -46.5t-49.5 -31t-59.5 -11 q-30 0 -57 11t-47.5 31t-33 46.5t-12.5 57.5zM518 1325q0 31 12 58.5t32.5 48.5t48 33t58.5 12q32 0 60 -12t48.5 -33t32.5 -48.5t12 -58.5t-12 -57.5t-32.5 -46.5t-49 -31t-59.5 -11t-58.5 11t-48 31t-32.5 46.5t-12 57.5z" />
<glyph unicode="&#x4ee;" horiz-adv-x="1336" d="M-24 1486h289q40 0 63.5 -19t39.5 -49l258 -497q26 -47 45.5 -94.5t35.5 -95.5q28 96 73 190l228 497q12 25 37 46.5t64 21.5h255l-599 -1275q-33 -69 -71 -113t-81.5 -69t-92.5 -34.5t-105 -9.5q-81 0 -117 14t-36 42v189h83q20 0 43.5 4t46.5 15.5t44.5 33t39.5 58.5 l53 105zM356 1602v158h633v-158h-633z" />
<glyph unicode="&#x4ef;" horiz-adv-x="1089" d="M0 1056h248q34 0 52 -15.5t27 -35.5l200 -505q11 -30 20 -60t17 -60q18 60 42 121l187 504q8 23 29.5 37t46.5 14h227l-570 -1340q-13 -29 -32 -43t-60 -14h-210l200 426zM259 1238v176h623v-176h-623z" />
<glyph unicode="&#x4f0;" horiz-adv-x="1336" d="M-24 1486h289q40 0 63.5 -19t39.5 -49l258 -497q26 -47 45.5 -94.5t35.5 -95.5q28 96 73 190l228 497q12 25 37 46.5t64 21.5h255l-599 -1275q-33 -69 -71 -113t-81.5 -69t-92.5 -34.5t-105 -9.5q-81 0 -117 14t-36 42v189h83q20 0 43.5 4t46.5 15.5t44.5 33t39.5 58.5 l53 105zM296 1707q0 30 11.5 57t31.5 47t45.5 31.5t54.5 11.5q31 0 58.5 -11.5t48.5 -31.5t33 -47t12 -57t-12 -56t-33 -45t-48.5 -30t-58.5 -11q-29 0 -54.5 11t-45.5 30t-31.5 45t-11.5 56zM755 1707q0 30 11.5 57t31.5 47t46.5 31.5t57.5 11.5t57.5 -11.5t46.5 -31.5 t31.5 -47t11.5 -57t-11.5 -56t-31.5 -45t-46.5 -30t-57.5 -11t-57.5 11t-46.5 30t-31.5 45t-11.5 56z" />
<glyph unicode="&#x4f1;" horiz-adv-x="1089" d="M0 1056h248q34 0 52 -15.5t27 -35.5l200 -505q11 -30 20 -60t17 -60q18 60 42 121l187 504q8 23 29.5 37t46.5 14h227l-570 -1340q-13 -29 -32 -43t-60 -14h-210l200 426zM206 1325q0 31 12.5 58.5t33 48.5t47.5 33t57 12q32 0 60 -12t49 -33t33 -48.5t12 -58.5 t-12 -57.5t-33 -46.5t-49.5 -31t-59.5 -11q-30 0 -57 11t-47.5 31t-33 46.5t-12.5 57.5zM631 1325q0 31 12 58.5t32.5 48.5t48 33t58.5 12q32 0 60 -12t48.5 -33t32.5 -48.5t12 -58.5t-12 -57.5t-32.5 -46.5t-49 -31t-59.5 -11t-58.5 11t-48 31t-32.5 46.5t-12 57.5z" />
<glyph unicode="&#x4f2;" horiz-adv-x="1336" d="M-24 1486h289q40 0 63.5 -19t39.5 -49l258 -497q26 -47 45.5 -94.5t35.5 -95.5q28 96 73 190l228 497q12 25 37 46.5t64 21.5h255l-599 -1275q-33 -69 -71 -113t-81.5 -69t-92.5 -34.5t-105 -9.5q-81 0 -117 14t-36 42v189h83q20 0 43.5 4t46.5 15.5t44.5 33t39.5 58.5 l53 105zM387 1587l137 225q16 27 44.5 42.5t72.5 15.5h183l-212 -243q-23 -19 -41.5 -29.5t-50.5 -10.5h-133zM720 1587l186 225q22 26 51.5 42t73.5 16h210l-268 -243q-24 -20 -47 -30t-55 -10h-151z" />
<glyph unicode="&#x4f3;" horiz-adv-x="1089" d="M0 1056h248q34 0 52 -15.5t27 -35.5l200 -505q11 -30 20 -60t17 -60q18 60 42 121l187 504q8 23 29.5 37t46.5 14h227l-570 -1340q-13 -29 -32 -43t-60 -14h-210l200 426zM298 1195l125 250q14 29 37.5 43t67.5 14h183l-205 -268q-17 -24 -38.5 -31.5t-53.5 -7.5h-116z M595 1195l181 250q9 13 18.5 24t21.5 18t27.5 11t37.5 4h201l-262 -268q-20 -22 -40 -30.5t-52 -8.5h-133z" />
<glyph unicode="&#x4f4;" horiz-adv-x="1396" d="M75 994v492h309v-493q0 -80 25 -135t87 -81.5t168 -23.5t268 41v692h309v-1486h-309v579q-121 -29 -231 -42.5t-205.5 -7t-173 35t-132.5 84.5t-85 140.5t-30 204.5zM289 1707q0 30 11.5 57t31.5 47t45.5 31.5t54.5 11.5q31 0 58.5 -11.5t48.5 -31.5t33 -47t12 -57 t-12 -56t-33 -45t-48.5 -30t-58.5 -11q-29 0 -54.5 11t-45.5 30t-31.5 45t-11.5 56zM748 1707q0 30 11.5 57t31.5 47t46.5 31.5t57.5 11.5t57.5 -11.5t46.5 -31.5t31.5 -47t11.5 -57t-11.5 -56t-31.5 -45t-46.5 -30t-57.5 -11t-57.5 11t-46.5 30t-31.5 45t-11.5 56z" />
<glyph unicode="&#x4f5;" horiz-adv-x="1090" d="M65 705v351h282v-310q0 -60 17.5 -98t58 -56t106 -16t161.5 20v460h283v-1056h-283v403q-136 -33 -250.5 -35t-198 31.5t-130 108.5t-46.5 197zM163 1325q0 31 12.5 58.5t33 48.5t47.5 33t57 12q32 0 60 -12t49 -33t33 -48.5t12 -58.5t-12 -57.5t-33 -46.5t-49.5 -31 t-59.5 -11q-30 0 -57 11t-47.5 31t-33 46.5t-12.5 57.5zM588 1325q0 31 12 58.5t32.5 48.5t48 33t58.5 12q32 0 60 -12t48.5 -33t32.5 -48.5t12 -58.5t-12 -57.5t-32.5 -46.5t-49 -31t-59.5 -11t-58.5 11t-48 31t-32.5 46.5t-12 57.5z" />
<glyph unicode="&#x4f6;" horiz-adv-x="1115" d="M156 0v1486h925v-233h-616v-1021h207v-496q0 -39 -27.5 -62.5t-70.5 -23.5h-184v350h-234z" />
<glyph unicode="&#x4f7;" horiz-adv-x="872" d="M116 0v1056h728v-206h-446v-644h195v-475q0 -38 -22.5 -60t-57.5 -22h-177v351h-220z" />
<glyph unicode="&#x4f8;" horiz-adv-x="1898" d="M156 0v1486h307v-605h223q148 0 254 -33t172 -89.5t96.5 -130.5t30.5 -158q0 -106 -37.5 -193t-108 -148t-173.5 -95t-234 -34h-530zM463 236h223q73 0 121 16t76.5 44.5t40.5 65t12 77.5q0 46 -12 84t-40 65t-76 41.5t-122 14.5h-223v-408zM571 1707q0 30 11.5 57 t31.5 47t45.5 31.5t54.5 11.5q31 0 58.5 -11.5t48.5 -31.5t33 -47t12 -57t-12 -56t-33 -45t-48.5 -30t-58.5 -11q-29 0 -54.5 11t-45.5 30t-31.5 45t-11.5 56zM1030 1707q0 30 11.5 57t31.5 47t46.5 31.5t57.5 11.5t57.5 -11.5t46.5 -31.5t31.5 -47t11.5 -57t-11.5 -56 t-31.5 -45t-46.5 -30t-57.5 -11t-57.5 11t-46.5 30t-31.5 45t-11.5 56zM1434 0v1486h309v-1486h-309z" />
<glyph unicode="&#x4f9;" horiz-adv-x="1536" d="M117 0v1056h268v-383h172q111 0 188 -27.5t125.5 -73t70 -105t21.5 -126.5q0 -76 -27.5 -138.5t-79 -107.5t-126.5 -70t-170 -25h-442zM376 1325q0 31 12.5 58.5t33 48.5t47.5 33t57 12q32 0 60 -12t49 -33t33 -48.5t12 -58.5t-12 -57.5t-33 -46.5t-49.5 -31t-59.5 -11 q-30 0 -57 11t-47.5 31t-33 46.5t-12.5 57.5zM385 198h173q76 0 114.5 40t38.5 102q0 27 -9 51.5t-28 43t-47.5 29.5t-68.5 11h-173v-277zM801 1325q0 31 12 58.5t32.5 48.5t48 33t58.5 12q32 0 60 -12t48.5 -33t32.5 -48.5t12 -58.5t-12 -57.5t-32.5 -46.5t-49 -31 t-59.5 -11t-58.5 11t-48 31t-32.5 46.5t-12 57.5zM1137 0v1056h281v-1056h-281z" />
<glyph unicode="&#x4fa;" horiz-adv-x="1231" d="M33 645v224h239v617h926v-233h-616v-384h351v-224h-351v-413h206v-295q0 -66 -16.5 -122t-54.5 -96.5t-98.5 -63.5t-147.5 -23q-46 0 -89 10.5t-95 32.5l21 112q9 33 27 43t35 10t37 -5.5t48 -5.5q50 0 69 34t19 99v38h-271v645h-239z" />
<glyph unicode="&#x4fb;" horiz-adv-x="962" d="M39 422v196h170v438h728v-206h-445v-232h200v-196h-200v-216h193v-222q0 -66 -17 -129t-55 -112.5t-98 -80t-146 -30.5q-47 0 -90 10.5t-96 32.5l23 112q8 32 26 42.5t35 10.5q16 0 37 -5.5t47 -5.5q50 0 69 34t19 99v38h-230v422h-170z" />
<glyph unicode="&#x4fc;" horiz-adv-x="1461" d="M-5 0l486 765l-468 721h308q31 0 45 -8.5t25 -26.5l320 -525q5 12 11 25t14 26l287 469q12 20 27 30t36 10h294l-472 -708l341 -548h199v-246q0 -66 -17 -129t-55 -112.5t-98 -80t-148 -30.5q-46 0 -89 10.5t-95 32.5l22 112q9 33 27 43t34 10q17 0 37 -5.5t47 -5.5 q51 0 70 34t19 99v38h-117q-31 0 -49.5 15.5t-29.5 35.5l-322 547q-5 -11 -9.5 -22t-10.5 -20l-306 -505q-13 -19 -31 -35t-45 -16h-287z" />
<glyph unicode="&#x4fd;" horiz-adv-x="1163" d="M-2 0l357 545l-343 511h272q30 0 44.5 -8.5t25.5 -26.5l206 -335q10 35 34 71l158 259q13 20 28 30t35 10h259l-344 -499l226 -351h188v-222q0 -66 -17 -129t-55 -112.5t-98.5 -80t-146.5 -30.5q-47 0 -90 10.5t-95 32.5l23 112q9 33 27 43t34 10t36.5 -5.5t47.5 -5.5 q50 0 69 34t19 99v38h-81q-31 0 -49.5 15.5t-30.5 35.5l-208 348q-8 -33 -26 -62l-178 -286q-12 -19 -30.5 -35t-45.5 -16h-251z" />
<glyph unicode="&#x4fe;" horiz-adv-x="1489" d="M45 0l413 647h-323v223h329l-399 616h307q31 0 45 -8.5t25 -26.5l320 -525q5 12 11 25t14 26l286 469q13 20 28 30t36 10h295l-411 -616h333v-223h-314l404 -647h-307q-31 0 -50 15.5t-30 35.5l-323 547q-4 -11 -9 -22t-10 -20l-306 -505q-12 -19 -30.5 -35t-45.5 -16 h-288z" />
<glyph unicode="&#x4ff;" horiz-adv-x="1156" d="M33 0l297 453h-232v197h221l-272 406h271q30 0 45 -8.5t26 -26.5l206 -335q10 35 34 71l157 259q13 20 28 30t36 10h259l-280 -406h228v-197h-224l290 -453h-271q-31 0 -50 15.5t-30 35.5l-208 348q-8 -33 -26 -62l-179 -286q-12 -19 -30 -35t-45 -16h-251z" />
<glyph unicode="&#x2000;" horiz-adv-x="986" />
<glyph unicode="&#x2001;" horiz-adv-x="1972" />
<glyph unicode="&#x2002;" horiz-adv-x="986" />
<glyph unicode="&#x2003;" horiz-adv-x="1972" />
<glyph unicode="&#x2004;" horiz-adv-x="657" />
<glyph unicode="&#x2005;" horiz-adv-x="493" />
<glyph unicode="&#x2006;" horiz-adv-x="328" />
<glyph unicode="&#x2007;" horiz-adv-x="328" />
<glyph unicode="&#x2008;" horiz-adv-x="246" />
<glyph unicode="&#x2009;" horiz-adv-x="394" />
<glyph unicode="&#x200a;" horiz-adv-x="109" />
<glyph unicode="&#x2010;" horiz-adv-x="764" d="M112 505v231h540v-231h-540z" />
<glyph unicode="&#x2011;" horiz-adv-x="764" d="M112 505v231h540v-231h-540z" />
<glyph unicode="&#x2012;" horiz-adv-x="764" d="M112 505v231h540v-231h-540z" />
<glyph unicode="&#x2013;" d="M177 519v197h834v-197h-834z" />
<glyph unicode="&#x2014;" horiz-adv-x="1637" d="M119 519v197h1401v-197h-1401z" />
<glyph unicode="&#x2018;" horiz-adv-x="457" d="M83 1295.5q15 87.5 64 168.5t131 146l88 -54q12 -7 16.5 -16t4 -19t-4.5 -19t-10 -15q-19 -23 -39.5 -63.5t-29 -92t0.5 -112t48 -121.5q20 -32 11 -56t-37 -33l-170 -65q-52 84 -70 174t-3 177.5z" />
<glyph unicode="&#x2019;" horiz-adv-x="457" d="M77.5 1008.5q0.5 9.5 4.5 18.5t11 15q19 23 39 63t28 92t-1 112.5t-47 121.5q-20 32 -11 56t37 33l171 65q52 -84 70 -174.5t2.5 -178t-64 -168.5t-130.5 -145l-88 53q-12 7 -17 17t-4.5 19.5z" />
<glyph unicode="&#x201a;" horiz-adv-x="448" d="M54.5 -252.5q0.5 9.5 4.5 18.5t11 15q19 23 39 63t28 92t-1 112.5t-47 121.5q-20 32 -11 56t37 33l171 65q52 -84 70 -174.5t2.5 -178t-64 -168.5t-130.5 -145l-88 53q-12 7 -17 17t-4.5 19.5z" />
<glyph unicode="&#x201c;" horiz-adv-x="809" d="M83 1295.5q15 87.5 64 168.5t131 146l88 -54q12 -7 16.5 -16t4 -19t-4.5 -19t-10 -15q-19 -23 -39.5 -63.5t-29 -92t0.5 -112t48 -121.5q20 -32 11 -56t-37 -33l-170 -65q-52 84 -70 174t-3 177.5zM435 1295.5q15 87.5 64 168.5t131 146l88 -54q12 -7 16.5 -16t4 -19 t-4.5 -19t-10 -15q-19 -23 -39.5 -63.5t-29 -92t0.5 -112t48 -121.5q20 -32 11 -56t-37 -33l-170 -65q-52 84 -70 174t-3 177.5z" />
<glyph unicode="&#x201d;" horiz-adv-x="809" d="M77.5 1008.5q0.5 9.5 4.5 18.5t11 15q19 23 39 63t28 92t-1 112.5t-47 121.5q-20 32 -11 56t37 33l171 65q52 -84 70 -174.5t2.5 -178t-64 -168.5t-130.5 -145l-88 53q-12 7 -17 17t-4.5 19.5zM429.5 1008.5q0.5 9.5 4.5 18.5t11 15q19 23 39 63t28 92t-1 112.5 t-47 121.5q-20 32 -11 56t37 33l171 65q52 -84 70 -174.5t2.5 -178t-64 -168.5t-130.5 -145l-88 53q-12 7 -17 17t-4.5 19.5z" />
<glyph unicode="&#x201e;" horiz-adv-x="799" d="M54.5 -252.5q0.5 9.5 4.5 18.5t11 15q19 23 39 63t28 92t-1 112.5t-47 121.5q-20 32 -11 56t37 33l171 65q52 -84 70 -174.5t2.5 -178t-64 -168.5t-130.5 -145l-88 53q-12 7 -17 17t-4.5 19.5zM406.5 -252.5q0.5 9.5 4.5 18.5t11 15q19 23 39 63t28 92t-1 112.5 t-47 121.5q-20 32 -11 56t37 33l171 65q52 -84 70 -174.5t2.5 -178t-64 -168.5t-130.5 -145l-88 53q-12 7 -17 17t-4.5 19.5z" />
<glyph unicode="&#x2026;" horiz-adv-x="1598" d="M77 148q0 34 12.5 64.5t35 52.5t53 34.5t66.5 12.5q35 0 65.5 -12.5t53 -34.5t35.5 -52.5t13 -64.5q0 -35 -13 -64.5t-35.5 -51.5t-53 -34t-65.5 -12q-36 0 -66.5 12t-53 34t-35 51.5t-12.5 64.5zM632 148q0 34 12.5 64.5t35 52.5t53 34.5t66.5 12.5q35 0 65.5 -12.5 t53 -34.5t35.5 -52.5t13 -64.5q0 -35 -13 -64.5t-35.5 -51.5t-53 -34t-65.5 -12q-36 0 -66.5 12t-53 34t-35 51.5t-12.5 64.5zM1187 148q0 34 12.5 64.5t35 52.5t53 34.5t66.5 12.5q35 0 65.5 -12.5t53 -34.5t35.5 -52.5t13 -64.5q0 -35 -13 -64.5t-35.5 -51.5t-53 -34 t-65.5 -12q-36 0 -66.5 12t-53 34t-35 51.5t-12.5 64.5z" />
<glyph unicode="&#x202f;" horiz-adv-x="394" />
<glyph unicode="&#x2039;" horiz-adv-x="603" d="M88 536v35l265 409l92 -42q36 -17 42 -46t-12 -62l-134 -231q-15 -27 -35 -45q19 -18 35 -45l134 -233q17 -33 11.5 -61.5t-41.5 -44.5l-92 -43z" />
<glyph unicode="&#x203a;" horiz-adv-x="604" d="M116.5 215q-5.5 29 12.5 61l133 233q15 27 35 45q-19 18 -35 45l-133 231q-18 33 -12.5 62t41.5 46l93 42l265 -409v-35l-265 -409l-93 43q-36 16 -41.5 45z" />
<glyph unicode="&#x205f;" horiz-adv-x="493" />
<glyph unicode="&#x20ac;" d="M28 547v153h111q-1 11 -1 21.5v21.5q0 16 0.5 32t1.5 32h-112v154h131q25 123 76.5 222.5t125.5 170t168 108.5t202 38q144 0 247 -55.5t171 -150.5l-100 -106q-11 -12 -23.5 -22t-35.5 -10t-40.5 16.5t-42 36.5t-62.5 36.5t-102 16.5q-110 0 -186 -76t-107 -225h494v-85 q0 -25 -21 -47t-57 -22h-436q-1 -15 -1 -31v-33v-43h417v-85q0 -25 -21 -46.5t-56 -21.5h-325q28 -163 103 -243t184 -80q46 0 79.5 9.5t57.5 22.5t40.5 29t30 29.5t26.5 22.5t29 9q13 0 22 -3.5t19 -14.5l123 -111q-71 -113 -183.5 -172t-258.5 -59q-121 0 -217 40.5 t-166.5 114t-115.5 177t-64 229.5h-125z" />
<glyph unicode="&#x2122;" horiz-adv-x="1554" d="M81 1329v157h516v-157h-162v-466h-193v466h-161zM660 863v623h168q25 0 36.5 -4.5t26.5 -24.5l117 -244q19 -41 30 -77q6 19 14 38.5t18 38.5l121 244q14 19 26.5 24t35.5 5h167v-623h-170v287l14 107l-145 -293q-20 -41 -66 -41h-28q-22 0 -39 10t-27 31l-140 289 l11 -103v-287h-170z" />
<glyph unicode="&#x25fc;" horiz-adv-x="1054" d="M0 0v1055h1055v-1055h-1055z" />
</font>
</defs>
</svg>
